{
  "accessors": [
    {
      "bufferView": 2,
      "componentType": 5126,
      "count": 1918,
      "max": [
        0.5399889945983887,
        0.22875100374221802,
        1.8320239782333374
      ],
      "min": [
        -0.5399889945983887,
        -0.12814199924468994,
        -0.20818600058555603
      ],
      "type": "VEC3"
    },
    {
      "bufferView": 2,
      "byteOffset": 23016,
      "componentType": 5126,
      "count": 1918,
      "max": [
        0.9993516802787781,
        0.9996594786643982,
        1.0
      ],
      "min": [
        -0.9993516802787781,
        -0.9995933771133423,
        -1.0
      ],
      "type": "VEC3"
    },
    {
      "bufferView": 1,
      "componentType": 5126,
      "count": 1918,
      "max": [
        0.9968400001525879,
        1.2975599765777588
      ],
      "min": [
        0.004240000154823065,
        0.003659999929368496
      ],
      "type": "VEC2"
    },
    {
      "bufferView": 0,
      "componentType": 5125,
      "count": 5715,
      "type": "SCALAR"
    },
    {
      "bufferView": 2,
      "byteOffset": 46032,
      "componentType": 5126,
      "count": 332,
      "max": [
        0.6648709774017334,
        0.3426640033721924,
        1.8067699670791626
      ],
      "min": [
        -0.6648679971694946,
        -0.16517099738121033,
        0.03378399834036827
      ],
      "type": "VEC3"
    },
    {
      "bufferView": 2,
      "byteOffset": 50016,
      "componentType": 5126,
      "count": 332,
      "max": [
        1.0,
        0.9982607960700989,
        0.9993205666542053
      ],
      "min": [
        -1.0,
        -0.999986469745636,
        -0.8653448820114136
      ],
      "type": "VEC3"
    },
    {
      "bufferView": 1,
      "byteOffset": 15344,
      "componentType": 5126,
      "count": 332,
      "max": [
        0.9974499940872192,
        0.9979100227355957
      ],
      "min": [
        0.008469999767839909,
        0.004019999876618385
      ],
      "type": "VEC2"
    },
    {
      "bufferView": 0,
      "byteOffset": 22860,
      "componentType": 5125,
      "count": 951,
      "type": "SCALAR"
    }
  ],
  "asset": {
    "extras": {
      "author": "princenj0613 (https://sketchfab.com/princenj0613)",
      "license": "CC-BY-4.0 (http://creativecommons.org/licenses/by/4.0/)",
      "source": "https://sketchfab.com/3d-models/winx-club-flora-sirenix-2ab20574550348ed8f47a0df6379f570",
      "title": "Winx Club Flora Sirenix"
    },
    "generator": "Sketchfab-16.15.0",
    "version": "2.0"
  },
  "bufferViews": [
    {
      "buffer": 0,
      "byteLength": 26664,
      "name": "floatBufferViews",
      "target": 34963
    },
    {
      "buffer": 0,
      "byteLength": 18000,
      "byteOffset": 26664,
      "byteStride": 8,
      "name": "floatBufferViews",
      "target": 34962
    },
    {
      "buffer": 0,
      "byteLength": 54000,
      "byteOffset": 44664,
      "byteStride": 12,
      "name": "floatBufferViews",
      "target": 34962
    }
  ],
  "buffers": [
    {
      "byteLength": 98664,
      "uri": "scene.bin"
    }
  ],
  "images": [
    {
      "uri": "textures/mat1_baseColor.png"
    },
    {
      "uri": "textures/mat2_baseColor.png"
    }
  ],
  "materials": [
    {
      "doubleSided": true,
      "name": "mat1",
      "pbrMetallicRoughness": {
        "baseColorTexture": {
          "index": 0
        },
        "metallicFactor": 0.0
      }
    },
    {
      "doubleSided": true,
      "name": "mat2",
      "pbrMetallicRoughness": {
        "baseColorTexture": {
          "index": 1
        },
        "metallicFactor": 0.0
      }
    }
  ],
  "meshes": [
    {
      "name": "Object_0",
      "primitives": [
        {
          "attributes": {
            "NORMAL": 1,
            "POSITION": 0,
            "TEXCOORD_0": 2
          },
          "indices": 3,
          "material": 0,
          "mode": 4
        }
      ]
    },
    {
      "name": "Object_1",
      "primitives": [
        {
          "attributes": {
            "NORMAL": 5,
            "POSITION": 4,
            "TEXCOORD_0": 6
          },
          "indices": 7,
          "material": 1,
          "mode": 4
        }
      ]
    }
  ],
  "nodes": [
    {
      "children": [
        1
      ],
      "matrix": [
        1.0,
        0.0,
        0.0,
        0.0,
        0.0,
        2.220446049250313e-16,
        -1.0,
        0.0,
        0.0,
        1.0,
        2.220446049250313e-16,
        0.0,
        0.0,
        0.0,
        0.0,
        1.0
      ],
      "name": "Sketchfab_model"
    },
    {
      "children": [
        2,
        3
      ],
      "name": "Model.obj.cleaner.materialmerger.gles"
    },
    {
      "mesh": 0,
      "name": "Object_2"
    },
    {
      "mesh": 1,
      "name": "Object_3"
    }
  ],
  "samplers": [
    {
      "magFilter": 9729,
      "minFilter": 9987,
      "wrapS": 10497,
      "wrapT": 10497
    }
  ],
  "scene": 0,
  "scenes": [
    {
      "name": "Sketchfab_Scene",
      "nodes": [
        0
      ]
    }
  ],
  "textures": [
    {
      "sampler": 0,
      "source": 0
    },
    {
      "sampler": 0,
      "source": 1
    }
  ]
}
