{
  "accessors": [
    {
      "bufferView": 2,
      "componentType": 5126,
      "count": 4813,
      "max": [
        30.558332443237305,
        46.85953140258789,
        8.426575660705566
      ],
      "min": [
        -30.558332443237305,
        -0.07368625700473785,
        -8.887451171875
      ],
      "type": "VEC3"
    },
    {
      "bufferView": 2,
      "byteOffset": 57756,
      "componentType": 5126,
      "count": 4813,
      "max": [
        1.0,
        1.0,
        1.0
      ],
      "min": [
        -1.0,
        -1.0,
        -1.0
      ],
      "type": "VEC3"
    },
    {
      "bufferView": 1,
      "componentType": 5126,
      "count": 4813,
      "max": [
        0.9917265772819519,
        0.9956949949264526
      ],
      "min": [
        0.0,
        0.003445148468017578
      ],
      "type": "VEC2"
    },
    {
      "bufferView": 1,
      "byteOffset": 38504,
      "componentType": 5126,
      "count": 4813,
      "max": [
        0.9917265772819519,
        0.9956949949264526
      ],
      "min": [
        0.0,
        0.003445148468017578
      ],
      "type": "VEC2"
    },
    {
      "bufferView": 0,
      "componentType": 5125,
      "count": 22224,
      "type": "SCALAR"
    }
  ],
  "asset": {
    "extras": {
      "author": "fwdaveb (https://sketchfab.com/fwdaveb)",
      "license": "CC-BY-4.0 (http://creativecommons.org/licenses/by/4.0/)",
      "source": "https://sketchfab.com/3d-models/troll-character-example-72e1822d95d345dc9dff17283539f047",
      "title": "Troll Character Example"
    },
    "generator": "Sketchfab-16.12.0",
    "version": "2.0"
  },
  "bufferViews": [
    {
      "buffer": 0,
      "byteLength": 88896,
      "name": "floatBufferViews",
      "target": 34963
    },
    {
      "buffer": 0,
      "byteLength": 77008,
      "byteOffset": 88896,
      "byteStride": 8,
      "name": "floatBufferViews",
      "target": 34962
    },
    {
      "buffer": 0,
      "byteLength": 115512,
      "byteOffset": 165904,
      "byteStride": 12,
      "name": "floatBufferViews",
      "target": 34962
    }
  ],
  "buffers": [
    {
      "byteLength": 281416,
      "uri": "scene.bin"
    }
  ],
  "images": [
    {
      "uri": "textures/lambert2_baseColor.jpeg"
    }
  ],
  "materials": [
    {
      "doubleSided": true,
      "emissiveFactor": [
        1.0,
        1.0,
        1.0
      ],
      "emissiveTexture": {
        "index": 0
      },
      "name": "lambert2",
      "pbrMetallicRoughness": {
        "baseColorTexture": {
          "index": 0
        },
        "metallicFactor": 0.0,
        "roughnessFactor": 0.6
      }
    }
  ],
  "meshes": [
    {
      "name": "Troll_lambert2_0",
      "primitives": [
        {
          "attributes": {
            "NORMAL": 1,
            "POSITION": 0,
            "TEXCOORD_0": 2,
            "TEXCOORD_1": 3
          },
          "indices": 4,
          "material": 0,
          "mode": 4
        }
      ]
    }
  ],
  "nodes": [
    {
      "children": [
        1
      ],
      "matrix": [
        0.03431510925292969,
        0.0,
        0.0,
        0.0,
        0.0,
        7.619484877026059e-18,
        -0.03431510925292969,
        0.0,
        0.0,
        0.03431510925292969,
        7.619484877026059e-18,
        0.0,
        0.0,
        0.0,
        0.0,
        1.0
      ],
      "name": "Sketchfab_model"
    },
    {
      "children": [
        2
      ],
      "matrix": [
        1.0,
        0.0,
        0.0,
        0.0,
        0.0,
        0.0,
        1.0,
        0.0,
        0.0,
        -1.0,
        0.0,
        0.0,
        0.0,
        0.0,
        0.0,
        1.0
      ],
      "name": "baba37d802e84e50aa3fadf2ec72f436.fbx"
    },
    {
      "children": [
        3
      ],
      "name": "RootNode"
    },
    {
      "children": [
        4
      ],
      "name": "Troll"
    },
    {
      "mesh": 0,
      "name": "Troll_lambert2_0"
    }
  ],
  "samplers": [
    {
      "magFilter": 9729,
      "minFilter": 9987,
      "wrapS": 10497,
      "wrapT": 10497
    }
  ],
  "scene": 0,
  "scenes": [
    {
      "name": "Sketchfab_Scene",
      "nodes": [
        0
      ]
    }
  ],
  "textures": [
    {
      "sampler": 0,
      "source": 0
    }
  ]
}
