{
  "accessors": [
    {
      "bufferView": 3,
      "componentType": 5126,
      "count": 6465,
      "max": [
        0.6955918073654175,
        0.13964083790779114,
        1.535162329673767
      ],
      "min": [
        -0.6950037479400635,
        -0.13901005685329437,
        -0.07214483618736267
      ],
      "type": "VEC3"
    },
    {
      "bufferView": 3,
      "byteOffset": 77580,
      "componentType": 5126,
      "count": 6465,
      "max": [
        0.9997889399528503,
        0.9996204972267151,
        0.9996232390403748
      ],
      "min": [
        -0.9997889399528503,
        -0.9999697208404541,
        -0.9998474717140198
      ],
      "type": "VEC3"
    },
    {
      "bufferView": 2,
      "componentType": 5126,
      "count": 6465,
      "max": [
        0.9959564208984375,
        0.997145414352417
      ],
      "min": [
        0.003241895930841565,
        0.001301705022342503
      ],
      "type": "VEC2"
    },
    {
      "bufferView": 1,
      "componentType": 5125,
      "count": 32610,
      "type": "SCALAR"
    },
    {
      "bufferView": 3,
      "byteOffset": 155160,
      "componentType": 5126,
      "count": 2712,
      "max": [
        0.9830388426780701,
        0.5393273234367371,
        1.6809579133987427
      ],
      "min": [
        -0.981770932674408,
        -0.11736366152763367,
        0.0466298833489418
      ],
      "type": "VEC3"
    },
    {
      "bufferView": 3,
      "byteOffset": 187704,
      "componentType": 5126,
      "count": 2712,
      "max": [
        0.9993748068809509,
        0.999944269657135,
        0.999515175819397
      ],
      "min": [
        -0.9993748068809509,
        -0.999944269657135,
        -0.996208667755127
      ],
      "type": "VEC3"
    },
    {
      "bufferView": 2,
      "byteOffset": 51720,
      "componentType": 5126,
      "count": 2712,
      "max": [
        0.9975888729095459,
        0.9980239868164063
      ],
      "min": [
        0.009178102016448975,
        -0.003096221946179867
      ],
      "type": "VEC2"
    },
    {
      "bufferView": 1,
      "byteOffset": 130440,
      "componentType": 5125,
      "count": 12546,
      "type": "SCALAR"
    },
    {
      "bufferView": 3,
      "byteOffset": 220248,
      "componentType": 5126,
      "count": 918,
      "max": [
        -0.5693711042404175,
        0.04052029922604561,
        1.2765321731567383
      ],
      "min": [
        -0.7951357364654541,
        -0.4673967659473419,
        1.2311134338378906
      ],
      "type": "VEC3"
    },
    {
      "bufferView": 3,
      "byteOffset": 231264,
      "componentType": 5126,
      "count": 918,
      "max": [
        0.9951327443122864,
        0.998546838760376,
        0.9985787868499756
      ],
      "min": [
        -0.999753475189209,
        -0.9957190155982971,
        -0.9998612403869629
      ],
      "type": "VEC3"
    },
    {
      "bufferView": 2,
      "byteOffset": 73416,
      "componentType": 5126,
      "count": 918,
      "max": [
        1.0002000331878662,
        0.9944000244140625
      ],
      "min": [
        0.010399989783763885,
        0.021499989554286003
      ],
      "type": "VEC2"
    },
    {
      "bufferView": 1,
      "byteOffset": 180624,
      "componentType": 5125,
      "count": 4992,
      "type": "SCALAR"
    },
    {
      "bufferView": 5,
      "componentType": 5126,
      "count": 150,
      "max": [
        98.79084014892578,
        100.0000991821289,
        100.0000991821289,
        0.0,
        100.01499938964844,
        99.48702239990234,
        99.66748809814453,
        0.0,
        97.87909698486328,
        100.0000991821289,
        100.0000991821289,
        0.0,
        86.74951171875,
        148.18919372558594,
        144.92449951171875,
        1.0
      ],
      "min": [
        -90.31735229492188,
        -100.0000991821289,
        -100.0000991821289,
        0.0,
        -100.0156021118164,
        -99.71504974365234,
        -99.66802978515625,
        0.0,
        -99.47173309326172,
        -100.0,
        -100.0000991821289,
        0.0,
        -128.181396484375,
        -136.36849975585938,
        -144.92359924316406,
        1.0
      ],
      "type": "MAT4"
    },
    {
      "bufferView": 0,
      "componentType": 5123,
      "count": 6465,
      "type": "VEC4"
    },
    {
      "bufferView": 4,
      "componentType": 5126,
      "count": 6465,
      "max": [
        1.0,
        0.5,
        0.30313655734062195,
        0.1787480115890503
      ],
      "min": [
        0.30450233817100525,
        0.0,
        0.0,
        0.0
      ],
      "type": "VEC4"
    },
    {
      "bufferView": 0,
      "byteOffset": 51720,
      "componentType": 5123,
      "count": 2712,
      "type": "VEC4"
    },
    {
      "bufferView": 4,
      "byteOffset": 103440,
      "componentType": 5126,
      "count": 2712,
      "max": [
        1.0,
        0.5,
        0.3333333432674408,
        0.21666663885116577
      ],
      "min": [
        0.26521599292755127,
        0.0,
        0.0,
        0.0
      ],
      "type": "VEC4"
    },
    {
      "bufferView": 0,
      "byteOffset": 73416,
      "componentType": 5123,
      "count": 918,
      "type": "VEC4"
    },
    {
      "bufferView": 4,
      "byteOffset": 146832,
      "componentType": 5126,
      "count": 918,
      "max": [
        1.0,
        0.0,
        0.0,
        0.0
      ],
      "min": [
        1.0,
        0.0,
        0.0,
        0.0
      ],
      "type": "VEC4"
    }
  ],
  "asset": {
    "extras": {
      "author": "3dlancer (https://sketchfab.com/3dlancer)",
      "license": "CC-BY-NC-4.0 (http://creativecommons.org/licenses/by-nc/4.0/)",
      "source": "https://sketchfab.com/3d-models/low-polygon-fairy-model-e50e73874e4749b89957981e9e16221f",
      "title": "Low polygon Fairy model"
    },
    "generator": "Sketchfab-12.66.0",
    "version": "2.0"
  },
  "bufferViews": [
    {
      "buffer": 0,
      "byteLength": 80760,
      "byteStride": 8,
      "name": "shortBufferViews",
      "target": 34962
    },
    {
      "buffer": 0,
      "byteLength": 200592,
      "byteOffset": 80760,
      "name": "floatBufferViews",
      "target": 34963
    },
    {
      "buffer": 0,
      "byteLength": 80760,
      "byteOffset": 281352,
      "byteStride": 8,
      "name": "floatBufferViews",
      "target": 34962
    },
    {
      "buffer": 0,
      "byteLength": 242280,
      "byteOffset": 362112,
      "byteStride": 12,
      "name": "floatBufferViews",
      "target": 34962
    },
    {
      "buffer": 0,
      "byteLength": 161520,
      "byteOffset": 604392,
      "byteStride": 16,
      "name": "floatBufferViews",
      "target": 34962
    },
    {
      "buffer": 0,
      "byteLength": 9600,
      "byteOffset": 765912,
      "name": "floatBufferViews"
    }
  ],
  "buffers": [
    {
      "byteLength": 775512,
      "uri": "scene.bin"
    }
  ],
  "images": [
    {
      "uri": "textures/Fairy_baseColor.png"
    },
    {
      "uri": "textures/Fairy_Wings_baseColor.png"
    },
    {
      "uri": "textures/Wand_baseColor.png"
    }
  ],
  "materials": [
    {
      "doubleSided": true,
      "name": "Fairy",
      "pbrMetallicRoughness": {
        "baseColorTexture": {
          "index": 0
        },
        "metallicFactor": 0.0,
        "roughnessFactor": 0.6
      }
    },
    {
      "alphaMode": "BLEND",
      "doubleSided": true,
      "name": "Fairy_Wings",
      "pbrMetallicRoughness": {
        "baseColorTexture": {
          "index": 1
        },
        "metallicFactor": 0.0,
        "roughnessFactor": 0.6
      }
    },
    {
      "doubleSided": true,
      "name": "Wand",
      "pbrMetallicRoughness": {
        "baseColorTexture": {
          "index": 2
        },
        "metallicFactor": 0.0,
        "roughnessFactor": 0.6
      }
    }
  ],
  "meshes": [
    {
      "name": "Fairy-material",
      "primitives": [
        {
          "attributes": {
            "JOINTS_0": 13,
            "NORMAL": 1,
            "POSITION": 0,
            "TEXCOORD_0": 2,
            "WEIGHTS_0": 14
          },
          "indices": 3,
          "material": 0,
          "mode": 4
        }
      ]
    },
    {
      "name": "Fairy_Wings-material",
      "primitives": [
        {
          "attributes": {
            "JOINTS_0": 15,
            "NORMAL": 5,
            "POSITION": 4,
            "TEXCOORD_0": 6,
            "WEIGHTS_0": 16
          },
          "indices": 7,
          "material": 1,
          "mode": 4
        }
      ]
    },
    {
      "name": "Wand-material",
      "primitives": [
        {
          "attributes": {
            "JOINTS_0": 17,
            "NORMAL": 9,
            "POSITION": 8,
            "TEXCOORD_0": 10,
            "WEIGHTS_0": 18
          },
          "indices": 11,
          "material": 2,
          "mode": 4
        }
      ]
    }
  ],
  "nodes": [
    {
      "children": [
        1
      ],
      "matrix": [
        1.0,
        0.0,
        0.0,
        0.0,
        0.0,
        2.220446049250313e-16,
        -1.0,
        0.0,
        0.0,
        1.0,
        2.220446049250313e-16,
        0.0,
        0.0,
        0.0,
        0.0,
        1.0
      ],
      "name": "Sketchfab_model"
    },
    {
      "children": [
        2
      ],
      "name": "Collada visual scene group"
    },
    {
      "children": [
        3
      ],
      "matrix": [
        0.01,
        0.0,
        0.0,
        0.0,
        0.0,
        0.01,
        0.0,
        0.0,
        0.0,
        0.0,
        0.01,
        0.0,
        0.0,
        0.0,
        0.0,
        1.0
      ],
      "name": "Armature"
    },
    {
      "children": [
        4,
        154,
        155,
        156
      ],
      "name": "Object_3"
    },
    {
      "children": [
        5
      ],
      "name": "_rootJoint"
    },
    {
      "children": [
        6,
        7,
        138,
        146
      ],
      "name": "Armature_Bip_Root",
      "rotation": [
        -0.5203949809074402,
        0.47873690724372864,
        -0.4787366986274719,
        0.5203952193260193
      ],
      "scale": [
        1.0,
        1.0,
        1.0
      ],
      "translation": [
        -8.881780131243106e-14,
        0.03325644135475159,
        83.08704376220703
      ]
    },
    {
      "name": "Armature_Bip001_Footsteps",
      "rotation": [
        0.49719998240470886,
        -0.4991638958454132,
        0.45739850401878357,
        0.5425996780395508
      ],
      "scale": [
        1.0,
        1.000000238418579,
        0.9999999403953552
      ],
      "translation": [
        7.762776851654053,
        89.03753662109375,
        -0.6484581828117371
      ]
    },
    {
      "children": [
        8
      ],
      "name": "Armature_Bip001_Pelvis",
      "rotation": [
        0.9989452362060547,
        0.019302019849419594,
        -0.04165640473365784,
        -0.0008048235904425383
      ],
      "scale": [
        0.99984210729599,
        0.9999995827674866,
        1.0000001192092896
      ],
      "translation": [
        0.0,
        0.0,
        4.656610097519831e-10
      ]
    },
    {
      "children": [
        9,
        113,
        125,
        137
      ],
      "name": "Armature_Bip001_Spine",
      "rotation": [
        -0.019419029355049133,
        0.9998098611831665,
        -3.3732463634805754e-05,
        -0.0017604636959731579
      ],
      "scale": [
        1.0,
        1.0000001192092896,
        1.0
      ],
      "translation": [
        -4.768369876728684e-07,
        9.700248718261719,
        7.27596021626864e-12
      ]
    },
    {
      "children": [
        10,
        95,
        100,
        105,
        109
      ],
      "name": "Armature_Bip001_Spine1",
      "rotation": [
        8.440650708507746e-05,
        -0.001773112453520298,
        -0.049070343375205994,
        0.9987938404083252
      ],
      "scale": [
        0.9999998807907104,
        1.0,
        1.0
      ],
      "translation": [
        2.98022992950564e-08,
        17.587299346923828,
        0.0
      ]
    },
    {
      "children": [
        11,
        47,
        71
      ],
      "name": "Armature_Bip001_Neck",
      "rotation": [
        3.3958467611228116e-06,
        2.5203566110576503e-05,
        0.11405399441719055,
        0.9934746623039246
      ],
      "scale": [
        1.0,
        0.9999998807907104,
        1.0
      ],
      "translation": [
        9.536739753457368e-07,
        21.915449142456055,
        -5.820770254683083e-11
      ]
    },
    {
      "children": [
        12,
        13,
        15,
        17,
        19,
        21,
        23,
        25,
        27,
        29,
        36
      ],
      "name": "Armature_Bip001_Head",
      "rotation": [
        2.674921404377528e-07,
        1.1936848750337958e-05,
        -0.03538233041763306,
        0.9993738532066345
      ],
      "scale": [
        1.0,
        0.9999992251396179,
        1.0
      ],
      "translation": [
        0.0,
        4.544356822967529,
        0.0
      ]
    },
    {
      "name": "Armature_Bip001_HeadNub",
      "rotation": [
        1.326385188349377e-07,
        -2.3738764866720885e-05,
        0.1275523155927658,
        0.9918319582939148
      ],
      "scale": [
        1.000001072883606,
        0.9999991059303284,
        1.0
      ],
      "translation": [
        9.536739753457368e-07,
        19.807430267333984,
        1.4551899615855568e-11
      ]
    },
    {
      "children": [
        14
      ],
      "name": "Armature__BoneRiteEye",
      "rotation": [
        -0.6072621941566467,
        0.6463993191719055,
        -0.3438873887062073,
        -0.30845099687576294
      ],
      "scale": [
        1.0,
        0.9999990463256836,
        1.0000009536743164
      ],
      "translation": [
        -5.370341777801514,
        9.14434814453125,
        -2.687791109085083
      ]
    },
    {
      "name": "Armature_Bip001_Xtra03Nub",
      "rotation": [
        -0.00018256674229633063,
        -0.4602830708026886,
        0.00035200794809497893,
        0.8877721428871155
      ],
      "scale": [
        0.9999966025352478,
        1.0000001192092896,
        1.000001072883606
      ],
      "translation": [
        0.0,
        1.581238031387329,
        7.629389983776491e-06
      ]
    },
    {
      "children": [
        16
      ],
      "name": "Armature__BoneLeftEye",
      "rotation": [
        -0.607278048992157,
        0.6464014053344727,
        0.3438595235347748,
        0.3084464371204376
      ],
      "scale": [
        0.9999998807907104,
        0.999998927116394,
        1.0000008344650269
      ],
      "translation": [
        -5.3705878257751465,
        9.144378662109375,
        2.6875829696655273
      ]
    },
    {
      "name": "Armature_Bip001_Xtra03OppNub",
      "rotation": [
        0.00018377782544121146,
        0.46025922894477844,
        0.0003543550265021622,
        0.8877846002578735
      ],
      "scale": [
        0.9999977350234985,
        0.9999998807907104,
        1.0000008344650269
      ],
      "translation": [
        -1.525879997643642e-05,
        1.5812439918518066,
        7.629389983776491e-06
      ]
    },
    {
      "children": [
        18
      ],
      "name": "Armature_B_eyeR_pl_UP",
      "rotation": [
        8.32154285035358e-07,
        -1.8375601939624175e-05,
        0.4240332543849945,
        0.9056467413902283
      ],
      "scale": [
        1.000001072883606,
        0.9999992251396179,
        1.0
      ],
      "translation": [
        -6.232875823974609,
        9.003510475158691,
        -8.46798038482666
      ]
    },
    {
      "name": "Armature_Bip001_Xtra04Nub",
      "rotation": [
        0.0003954545536544174,
        0.9999999403953552,
        3.11815142595151e-07,
        -1.8201127431893838e-06
      ],
      "scale": [
        1.0,
        0.9999999403953552,
        0.9999997019767761
      ],
      "translation": [
        -7.629389983776491e-06,
        1.422760009765625,
        9.536739753457368e-07
      ]
    },
    {
      "children": [
        20
      ],
      "name": "Armature_B_eyeL_pl_UP",
      "rotation": [
        -8.932648825066281e-07,
        -1.6271220374619588e-05,
        0.42403289675712585,
        0.905646800994873
      ],
      "scale": [
        1.000001072883606,
        0.9999991655349731,
        1.0
      ],
      "translation": [
        -6.233676910400391,
        9.00347900390625,
        8.46773624420166
      ]
    },
    {
      "name": "Armature_Bip001_Xtra04OppNub",
      "rotation": [
        0.00039503732114098966,
        0.9999999403953552,
        -5.773781595053151e-07,
        9.573480497238052e-08
      ],
      "scale": [
        1.0000008344650269,
        0.9999998211860657,
        0.9999991655349731
      ],
      "translation": [
        7.629389983776491e-06,
        1.422767996788025,
        0.0
      ]
    },
    {
      "children": [
        22
      ],
      "name": "Armature_B_eb_R_01",
      "rotation": [
        0.7628729939460754,
        -0.036679208278656006,
        0.011640968732535839,
        0.6454021334648132
      ],
      "scale": [
        0.9999991655349731,
        1.0000001192092896,
        1.0000011920928955
      ],
      "translation": [
        -8.087383270263672,
        11.420350074768066,
        -4.618159770965576
      ]
    },
    {
      "name": "Armature_Bip001_Xtra05Nub",
      "rotation": [
        0.0003983353963121772,
        0.9998877644538879,
        -8.106944733299315e-07,
        0.014975744299590588
      ],
      "scale": [
        1.0,
        0.9999974370002747,
        1.000002384185791
      ],
      "translation": [
        4.768369876728684e-07,
        2.582406997680664,
        0.0
      ]
    },
    {
      "children": [
        24
      ],
      "name": "Armature_B_eb_L_01",
      "rotation": [
        -0.7628728151321411,
        0.03671139478683472,
        0.011533387005329132,
        0.6454024314880371
      ],
      "scale": [
        1.000001072883606,
        1.0,
        0.9999990463256836
      ],
      "translation": [
        -8.087806701660156,
        11.420299530029297,
        4.6178460121154785
      ]
    },
    {
      "name": "Armature_Bip001_Xtra05OppNub",
      "rotation": [
        0.000398397067328915,
        0.9998891949653625,
        -7.317756171687506e-06,
        -0.014880860224366188
      ],
      "scale": [
        0.9999998807907104,
        1.0000011920928955,
        0.9999986886978149
      ],
      "translation": [
        0.0,
        2.5823938846588135,
        0.0
      ]
    },
    {
      "children": [
        26
      ],
      "name": "Armature_B_subE_R01",
      "rotation": [
        0.5112569332122803,
        0.1615128368139267,
        0.2842071056365967,
        0.7948309779167175
      ],
      "scale": [
        1.000001072883606,
        1.0000001192092896,
        0.9999991059303284
      ],
      "translation": [
        -7.420921802520752,
        7.3594207763671875,
        -4.192440986633301
      ]
    },
    {
      "name": "Armature_Bip001_Xtra06Nub",
      "rotation": [
        0.00037106763920746744,
        0.9258437156677246,
        0.00014424022810999304,
        0.3779064416885376
      ],
      "scale": [
        0.9999998807907104,
        1.0000011920928955,
        0.9999983310699463
      ],
      "translation": [
        7.629389983776491e-06,
        2.3278961181640625,
        -1.525879997643642e-05
      ]
    },
    {
      "children": [
        28
      ],
      "name": "Armature_B_subE_L01",
      "rotation": [
        -0.5112746953964233,
        -0.1615329086780548,
        0.2841763496398926,
        0.7948264479637146
      ],
      "scale": [
        1.0000011920928955,
        1.0,
        0.9999991059303284
      ],
      "translation": [
        -7.421298027038574,
        7.359467029571533,
        4.192173004150391
      ]
    },
    {
      "name": "Armature_Bip001_Xtra06OppNub",
      "rotation": [
        0.00037148481351323426,
        0.9258511066436768,
        -0.000143310462590307,
        -0.37788835167884827
      ],
      "scale": [
        1.0,
        0.9999998807907104,
        0.9999992847442627
      ],
      "translation": [
        7.629389983776491e-06,
        2.327862024307251,
        1.525879997643642e-05
      ]
    },
    {
      "children": [
        30
      ],
      "name": "Armature_Bip001_Ponytail2",
      "rotation": [
        -2.349347050767392e-05,
        1.9945265705700876e-07,
        0.9993309378623962,
        0.03657480701804161
      ],
      "scale": [
        0.999976634979248,
        1.0,
        1.0
      ],
      "translation": [
        -3.940808057785034,
        11.822219848632813,
        -6.051350116729736
      ]
    },
    {
      "children": [
        31
      ],
      "name": "Armature_Bip001_Ponytail21",
      "rotation": [
        -1.0749140955113035e-07,
        6.209794900513543e-09,
        0.00011716550216078758,
        1.0
      ],
      "scale": [
        1.0,
        0.9999998807907104,
        1.0
      ],
      "translation": [
        0.0,
        2.167296886444092,
        4.768369876728684e-07
      ]
    },
    {
      "children": [
        32
      ],
      "name": "Armature_Bip001_Ponytail22",
      "rotation": [
        -6.835288957063312e-08,
        5.6771685130740934e-09,
        4.051252489034596e-08,
        1.0
      ],
      "scale": [
        1.0,
        1.0000001192092896,
        0.9999998807907104
      ],
      "translation": [
        -4.768369876728684e-07,
        2.8063199520111084,
        0.0
      ]
    },
    {
      "children": [
        33
      ],
      "name": "Armature_Bip001_Ponytail23",
      "rotation": [
        2.6441727030146467e-08,
        9.179201754250244e-08,
        3.755560271656577e-07,
        1.0
      ],
      "scale": [
        1.0,
        0.9999998211860657,
        1.0000001192092896
      ],
      "translation": [
        4.768369876728684e-07,
        2.8063199520111084,
        0.0
      ]
    },
    {
      "children": [
        34
      ],
      "name": "Armature_Bip001_Ponytail24",
      "rotation": [
        -8.491749525774139e-08,
        -9.69812532503056e-08,
        -3.282912359736656e-07,
        1.0
      ],
      "scale": [
        1.0,
        1.0,
        1.0
      ],
      "translation": [
        0.0,
        2.806334972381592,
        -4.768369876728684e-07
      ]
    },
    {
      "children": [
        35
      ],
      "name": "Armature_Bip001_Ponytail25",
      "rotation": [
        3.703121720377567e-08,
        7.762982079384528e-08,
        0.0003982952912338078,
        0.9999999403953552
      ],
      "scale": [
        1.0,
        0.9999998807907104,
        1.0
      ],
      "translation": [
        4.768369876728684e-07,
        2.8062899112701416,
        -4.768369876728684e-07
      ]
    },
    {
      "name": "Armature_Bip001_Xtra09Nub",
      "rotation": [
        0.0003982644702773541,
        0.9999999403953552,
        -5.674875183103723e-07,
        8.06320088031498e-07
      ],
      "scale": [
        1.0,
        1.0000011920928955,
        0.9999991655349731
      ],
      "translation": [
        4.768369876728684e-07,
        2.806304931640625,
        -4.768369876728684e-07
      ]
    },
    {
      "children": [
        37
      ],
      "name": "Armature_Bip001_Ponytail1",
      "rotation": [
        0.005522044841200113,
        0.23526909947395325,
        0.9712948799133301,
        0.03470507264137268
      ],
      "scale": [
        0.9999992847442627,
        1.0000007152557373,
        1.0000017881393433
      ],
      "translation": [
        -8.855799674987793,
        16.155109405517578,
        -1.0857980251312256
      ]
    },
    {
      "children": [
        38
      ],
      "name": "Armature_Bip001_Ponytail11",
      "rotation": [
        -1.0035925697593484e-05,
        -2.6473586331121624e-05,
        1.6908323232200928e-05,
        1.0
      ],
      "scale": [
        0.9999998211860657,
        1.0000064373016357,
        0.9999958276748657
      ],
      "translation": [
        0.0,
        2.1672210693359375,
        0.0
      ]
    },
    {
      "children": [
        39
      ],
      "name": "Armature_Bip001_Ponytail12",
      "rotation": [
        -0.0006925428751856089,
        -0.00028764427406713367,
        0.11868692934513092,
        0.9929315447807312
      ],
      "scale": [
        1.0000005960464478,
        0.9999991655349731,
        1.0
      ],
      "translation": [
        0.0,
        2.167785882949829,
        0.0
      ]
    },
    {
      "children": [
        40
      ],
      "name": "Armature_Bip001_Ponytail13",
      "rotation": [
        -0.02144567109644413,
        0.0043683722615242004,
        -0.00021733719040639699,
        0.9997604489326477
      ],
      "scale": [
        0.9999999403953552,
        1.000003457069397,
        0.9999946355819702
      ],
      "translation": [
        1.9073499970545527e-06,
        2.167206048965454,
        -7.629389983776491e-06
      ]
    },
    {
      "children": [
        41
      ],
      "name": "Armature_Bip001_Ponytail14",
      "rotation": [
        -0.021443122997879982,
        0.004354574717581272,
        -0.00040414949762634933,
        0.9997605085372925
      ],
      "scale": [
        1.0,
        0.9999963045120239,
        1.0000039339065552
      ],
      "translation": [
        -1.9073499970545527e-06,
        2.1672520637512207,
        3.814699994109105e-06
      ]
    },
    {
      "children": [
        42
      ],
      "name": "Armature_Bip001_Ponytail15",
      "rotation": [
        -0.021433232352137566,
        0.004346215166151524,
        -0.0005823738756589592,
        0.9997606873512268
      ],
      "scale": [
        1.0,
        0.9999992847442627,
        1.0000015497207642
      ],
      "translation": [
        -1.9073499970545527e-06,
        2.167327880859375,
        3.814699994109105e-06
      ]
    },
    {
      "children": [
        43
      ],
      "name": "Armature_Bip001_Xtra09Opp07",
      "rotation": [
        -0.06664105504751205,
        0.01333895418792963,
        -0.003012441098690033,
        0.9976832866668701
      ],
      "scale": [
        0.9999992847442627,
        1.000001311302185,
        1.0
      ],
      "translation": [
        -1.9073499970545527e-06,
        2.167206048965454,
        3.814699994109105e-06
      ]
    },
    {
      "children": [
        44
      ],
      "name": "Armature_Bip001_Xtra09Opp08",
      "rotation": [
        -0.0665402039885521,
        0.012962311506271362,
        -0.00476647587493062,
        0.9976881742477417
      ],
      "scale": [
        0.9999999403953552,
        0.9999988675117493,
        1.0000009536743164
      ],
      "translation": [
        -1.9073499970545527e-06,
        2.1672821044921875,
        3.814699994109105e-06
      ]
    },
    {
      "children": [
        45
      ],
      "name": "Armature_Bip001_Xtra09Opp09",
      "rotation": [
        -0.06640201061964035,
        0.01240873709321022,
        -0.0064528328366577625,
        0.9976950287818909
      ],
      "scale": [
        0.9999999403953552,
        1.0000004768371582,
        0.9999998807907104
      ],
      "translation": [
        1.9073499970545527e-06,
        2.1671910285949707,
        -9.536739753457368e-07
      ]
    },
    {
      "children": [
        46
      ],
      "name": "Armature_Bip001_Xtra09Opp10",
      "rotation": [
        -0.0662699043750763,
        0.011666405014693737,
        -0.007659513037651777,
        0.9977041482925415
      ],
      "scale": [
        1.0000001192092896,
        0.9999998807907104,
        1.0
      ],
      "translation": [
        -1.9073499970545527e-06,
        2.1672821044921875,
        0.0
      ]
    },
    {
      "name": "Armature_Bip001_Xtra09OppNub",
      "rotation": [
        0.0003972389386035502,
        0.9978006482124329,
        2.615738230815623e-05,
        0.0662851631641388
      ],
      "scale": [
        1.0,
        0.9999991655349731,
        1.0000016689300537
      ],
      "translation": [
        0.0,
        2.167267084121704,
        -1.9073499970545527e-06
      ]
    },
    {
      "children": [
        48
      ],
      "name": "Armature_Bip001_L_Clavicle",
      "rotation": [
        0.045996807515621185,
        0.7056097984313965,
        0.7056075930595398,
        0.04601133614778519
      ],
      "scale": [
        1.0,
        1.0,
        0.9999992847442627
      ],
      "translation": [
        1.2767599821090698,
        -5.0770721435546875,
        1.892482042312622
      ]
    },
    {
      "children": [
        49
      ],
      "name": "Armature_Bip001_L_UpperArm",
      "rotation": [
        -0.01303819939494133,
        -0.001220058067701757,
        -0.01935604028403759,
        0.9997268915176392
      ],
      "scale": [
        1.0,
        1.0000017881393433,
        0.9999983310699463
      ],
      "translation": [
        0.0,
        10.957300186157227,
        4.5776399929309264e-05
      ]
    },
    {
      "children": [
        50
      ],
      "name": "Armature_Bip001_L_Forearm",
      "rotation": [
        -0.0116023113951087,
        -0.007104817777872086,
        -0.10721533000469208,
        0.9941427111625671
      ],
      "scale": [
        1.0000001192092896,
        1.0000004768371582,
        0.9999994039535522
      ],
      "translation": [
        1.1920900533368695e-06,
        23.2620792388916,
        -1.525879997643642e-05
      ]
    },
    {
      "children": [
        51,
        55,
        59,
        63,
        67
      ],
      "name": "Armature_Bip001_L_Hand",
      "rotation": [
        0.03838712349534035,
        -0.6281459331512451,
        0.06846896559000015,
        0.7741260528564453
      ],
      "scale": [
        1.0,
        0.9999997615814209,
        0.9999998211860657
      ],
      "translation": [
        0.0,
        18.909099578857422,
        0.0
      ]
    },
    {
      "children": [
        52
      ],
      "name": "Armature_Bip001_L_Finger0",
      "rotation": [
        -0.2468479573726654,
        0.6380074620246887,
        -0.21376967430114746,
        0.6973629593849182
      ],
      "scale": [
        1.0000001192092896,
        1.0,
        0.9999999403953552
      ],
      "translation": [
        0.06836699694395065,
        1.723060965538025,
        -2.6097240447998047
      ]
    },
    {
      "children": [
        53
      ],
      "name": "Armature_Bip001_L_Finger01",
      "rotation": [
        -0.014454146847128868,
        -0.019081322476267815,
        0.018603652715682983,
        0.9995403289794922
      ],
      "scale": [
        0.9999998807907104,
        0.9999999403953552,
        1.0
      ],
      "translation": [
        3.814699994109105e-06,
        3.1242010593414307,
        0.0
      ]
    },
    {
      "children": [
        54
      ],
      "name": "Armature_Bip001_L_Finger02",
      "rotation": [
        -0.02646389789879322,
        -0.031842637807130814,
        0.03801922872662544,
        0.9984188675880432
      ],
      "scale": [
        1.0,
        1.0000001192092896,
        0.9999999403953552
      ],
      "translation": [
        -1.9073499970545527e-06,
        2.668895959854126,
        0.0
      ]
    },
    {
      "name": "Armature_Bip001_L_Finger0Nub",
      "rotation": [
        -0.2010703831911087,
        -0.2010604590177536,
        0.6779685616493225,
        0.6778673529624939
      ],
      "scale": [
        0.9999998807907104,
        1.000000238418579,
        1.0
      ],
      "translation": [
        -1.9073499970545527e-06,
        2.6341381072998047,
        0.0
      ]
    },
    {
      "children": [
        56
      ],
      "name": "Armature_Bip001_L_Finger1",
      "rotation": [
        -0.07672517001628876,
        0.7270460724830627,
        -0.05989642068743706,
        0.6796541213989258
      ],
      "scale": [
        1.000000238418579,
        1.0000001192092896,
        1.0
      ],
      "translation": [
        2.2679290771484375,
        8.212982177734375,
        -2.9592459201812744
      ]
    },
    {
      "children": [
        57
      ],
      "name": "Armature_Bip001_L_Finger11",
      "rotation": [
        -0.0153840696439147,
        -0.006000459659844637,
        -0.004250667057931423,
        0.9998546242713928
      ],
      "scale": [
        0.9999999403953552,
        0.9999998211860657,
        1.0000001192092896
      ],
      "translation": [
        3.814699994109105e-06,
        2.5240330696105957,
        -7.629389983776491e-06
      ]
    },
    {
      "children": [
        58
      ],
      "name": "Armature_Bip001_L_Finger12",
      "rotation": [
        0.005026403348892927,
        0.001983088906854391,
        0.0013663757126778364,
        0.9999845623970032
      ],
      "scale": [
        1.0,
        1.0000001192092896,
        0.9999999403953552
      ],
      "translation": [
        0.0,
        1.854511022567749,
        0.0
      ]
    },
    {
      "name": "Armature_Bip001_L_Finger1Nub",
      "rotation": [
        0.5622369647026062,
        0.5622303485870361,
        -0.4288201630115509,
        -0.42883554100990295
      ],
      "scale": [
        1.0000001192092896,
        0.9999999403953552,
        1.0
      ],
      "translation": [
        0.0,
        2.006701946258545,
        0.0
      ]
    },
    {
      "children": [
        60
      ],
      "name": "Armature_Bip001_L_Finger2",
      "rotation": [
        -0.11127708852291107,
        0.7261821031570435,
        -0.05380065366625786,
        0.6763005256652832
      ],
      "scale": [
        1.0000001192092896,
        1.0000001192092896,
        1.0
      ],
      "translation": [
        1.8114930391311646,
        8.607086181640625,
        -1.253383994102478
      ]
    },
    {
      "children": [
        61
      ],
      "name": "Armature_Bip001_L_Finger21",
      "rotation": [
        0.005252088885754347,
        0.0023779808543622494,
        0.0014918785309419036,
        0.9999823570251465
      ],
      "scale": [
        1.0000001192092896,
        1.0,
        0.9999999403953552
      ],
      "translation": [
        0.0,
        2.762065887451172,
        0.0
      ]
    },
    {
      "children": [
        62
      ],
      "name": "Armature_Bip001_L_Finger22",
      "rotation": [
        0.001396344741806388,
        0.0006257079658098519,
        0.00039917006506584585,
        0.9999987483024597
      ],
      "scale": [
        1.0000001192092896,
        0.9999998211860657,
        1.000000238418579
      ],
      "translation": [
        0.0,
        2.3549840450286865,
        0.0
      ]
    },
    {
      "name": "Armature_Bip001_L_Finger2Nub",
      "rotation": [
        0.5649283528327942,
        0.564923107624054,
        -0.4252689480781555,
        -0.425281286239624
      ],
      "scale": [
        1.0,
        1.000000238418579,
        0.9999999403953552
      ],
      "translation": [
        -3.814699994109105e-06,
        1.9245569705963135,
        0.0
      ]
    },
    {
      "children": [
        64
      ],
      "name": "Armature_Bip001_L_Finger3",
      "rotation": [
        -0.0802917554974556,
        0.7343106269836426,
        -0.07225508242845535,
        0.6701645255088806
      ],
      "scale": [
        1.0000001192092896,
        0.9999998211860657,
        1.0
      ],
      "translation": [
        1.049599051475525,
        8.800296783447266,
        0.33840370178222656
      ]
    },
    {
      "children": [
        65
      ],
      "name": "Armature_Bip001_L_Finger31",
      "rotation": [
        -0.024659249931573868,
        -0.010817963629961014,
        -0.007309125270694494,
        0.9996106624603271
      ],
      "scale": [
        0.9999998807907104,
        1.0,
        1.0000001192092896
      ],
      "translation": [
        3.814699994109105e-06,
        2.4188919067382813,
        7.629389983776491e-06
      ]
    },
    {
      "children": [
        66
      ],
      "name": "Armature_Bip001_L_Finger32",
      "rotation": [
        0.007029334083199501,
        0.003115591825917363,
        0.0020239383447915316,
        0.999968409538269
      ],
      "scale": [
        1.0000001192092896,
        1.0000001192092896,
        1.0
      ],
      "translation": [
        3.814699994109105e-06,
        2.207550048828125,
        0.0
      ]
    },
    {
      "name": "Armature_Bip001_L_Finger3Nub",
      "rotation": [
        0.5656650066375732,
        0.5656577944755554,
        -0.4242924451828003,
        -0.42429977655410767
      ],
      "scale": [
        1.0,
        1.000000238418579,
        0.9999999403953552
      ],
      "translation": [
        0.0,
        1.8397560119628906,
        -7.629389983776491e-06
      ]
    },
    {
      "children": [
        68
      ],
      "name": "Armature_Bip001_L_Finger4",
      "rotation": [
        -0.07533654570579529,
        0.7301583886146545,
        -0.06563354283571243,
        0.6759330034255981
      ],
      "scale": [
        1.0,
        1.0000001192092896,
        1.0000001192092896
      ],
      "translation": [
        0.47119140625,
        8.909507751464844,
        1.7258659601211548
      ]
    },
    {
      "children": [
        69
      ],
      "name": "Armature_Bip001_L_Finger41",
      "rotation": [
        -0.01665167696774006,
        -0.006721043027937412,
        -0.0047738030552864075,
        0.9998273849487305
      ],
      "scale": [
        0.9999998807907104,
        1.0,
        1.0
      ],
      "translation": [
        3.814699994109105e-06,
        1.6762620210647583,
        -7.629389983776491e-06
      ]
    },
    {
      "children": [
        70
      ],
      "name": "Armature_Bip001_L_Finger42",
      "rotation": [
        -0.007840247824788094,
        -0.003230907954275608,
        -0.002162414602935314,
        0.9999617338180542
      ],
      "scale": [
        1.0,
        1.0,
        0.9999998807907104
      ],
      "translation": [
        3.814699994109105e-06,
        1.5110700130462646,
        -7.629389983776491e-06
      ]
    },
    {
      "name": "Armature_Bip001_L_Finger4Nub",
      "rotation": [
        0.5618727803230286,
        0.5618647336959839,
        -0.4292987585067749,
        -0.42931291460990906
      ],
      "scale": [
        1.0000001192092896,
        0.9999999403953552,
        1.0
      ],
      "translation": [
        -3.814699994109105e-06,
        1.5382310152053833,
        -7.629389983776491e-06
      ]
    },
    {
      "children": [
        72
      ],
      "name": "Armature_Bip001_R_Clavicle",
      "rotation": [
        -0.04601267725229263,
        -0.7056084871292114,
        0.7056087851524353,
        0.04599720612168312
      ],
      "scale": [
        1.0,
        1.0,
        0.9999992847442627
      ],
      "translation": [
        1.2768460512161255,
        -5.0770487785339355,
        -1.8924939632415771
      ]
    },
    {
      "children": [
        73
      ],
      "name": "Armature_Bip001_R_UpperArm",
      "rotation": [
        0.01303915400058031,
        0.0012182402424514294,
        -0.019355354830622673,
        0.9997268915176392
      ],
      "scale": [
        1.0000011920928955,
        1.0,
        0.9999987483024597
      ],
      "translation": [
        -2.3841900542720396e-07,
        10.957289695739746,
        -7.629389983776491e-06
      ]
    },
    {
      "children": [
        74
      ],
      "name": "Armature_Bip001_R_Forearm",
      "rotation": [
        0.011601179838180542,
        0.007106817793101072,
        -0.10721687227487564,
        0.9941425919532776
      ],
      "scale": [
        0.9999999403953552,
        1.0000003576278687,
        0.9999995231628418
      ],
      "translation": [
        -9.536739753457368e-07,
        23.26202964782715,
        -2.2888199964654632e-05
      ]
    },
    {
      "children": [
        75,
        79,
        83,
        87,
        91
      ],
      "name": "Armature_Bip001_R_Hand",
      "rotation": [
        -0.0914747565984726,
        0.6172406673431396,
        0.13862115144729614,
        0.7690451741218567
      ],
      "scale": [
        1.000000238418579,
        0.9999998807907104,
        1.0
      ],
      "translation": [
        9.536739753457368e-07,
        18.908870697021484,
        0.0
      ]
    },
    {
      "children": [
        76
      ],
      "name": "Armature_Bip001_R_Finger0",
      "rotation": [
        0.2916869521141052,
        -0.619231641292572,
        -0.2835008203983307,
        0.6716384291648865
      ],
      "scale": [
        0.9999997615814209,
        0.9999998807907104,
        1.0
      ],
      "translation": [
        0.15423579514026642,
        1.244918942451477,
        2.8653531074523926
      ]
    },
    {
      "children": [
        77
      ],
      "name": "Armature_Bip001_R_Finger01",
      "rotation": [
        0.014436825178563595,
        0.019034380093216896,
        0.018624093383550644,
        0.9995411038398743
      ],
      "scale": [
        0.9999998211860657,
        1.0000001192092896,
        1.0
      ],
      "translation": [
        -3.814699994109105e-06,
        3.1241090297698975,
        0.0
      ]
    },
    {
      "children": [
        78
      ],
      "name": "Armature_Bip001_R_Finger02",
      "rotation": [
        0.026482509449124336,
        0.03188258036971092,
        0.03800758346915245,
        0.9984175562858582
      ],
      "scale": [
        0.9999999403953552,
        1.0000001192092896,
        0.9999998807907104
      ],
      "translation": [
        1.9073499970545527e-06,
        2.6688389778137207,
        0.0
      ]
    },
    {
      "name": "Armature_Bip001_R_Finger0Nub",
      "rotation": [
        -0.2010677009820938,
        0.2010505497455597,
        -0.6778722405433655,
        0.6779673099517822
      ],
      "scale": [
        1.0000001192092896,
        0.9999997615814209,
        1.0
      ],
      "translation": [
        3.814699994109105e-06,
        2.6340789794921875,
        0.0
      ]
    },
    {
      "children": [
        80
      ],
      "name": "Armature_Bip001_R_Finger1",
      "rotation": [
        0.11949613690376282,
        -0.7177017331123352,
        -0.13679136335849762,
        0.6722447872161865
      ],
      "scale": [
        1.0,
        0.9999998211860657,
        1.0000001192092896
      ],
      "translation": [
        2.6284940242767334,
        7.482978820800781,
        4.2948760986328125
      ]
    },
    {
      "children": [
        81
      ],
      "name": "Armature_Bip001_R_Finger11",
      "rotation": [
        0.015390203334391117,
        0.006009407341480255,
        -0.004254262428730726,
        0.999854564666748
      ],
      "scale": [
        1.0,
        0.9999998807907104,
        1.000000238418579
      ],
      "translation": [
        0.0,
        2.524009943008423,
        -7.629389983776491e-06
      ]
    },
    {
      "children": [
        82
      ],
      "name": "Armature_Bip001_R_Finger12",
      "rotation": [
        -0.005030312575399876,
        -0.001988948555663228,
        0.001368871657177806,
        0.9999844431877136
      ],
      "scale": [
        1.0,
        1.000000238418579,
        1.0
      ],
      "translation": [
        0.0,
        1.8544689416885376,
        0.0
      ]
    },
    {
      "name": "Armature_Bip001_R_Finger1Nub",
      "rotation": [
        0.5622456669807434,
        -0.5622238516807556,
        0.4288158118724823,
        -0.4288369417190552
      ],
      "scale": [
        1.0,
        1.000000238418579,
        1.0000001192092896
      ],
      "translation": [
        -3.814699994109105e-06,
        2.0066680908203125,
        0.0
      ]
    },
    {
      "children": [
        84
      ],
      "name": "Armature_Bip001_R_Finger2",
      "rotation": [
        0.15365765988826752,
        -0.7181116938591003,
        -0.13073135912418365,
        0.6660438179969788
      ],
      "scale": [
        1.0000001192092896,
        0.9999997615814209,
        1.0
      ],
      "translation": [
        2.180634021759033,
        8.182540893554688,
        2.6874709129333496
      ]
    },
    {
      "children": [
        85
      ],
      "name": "Armature_Bip001_R_Finger21",
      "rotation": [
        -0.00522133894264698,
        -0.002331975381821394,
        0.0014821152435615659,
        0.9999826550483704
      ],
      "scale": [
        1.000000238418579,
        1.0,
        1.0
      ],
      "translation": [
        3.814699994109105e-06,
        2.762042999267578,
        0.0
      ]
    },
    {
      "children": [
        86
      ],
      "name": "Armature_Bip001_R_Finger22",
      "rotation": [
        -0.0014159923885017633,
        -0.0006544635398313403,
        0.00040624424582347274,
        0.9999986886978149
      ],
      "scale": [
        1.0000001192092896,
        0.9999998807907104,
        1.0000001192092896
      ],
      "translation": [
        0.0,
        2.3549389839172363,
        0.0
      ]
    },
    {
      "name": "Armature_Bip001_R_Finger2Nub",
      "rotation": [
        0.5649378895759583,
        -0.5649167895317078,
        0.4252619445323944,
        -0.4252839982509613
      ],
      "scale": [
        1.0,
        0.9999998807907104,
        1.0
      ],
      "translation": [
        3.814699994109105e-06,
        1.924530029296875,
        0.0
      ]
    },
    {
      "children": [
        88
      ],
      "name": "Armature_Bip001_R_Finger3",
      "rotation": [
        0.12202730029821396,
        -0.723987877368927,
        -0.1495419293642044,
        0.6622598767280579
      ],
      "scale": [
        1.0,
        0.9999997615814209,
        1.0
      ],
      "translation": [
        1.4197239875793457,
        8.677276611328125,
        1.1617339849472046
      ]
    },
    {
      "children": [
        89
      ],
      "name": "Armature_Bip001_R_Finger31",
      "rotation": [
        0.02465226873755455,
        0.010809569619596004,
        -0.007313154172152281,
        0.9996109008789063
      ],
      "scale": [
        0.9999998211860657,
        0.9999998211860657,
        0.9999999403953552
      ],
      "translation": [
        -3.814699994109105e-06,
        2.4188649654388428,
        7.629389983776491e-06
      ]
    },
    {
      "children": [
        90
      ],
      "name": "Armature_Bip001_R_Finger32",
      "rotation": [
        -0.007022316567599773,
        -0.003106688614934683,
        0.0020258871372789145,
        0.9999684691429138
      ],
      "scale": [
        0.9999998807907104,
        1.0000001192092896,
        0.9999998211860657
      ],
      "translation": [
        0.0,
        2.2075040340423584,
        0.0
      ]
    },
    {
      "name": "Armature_Bip001_R_Finger3Nub",
      "rotation": [
        0.5656746625900269,
        -0.5656497478485107,
        0.4242834746837616,
        -0.42430660128593445
      ],
      "scale": [
        1.0000001192092896,
        0.9999998807907104,
        1.0
      ],
      "translation": [
        0.0,
        1.8397409915924072,
        0.0
      ]
    },
    {
      "children": [
        92
      ],
      "name": "Armature_Bip001_R_Finger4",
      "rotation": [
        0.11772027611732483,
        -0.7202815413475037,
        -0.14268046617507935,
        0.6685646772384644
      ],
      "scale": [
        1.0,
        1.0000001192092896,
        0.9999998807907104
      ],
      "translation": [
        0.8396149277687073,
        9.046737670898438,
        -0.17935560643672943
      ]
    },
    {
      "children": [
        93
      ],
      "name": "Armature_Bip001_R_Finger41",
      "rotation": [
        0.016633126884698868,
        0.006693596951663494,
        -0.004765892401337624,
        0.9998279213905334
      ],
      "scale": [
        1.0,
        0.9999999403953552,
        1.0000001192092896
      ],
      "translation": [
        3.814699994109105e-06,
        1.6762160062789917,
        7.629389983776491e-06
      ]
    },
    {
      "children": [
        94
      ],
      "name": "Armature_Bip001_R_Finger42",
      "rotation": [
        0.007846175692975521,
        0.0032393764704465866,
        -0.002164596924558282,
        0.9999616146087646
      ],
      "scale": [
        0.9999998211860657,
        1.0000001192092896,
        0.9999999403953552
      ],
      "translation": [
        0.0,
        1.5110629796981812,
        0.0
      ]
    },
    {
      "name": "Armature_Bip001_R_Finger4Nub",
      "rotation": [
        0.5618805289268494,
        -0.5618593096733093,
        0.4292929470539093,
        -0.4293156564235687
      ],
      "scale": [
        0.9999999403953552,
        0.9999998211860657,
        1.0
      ],
      "translation": [
        0.0,
        1.5382000207901,
        0.0
      ]
    },
    {
      "children": [
        96
      ],
      "name": "Armature_Bip001_R_BackFin_0",
      "rotation": [
        -0.2576100826263428,
        -0.4015340507030487,
        0.7867777347564697,
        -0.39164817333221436
      ],
      "scale": [
        1.0,
        1.0000001192092896,
        0.9999999403953552
      ],
      "translation": [
        9.994940757751465,
        8.596687316894531,
        -2.8754379749298096
      ]
    },
    {
      "children": [
        97
      ],
      "name": "Armature_Bip001_R_BackFin_1",
      "rotation": [
        0.06997593492269516,
        -0.054918766021728516,
        -0.04638921841979027,
        0.9949549436569214
      ],
      "scale": [
        1.0000030994415283,
        1.0000001192092896,
        0.9999986290931702
      ],
      "translation": [
        7.629389983776491e-06,
        13.455120086669922,
        1.525879997643642e-05
      ]
    },
    {
      "children": [
        98
      ],
      "name": "Armature_Bip001_R_BackFin_2",
      "rotation": [
        0.013654274865984917,
        -0.029662000015378,
        -0.076814204454422,
        0.9965105652809143
      ],
      "scale": [
        0.9999996423721313,
        1.0,
        1.0000007152557373
      ],
      "translation": [
        -3.814699994109105e-06,
        18.4826602935791,
        0.0
      ]
    },
    {
      "children": [
        99
      ],
      "name": "Armature_Bip001_R_BackFin_3",
      "rotation": [
        0.07798847556114197,
        -0.05560397356748581,
        -0.0464005246758461,
        0.9943203926086426
      ],
      "scale": [
        1.0000003576278687,
        1.0,
        0.9999998807907104
      ],
      "translation": [
        0.0,
        24.466569900512695,
        0.0
      ]
    },
    {
      "name": "Armature_Bip001_Xtra07Nub",
      "rotation": [
        0.0003843243175651878,
        0.9637471437454224,
        -0.00010570062295300886,
        -0.26681700348854065
      ],
      "scale": [
        0.9999999403953552,
        1.0000003576278687,
        1.0
      ],
      "translation": [
        -1.1444099982327316e-05,
        25.50836944580078,
        -7.629389983776491e-06
      ]
    },
    {
      "children": [
        101
      ],
      "name": "Armature_Bip001_L_BackFin_1",
      "rotation": [
        0.31773725152015686,
        0.3289562463760376,
        0.7458683848381042,
        -0.48426368832588196
      ],
      "scale": [
        1.0000003576278687,
        1.0000001192092896,
        1.0
      ],
      "translation": [
        9.997729301452637,
        8.595626831054688,
        2.875247001647949
      ]
    },
    {
      "children": [
        102
      ],
      "name": "Armature_Bip001_L_BackFin_2",
      "rotation": [
        -0.06909244507551193,
        0.06514184921979904,
        -0.047787223011255264,
        0.9943335056304932
      ],
      "scale": [
        1.0,
        0.9999995827674866,
        1.0000015497207642
      ],
      "translation": [
        -1.1444099982327316e-05,
        13.455340385437012,
        1.525879997643642e-05
      ]
    },
    {
      "children": [
        103
      ],
      "name": "Armature_Bip001_L_BackFin_3",
      "rotation": [
        -0.011640381999313831,
        0.031275372952222824,
        -0.07642526179552078,
        0.9965167045593262
      ],
      "scale": [
        1.0000001192092896,
        0.9999997019767761,
        1.0000007152557373
      ],
      "translation": [
        -7.629389983776491e-06,
        18.483020782470703,
        1.525879997643642e-05
      ]
    },
    {
      "children": [
        104
      ],
      "name": "Armature_Bip001_L_BackFin_4",
      "rotation": [
        -0.07728186994791031,
        0.06762625277042389,
        -0.04955671355128288,
        0.9934778809547424
      ],
      "scale": [
        0.9999996423721313,
        1.0000001192092896,
        1.0000011920928955
      ],
      "translation": [
        0.0,
        24.46718978881836,
        7.629389983776491e-06
      ]
    },
    {
      "name": "Armature_Bip001_Xtra07OppNub",
      "rotation": [
        0.00037793151568621397,
        0.9498059153556824,
        0.00012463759048841894,
        0.3128398656845093
      ],
      "scale": [
        1.000000238418579,
        0.9999997615814209,
        0.9999994039535522
      ],
      "translation": [
        0.0,
        25.508750915527344,
        7.629389983776491e-06
      ]
    },
    {
      "children": [
        106
      ],
      "name": "Armature_Bip001_R_SideFin_1",
      "rotation": [
        -0.4392745792865753,
        -0.7394593954086304,
        -0.012875734828412533,
        0.5099724531173706
      ],
      "scale": [
        1.0000001192092896,
        0.9999998807907104,
        1.0
      ],
      "translation": [
        10.073280334472656,
        10.559749603271484,
        -1.3223799467086792
      ]
    },
    {
      "children": [
        107
      ],
      "name": "Armature_Bip001_R_SideFin_2",
      "rotation": [
        -0.028338002040982246,
        0.0496998131275177,
        0.023395948112010956,
        0.9980879426002502
      ],
      "scale": [
        0.9999982714653015,
        1.0000025033950806,
        0.9999997019767761
      ],
      "translation": [
        8.392330346396193e-05,
        27.25404930114746,
        6.103519990574569e-05
      ]
    },
    {
      "children": [
        108
      ],
      "name": "Armature_Bip001_R_SideFin_3",
      "rotation": [
        0.00041312724351882935,
        0.00016850240353960544,
        0.0005086586461402476,
        0.9999997615814209
      ],
      "scale": [
        0.999999463558197,
        1.0000004768371582,
        0.9999997615814209
      ],
      "translation": [
        7.629389983776491e-06,
        26.734729766845703,
        0.0
      ]
    },
    {
      "name": "Armature_Bip001_Xtra08Nub",
      "rotation": [
        0.0003727627918124199,
        0.9421759843826294,
        -0.00013704824959859252,
        -0.3351183235645294
      ],
      "scale": [
        0.9999997615814209,
        0.9999998807907104,
        1.000000238418579
      ],
      "translation": [
        -7.629389983776491e-06,
        43.9969596862793,
        0.0
      ]
    },
    {
      "children": [
        110
      ],
      "name": "Armature_Bip001_L_SideFin_1",
      "rotation": [
        0.41011276841163635,
        0.7384567260742188,
        -0.13717161118984222,
        0.5173713564872742
      ],
      "scale": [
        1.0,
        0.9999998211860657,
        0.9999999403953552
      ],
      "translation": [
        10.069910049438477,
        10.556710243225098,
        1.3196749687194824
      ]
    },
    {
      "children": [
        111
      ],
      "name": "Armature_Bip001_L_SideFin_2",
      "rotation": [
        0.030899448320269585,
        -0.045124124735593796,
        0.01989166997373104,
        0.9983052611351013
      ],
      "scale": [
        1.0000038146972656,
        1.000000238418579,
        0.9999978542327881
      ],
      "translation": [
        1.907350088004023e-05,
        27.254199981689453,
        -3.051759995287284e-05
      ]
    },
    {
      "children": [
        112
      ],
      "name": "Armature_Bip001_L_SideFin_3",
      "rotation": [
        -0.0003531424736138433,
        -0.00015936049749143422,
        0.0005517751560546458,
        0.9999997615814209
      ],
      "scale": [
        0.9999988675117493,
        1.000000238418579,
        1.0
      ],
      "translation": [
        0.0,
        26.734920501708984,
        0.0
      ]
    },
    {
      "name": "Armature_Bip001_Xtra08OppNub",
      "rotation": [
        0.0003833383962046355,
        0.9596856832504272,
        0.00011006229760823771,
        0.28107553720474243
      ],
      "scale": [
        0.9999995827674866,
        1.0000004768371582,
        1.0000001192092896
      ],
      "translation": [
        7.629389983776491e-06,
        43.997291564941406,
        -7.629389983776491e-06
      ]
    },
    {
      "children": [
        114,
        118
      ],
      "name": "Armature_Bip001_L_Thigh",
      "rotation": [
        0.6596652865409851,
        0.00895954854786396,
        0.7476141452789307,
        0.07638408243656158
      ],
      "scale": [
        1.0,
        0.9999999403953552,
        0.9999915361404419
      ],
      "translation": [
        0.3446595072746277,
        -9.692923545837402,
        9.088379859924316
      ]
    },
    {
      "children": [
        115
      ],
      "name": "Armature_Bip001_L_Calf",
      "rotation": [
        0.08120439946651459,
        -0.0008290188852697611,
        0.010149117559194565,
        0.996645450592041
      ],
      "scale": [
        0.9999997615814209,
        1.0000003576278687,
        1.0000001192092896
      ],
      "translation": [
        -3.814699994109105e-06,
        37.171409606933594,
        1.4305099966804846e-06
      ]
    },
    {
      "children": [
        116
      ],
      "name": "Armature_Bip001_L_Foot",
      "rotation": [
        0.18213506042957306,
        0.8283933401107788,
        -0.1943068504333496,
        -0.4927840530872345
      ],
      "scale": [
        1.0,
        1.000000238418579,
        0.9999997019767761
      ],
      "translation": [
        -1.9073499970545527e-06,
        37.99399948120117,
        1.1920899822825959e-07
      ]
    },
    {
      "children": [
        117
      ],
      "name": "Armature_Bip001_L_Toe0",
      "rotation": [
        -0.06271637231111526,
        0.45455119013786316,
        0.23927892744541168,
        0.855684220790863
      ],
      "scale": [
        1.0,
        0.9999999403953552,
        1.0000001192092896
      ],
      "translation": [
        -9.536739753457368e-07,
        13.971280097961426,
        0.0
      ]
    },
    {
      "name": "Armature_Bip001_L_Toe0Nub",
      "rotation": [
        0.2572666108608246,
        -0.2571954131126404,
        -0.6586994528770447,
        0.6586193442344666
      ],
      "scale": [
        0.9999999403953552,
        1.0000001192092896,
        0.9999997615814209
      ],
      "translation": [
        0.0,
        5.627861022949219,
        1.9073499970545527e-06
      ]
    },
    {
      "children": [
        119
      ],
      "name": "Armature_Bip001_Xtra02Opp",
      "rotation": [
        0.15602025389671326,
        0.6878616809844971,
        -0.008986623026430607,
        0.7088181972503662
      ],
      "scale": [
        0.9999999403953552,
        1.0000001192092896,
        0.9999995827674866
      ],
      "translation": [
        4.914567947387695,
        -3.0168991088867188,
        -0.023674489930272102
      ]
    },
    {
      "children": [
        120
      ],
      "name": "Armature_Bip001_Xtra02Opp02",
      "rotation": [
        -0.008927805349230766,
        0.0007665280718356371,
        -0.0006885696202516556,
        0.9999597072601318
      ],
      "scale": [
        0.9999999403953552,
        1.0000003576278687,
        0.999999463558197
      ],
      "translation": [
        0.0,
        10.179380416870117,
        3.814699994109105e-06
      ]
    },
    {
      "children": [
        121
      ],
      "name": "Armature_Bip001_Xtra02Opp03",
      "rotation": [
        -0.008926106616854668,
        0.0007262569270096719,
        -0.0007020537159405649,
        0.9999596476554871
      ],
      "scale": [
        0.9999999403953552,
        0.9999996423721313,
        0.9999999403953552
      ],
      "translation": [
        0.0,
        10.179389953613281,
        3.814699994109105e-06
      ]
    },
    {
      "children": [
        122
      ],
      "name": "Armature_Bip001_Xtra02Opp04",
      "rotation": [
        -0.008925462141633034,
        0.0007131835445761681,
        -0.0007147873984649777,
        0.9999596476554871
      ],
      "scale": [
        0.9999999403953552,
        0.9999998807907104,
        1.000000238418579
      ],
      "translation": [
        9.536739753457368e-07,
        10.179409980773926,
        -3.814699994109105e-06
      ]
    },
    {
      "children": [
        123
      ],
      "name": "Armature_Bip001_Xtra02Opp05",
      "rotation": [
        -0.008923815563321114,
        0.0007006176165305078,
        -0.0007274221279658377,
        0.9999597668647766
      ],
      "scale": [
        1.0,
        1.0000001192092896,
        0.9999999403953552
      ],
      "translation": [
        0.0,
        10.179389953613281,
        0.0
      ]
    },
    {
      "children": [
        124
      ],
      "name": "Armature_Bip001_Xtra02Opp06",
      "rotation": [
        -0.008923555724322796,
        0.0006865644827485085,
        -0.0007399843889288604,
        0.9999597668647766
      ],
      "scale": [
        0.9999999403953552,
        1.0000001192092896,
        1.0
      ],
      "translation": [
        -9.536739753457368e-07,
        10.179389953613281,
        3.814699994109105e-06
      ]
    },
    {
      "name": "Armature_Bip001_Xtra02Opp07",
      "rotation": [
        0.4746014475822449,
        0.4827998876571655,
        0.5159440040588379,
        0.524842381477356
      ],
      "scale": [
        1.0,
        0.9999999403953552,
        0.9999997615814209
      ],
      "translation": [
        0.0,
        10.179389953613281,
        0.0
      ]
    },
    {
      "children": [
        126,
        130
      ],
      "name": "Armature_Bip001_R_Thigh",
      "rotation": [
        0.7453040480613708,
        -0.07634980976581573,
        0.6622745394706726,
        -0.009228606708347797
      ],
      "scale": [
        1.0,
        0.9999999403953552,
        0.999997615814209
      ],
      "translation": [
        0.4086601138114929,
        -9.692901611328125,
        -9.085739135742188
      ]
    },
    {
      "children": [
        127
      ],
      "name": "Armature_Bip001_R_Calf",
      "rotation": [
        0.08120416104793549,
        0.0008292976417578757,
        -0.010149029083549976,
        0.996645450592041
      ],
      "scale": [
        1.0000003576278687,
        0.9999993443489075,
        0.9999999403953552
      ],
      "translation": [
        1.9073499970545527e-06,
        37.171329498291016,
        -9.536739753457368e-07
      ]
    },
    {
      "children": [
        128
      ],
      "name": "Armature_Bip001_R_Foot",
      "rotation": [
        -0.19430556893348694,
        -0.4927864670753479,
        0.18213433027267456,
        0.8283923864364624
      ],
      "scale": [
        0.9999997615814209,
        0.9999998211860657,
        0.9999999403953552
      ],
      "translation": [
        0.0,
        37.99399185180664,
        3.576280107608909e-07
      ]
    },
    {
      "children": [
        129
      ],
      "name": "Armature_Bip001_R_Toe0",
      "rotation": [
        0.06271229684352875,
        -0.4545326828956604,
        0.23928101360797882,
        0.8556937575340271
      ],
      "scale": [
        1.0,
        1.0000001192092896,
        0.9999998807907104
      ],
      "translation": [
        9.536739753457368e-07,
        13.971209526062012,
        0.0
      ]
    },
    {
      "name": "Armature_Bip001_R_Toe0Nub",
      "rotation": [
        0.25722864270210266,
        0.2572088837623596,
        0.6586095690727234,
        0.6587187647819519
      ],
      "scale": [
        1.0,
        1.0000001192092896,
        0.9999999403953552
      ],
      "translation": [
        9.536739753457368e-07,
        5.627800941467285,
        0.0
      ]
    },
    {
      "children": [
        131
      ],
      "name": "Armature_Bip001_Xtra02",
      "rotation": [
        -0.008981785736978054,
        0.7088189721107483,
        0.15602461993694305,
        0.6878599524497986
      ],
      "scale": [
        1.0,
        1.0000004768371582,
        0.9999993443489075
      ],
      "translation": [
        -4.914524078369141,
        -3.0169448852539063,
        -0.023407459259033203
      ]
    },
    {
      "children": [
        132
      ],
      "name": "Armature_Bip001_Xtra0202",
      "rotation": [
        0.008927378803491592,
        -0.0007396872388198972,
        -0.0006889161304570735,
        0.9999596476554871
      ],
      "scale": [
        0.9999999403953552,
        0.9999995231628418,
        1.000000238418579
      ],
      "translation": [
        -9.536739753457368e-07,
        10.179380416870117,
        0.0
      ]
    },
    {
      "children": [
        133
      ],
      "name": "Armature_Bip001_Xtra0203",
      "rotation": [
        0.008927227929234505,
        -0.0007254102383740246,
        -0.000701971584931016,
        0.9999596476554871
      ],
      "scale": [
        0.9999999403953552,
        1.0000001192092896,
        0.9999998807907104
      ],
      "translation": [
        0.0,
        10.179389953613281,
        0.0
      ]
    },
    {
      "children": [
        134
      ],
      "name": "Armature_Bip001_Xtra0204",
      "rotation": [
        0.0089250598102808,
        -0.0007134387851692736,
        -0.0007149325683712959,
        0.9999596476554871
      ],
      "scale": [
        1.0,
        1.0000001192092896,
        0.9999999403953552
      ],
      "translation": [
        0.0,
        10.179400444030762,
        0.0
      ]
    },
    {
      "children": [
        135
      ],
      "name": "Armature_Bip001_Xtra0205",
      "rotation": [
        0.008923719637095928,
        -0.0007007172680459917,
        -0.0007272526272572577,
        0.9999597668647766
      ],
      "scale": [
        0.9999999403953552,
        1.0,
        1.000000238418579
      ],
      "translation": [
        0.0,
        10.179400444030762,
        3.814699994109105e-06
      ]
    },
    {
      "children": [
        136
      ],
      "name": "Armature_Bip001_Xtra0206",
      "rotation": [
        0.008924003690481186,
        -0.0006863262387923896,
        -0.000739932176657021,
        0.9999597668647766
      ],
      "scale": [
        1.0,
        0.9999999403953552,
        1.0
      ],
      "translation": [
        0.0,
        10.179400444030762,
        0.0
      ]
    },
    {
      "name": "Armature_Bip001_Xtra0207",
      "rotation": [
        -0.4746038019657135,
        -0.48280203342437744,
        0.5159412622451782,
        0.5248410105705261
      ],
      "scale": [
        0.9999998807907104,
        0.9999998807907104,
        0.9999997019767761
      ],
      "translation": [
        -9.536739753457368e-07,
        10.179400444030762,
        0.0
      ]
    },
    {
      "name": "Armature_Bip001_Tail",
      "rotation": [
        0.0012982037151232362,
        -0.0011683275224640965,
        -0.7424510717391968,
        0.6698980331420898
      ],
      "scale": [
        1.0,
        0.9999998211860657,
        1.0
      ],
      "translation": [
        -9.470829010009766,
        -4.558823108673096,
        -0.033084068447351456
      ]
    },
    {
      "children": [
        139
      ],
      "name": "Armature_Bip001_Xtra10",
      "rotation": [
        -0.04909631982445717,
        0.04455142095685005,
        0.07201720774173737,
        0.995197594165802
      ],
      "scale": [
        0.9999998807907104,
        1.0,
        0.9999999403953552
      ],
      "translation": [
        -10.414719581604004,
        -4.0626678466796875,
        -6.442005157470703
      ]
    },
    {
      "children": [
        140
      ],
      "name": "Armature_Bip001_Xtra1002",
      "rotation": [
        -4.284072474547429e-08,
        7.823116021654641e-08,
        2.980230462412692e-08,
        1.0
      ],
      "scale": [
        0.9999998211860657,
        0.9999999403953552,
        1.0000001192092896
      ],
      "translation": [
        1.9073499970545527e-06,
        10.813899993896484,
        0.0
      ]
    },
    {
      "children": [
        141
      ],
      "name": "Armature_Bip001_Xtra1003",
      "rotation": [
        3.911547352686284e-08,
        6.44940030269936e-08,
        -4.842875256372281e-08,
        1.0
      ],
      "scale": [
        0.9999998807907104,
        1.0,
        0.9999999403953552
      ],
      "translation": [
        -1.9073499970545527e-06,
        10.813899993896484,
        0.0
      ]
    },
    {
      "children": [
        142
      ],
      "name": "Armature_Bip001_Xtra1004",
      "rotation": [
        7.264325319056297e-08,
        -3.1664978195067306e-08,
        8.568175502432496e-08,
        1.0
      ],
      "scale": [
        1.0,
        0.9999998211860657,
        1.0000001192092896
      ],
      "translation": [
        -1.9073499970545527e-06,
        10.813899993896484,
        -1.9073499970545527e-06
      ]
    },
    {
      "children": [
        143
      ],
      "name": "Armature_Bip001_Xtra1005",
      "rotation": [
        -5.7741949888168165e-08,
        -6.985084177735246e-10,
        -1.0058274568791603e-07,
        1.0
      ],
      "scale": [
        0.9999999403953552,
        0.9999998807907104,
        1.0000001192092896
      ],
      "translation": [
        -1.9073499970545527e-06,
        10.813899993896484,
        0.0
      ]
    },
    {
      "children": [
        144
      ],
      "name": "Armature_Bip001_Xtra1006",
      "rotation": [
        -1.1734676519381537e-07,
        1.5832481992106295e-08,
        -3.4272676430191495e-07,
        1.0
      ],
      "scale": [
        0.9999998807907104,
        0.9999997615814209,
        1.000000238418579
      ],
      "translation": [
        -1.9073499970545527e-06,
        10.813899993896484,
        1.9073499970545527e-06
      ]
    },
    {
      "children": [
        145
      ],
      "name": "Armature_Bip001_Xtra1007",
      "rotation": [
        -2.179294966708767e-07,
        -9.709025761139856e-08,
        3.6135324421593396e-07,
        1.0
      ],
      "scale": [
        1.0,
        0.9999999403953552,
        1.0
      ],
      "translation": [
        -1.9073499970545527e-06,
        10.813899993896484,
        0.0
      ]
    },
    {
      "name": "Armature_Bip001_Xtra1008",
      "rotation": [
        -0.005679738707840443,
        -0.005675456486642361,
        0.7073655128479004,
        0.7068023085594177
      ],
      "scale": [
        1.0,
        1.000000238418579,
        1.0000001192092896
      ],
      "translation": [
        0.0,
        10.81389045715332,
        -1.9073499970545527e-06
      ]
    },
    {
      "children": [
        147
      ],
      "name": "Armature_Bip001_Xtra10Opp",
      "rotation": [
        0.05492084473371506,
        0.038447458297014236,
        0.06768002361059189,
        0.9954521059989929
      ],
      "scale": [
        0.9999999403953552,
        1.0000001192092896,
        1.0
      ],
      "translation": [
        -9.201603889465332,
        -4.0626678466796875,
        8.080615997314453
      ]
    },
    {
      "children": [
        148
      ],
      "name": "Armature_Bip001_Xtra10Opp02",
      "rotation": [
        -1.2107200575428578e-07,
        9.755611074524495e-08,
        1.311302526119107e-06,
        1.0
      ],
      "scale": [
        0.9999992251396179,
        1.0000007152557373,
        1.0
      ],
      "translation": [
        1.9073499970545527e-06,
        10.813899993896484,
        0.0
      ]
    },
    {
      "children": [
        149
      ],
      "name": "Armature_Bip001_Xtra10Opp03",
      "rotation": [
        -1.2852255792950018e-07,
        -8.940688189795765e-08,
        -1.1138625950479764e-06,
        1.0
      ],
      "scale": [
        1.0000001192092896,
        0.9999997615814209,
        1.0
      ],
      "translation": [
        0.0,
        10.813899993896484,
        -1.9073499970545527e-06
      ]
    },
    {
      "children": [
        150
      ],
      "name": "Armature_Bip001_Xtra10Opp04",
      "rotation": [
        8.009376273321323e-08,
        5.122264568058199e-08,
        3.7997898516550777e-07,
        1.0
      ],
      "scale": [
        0.9999997019767761,
        1.0000003576278687,
        0.9999998807907104
      ],
      "translation": [
        0.0,
        10.813899993896484,
        0.0
      ]
    },
    {
      "children": [
        151
      ],
      "name": "Armature_Bip001_Xtra10Opp05",
      "rotation": [
        -1.9185252142506215e-07,
        -1.5273700171292148e-07,
        -3.352754518459733e-08,
        1.0
      ],
      "scale": [
        1.0000001192092896,
        0.9999999403953552,
        0.9999998211860657
      ],
      "translation": [
        0.0,
        10.813899993896484,
        0.0
      ]
    },
    {
      "children": [
        152
      ],
      "name": "Armature_Bip001_Xtra10Opp06",
      "rotation": [
        2.644954975039582e-07,
        1.7415722197711148e-07,
        2.3096798429378396e-07,
        1.0
      ],
      "scale": [
        1.0,
        0.9999997019767761,
        1.0000001192092896
      ],
      "translation": [
        1.9073499970545527e-06,
        10.813899993896484,
        1.9073499970545527e-06
      ]
    },
    {
      "children": [
        153
      ],
      "name": "Armature_Bip001_Xtra10Opp07",
      "rotation": [
        -7.823099679171719e-08,
        -1.0337700473428413e-07,
        -1.9371501025489124e-07,
        1.0
      ],
      "scale": [
        0.9999999403953552,
        0.9999998807907104,
        1.0000001192092896
      ],
      "translation": [
        -3.814699994109105e-06,
        10.81389045715332,
        1.9073499970545527e-06
      ]
    },
    {
      "name": "Armature_Bip001_Xtra10Opp08",
      "rotation": [
        0.005677001550793648,
        0.005672560539096594,
        0.7073653936386108,
        0.706802487373352
      ],
      "scale": [
        1.0000001192092896,
        0.9999999403953552,
        0.9999998211860657
      ],
      "translation": [
        0.0,
        10.81389045715332,
        -1.9073499970545527e-06
      ]
    },
    {
      "mesh": 0,
      "name": "Object_154",
      "skin": 0
    },
    {
      "mesh": 1,
      "name": "Object_155",
      "skin": 0
    },
    {
      "mesh": 2,
      "name": "Object_156",
      "skin": 0
    }
  ],
  "samplers": [
    {
      "magFilter": 9729,
      "minFilter": 9987,
      "wrapS": 10497,
      "wrapT": 10497
    }
  ],
  "scene": 0,
  "scenes": [
    {
      "name": "Sketchfab_Scene",
      "nodes": [
        0
      ]
    }
  ],
  "skins": [
    {
      "inverseBindMatrices": 12,
      "joints": [
        4,
        5,
        6,
        7,
        8,
        9,
        10,
        11,
        12,
        13,
        14,
        15,
        16,
        17,
        18,
        19,
        20,
        21,
        22,
        23,
        24,
        25,
        26,
        27,
        28,
        29,
        30,
        31,
        32,
        33,
        34,
        35,
        36,
        37,
        38,
        39,
        40,
        41,
        42,
        43,
        44,
        45,
        46,
        47,
        48,
        49,
        50,
        51,
        52,
        53,
        54,
        55,
        56,
        57,
        58,
        59,
        60,
        61,
        62,
        63,
        64,
        65,
        66,
        67,
        68,
        69,
        70,
        71,
        72,
        73,
        74,
        75,
        76,
        77,
        78,
        79,
        80,
        81,
        82,
        83,
        84,
        85,
        86,
        87,
        88,
        89,
        90,
        91,
        92,
        93,
        94,
        95,
        96,
        97,
        98,
        99,
        100,
        101,
        102,
        103,
        104,
        105,
        106,
        107,
        108,
        109,
        110,
        111,
        112,
        113,
        114,
        115,
        116,
        117,
        118,
        119,
        120,
        121,
        122,
        123,
        124,
        125,
        126,
        127,
        128,
        129,
        130,
        131,
        132,
        133,
        134,
        135,
        136,
        137,
        138,
        139,
        140,
        141,
        142,
        143,
        144,
        145,
        146,
        147,
        148,
        149,
        150,
        151,
        152,
        153
      ],
      "skeleton": 4
    }
  ],
  "textures": [
    {
      "sampler": 0,
      "source": 0
    },
    {
      "sampler": 0,
      "source": 1
    },
    {
      "sampler": 0,
      "source": 2
    }
  ]
}
