{
  "accessors": [
    {
      "bufferView": 3,
      "componentType": 5126,
      "count": 1073,
      "max": [
        1.646367073059082,
        14.066579818725586,
        0.9728776216506958
      ],
      "min": [
        -1.6405729055404663,
        5.839148998260498,
        -2.766101598739624
      ],
      "type": "VEC3"
    },
    {
      "bufferView": 3,
      "byteOffset": 12876,
      "componentType": 5126,
      "count": 1073,
      "max": [
        0.9990717172622681,
        0.9999815821647644,
        0.999984622001648
      ],
      "min": [
        -0.9982742071151733,
        -0.9998083710670471,
        -0.998507559299469
      ],
      "type": "VEC3"
    },
    {
      "bufferView": 2,
      "componentType": 5126,
      "count": 1073,
      "max": [
        0.9889845252037048,
        0.9870361089706421
      ],
      "min": [
        0.010890060104429722,
        0.016735190525650978
      ],
      "type": "VEC2"
    },
    {
      "bufferView": 1,
      "componentType": 5125,
      "count": 4341,
      "type": "SCALAR"
    },
    {
      "bufferView": 3,
      "byteOffset": 25752,
      "componentType": 5126,
      "count": 5450,
      "max": [
        4.288018703460693,
        11.243159294128418,
        1.0905077457427979
      ],
      "min": [
        -4.288105010986328,
        -9.838208643486723e-05,
        -2.973356246948242
      ],
      "type": "VEC3"
    },
    {
      "bufferView": 3,
      "byteOffset": 91152,
      "componentType": 5126,
      "count": 5450,
      "max": [
        0.9999817609786987,
        0.999981701374054,
        0.999616265296936
      ],
      "min": [
        -0.9999817609786987,
        -0.9999816417694092,
        -0.9996161460876465
      ],
      "type": "VEC3"
    },
    {
      "bufferView": 2,
      "byteOffset": 8584,
      "componentType": 5126,
      "count": 5450,
      "max": [
        0.9919071197509766,
        0.990398645401001
      ],
      "min": [
        0.005044877063483,
        0.008407562971115112
      ],
      "type": "VEC2"
    },
    {
      "bufferView": 1,
      "byteOffset": 17364,
      "componentType": 5125,
      "count": 23673,
      "type": "SCALAR"
    },
    {
      "bufferView": 3,
      "byteOffset": 156552,
      "componentType": 5126,
      "count": 2890,
      "max": [
        0.9083739519119263,
        13.270050048828125,
        0.7594614028930664
      ],
      "min": [
        -0.9084617495536804,
        10.755839347839355,
        -1.0691370964050293
      ],
      "type": "VEC3"
    },
    {
      "bufferView": 3,
      "byteOffset": 191232,
      "componentType": 5126,
      "count": 2890,
      "max": [
        0.9998077750205994,
        0.9999816417694092,
        0.9993685483932495
      ],
      "min": [
        -0.9998079538345337,
        -0.9999818801879883,
        -0.999061644077301
      ],
      "type": "VEC3"
    },
    {
      "bufferView": 2,
      "byteOffset": 52184,
      "componentType": 5126,
      "count": 2890,
      "max": [
        0.9997006058692932,
        0.9933719635009766
      ],
      "min": [
        0.0030965199694037437,
        0.009432345628738403
      ],
      "type": "VEC2"
    },
    {
      "bufferView": 1,
      "byteOffset": 112056,
      "componentType": 5125,
      "count": 14034,
      "type": "SCALAR"
    },
    {
      "bufferView": 5,
      "componentType": 5126,
      "count": 112,
      "max": [
        100.3008041381836,
        1.003008246421814,
        0.5810235738754272,
        0.0,
        1.0030080080032349,
        100.3008041381836,
        1.0030080080032349,
        0.0,
        1.003008246421814,
        0.6223793029785156,
        100.3008041381836,
        0.0,
        12.538087844848633,
        10.19197940826416,
        8.74111270904541,
        1.0
      ],
      "min": [
        -0.6286250948905945,
        -1.0030081272125244,
        -1.0030081272125244,
        0.0,
        -1.0030078887939453,
        -1.0030078887939453,
        -0.7768911123275757,
        0.0,
        -0.7178578972816467,
        -0.327418714761734,
        -1.0030080080032349,
        0.0,
        -12.474618911743164,
        -12.76655101776123,
        -11.389143943786621,
        1.0
      ],
      "type": "MAT4"
    },
    {
      "bufferView": 0,
      "componentType": 5123,
      "count": 1073,
      "type": "VEC4"
    },
    {
      "bufferView": 4,
      "componentType": 5126,
      "count": 1073,
      "max": [
        1.0,
        0.48387089371681213,
        0.096774160861969,
        0.0
      ],
      "min": [
        0.5161290764808655,
        0.0,
        0.0,
        0.0
      ],
      "type": "VEC4"
    },
    {
      "bufferView": 0,
      "byteOffset": 8584,
      "componentType": 5123,
      "count": 5450,
      "type": "VEC4"
    },
    {
      "bufferView": 4,
      "byteOffset": 17168,
      "componentType": 5126,
      "count": 5450,
      "max": [
        1.0,
        0.4838710129261017,
        0.29032260179519653,
        0.19354842603206635
      ],
      "min": [
        0.35483869910240173,
        0.0,
        0.0,
        0.0
      ],
      "type": "VEC4"
    },
    {
      "bufferView": 0,
      "byteOffset": 52184,
      "componentType": 5123,
      "count": 2890,
      "type": "VEC4"
    },
    {
      "bufferView": 4,
      "byteOffset": 104368,
      "componentType": 5126,
      "count": 2890,
      "max": [
        1.0,
        0.48387089371681213,
        0.29032260179519653,
        0.19354839622974396
      ],
      "min": [
        0.29032260179519653,
        0.0,
        0.0,
        0.0
      ],
      "type": "VEC4"
    }
  ],
  "asset": {
    "extras": {
      "author": "gosaviprasad17 (https://sketchfab.com/gosaviprasad17)",
      "license": "SKETCHFAB Standard (https://sketchfab.com/licenses)",
      "source": "https://sketchfab.com/3d-models/disney-jasmine-princess-red-4d2b9bee343d4be4a650a715ec51b3d2",
      "title": "DISNEY JASMINE PRINCESS ( RED )"
    },
    "generator": "Sketchfab-16.59.0",
    "version": "2.0"
  },
  "bufferViews": [
    {
      "buffer": 0,
      "byteLength": 75304,
      "byteStride": 8,
      "name": "shortBufferViews",
      "target": 34962
    },
    {
      "buffer": 0,
      "byteLength": 168192,
      "byteOffset": 75304,
      "name": "floatBufferViews",
      "target": 34963
    },
    {
      "buffer": 0,
      "byteLength": 75304,
      "byteOffset": 243496,
      "byteStride": 8,
      "name": "floatBufferViews",
      "target": 34962
    },
    {
      "buffer": 0,
      "byteLength": 225912,
      "byteOffset": 318800,
      "byteStride": 12,
      "name": "floatBufferViews",
      "target": 34962
    },
    {
      "buffer": 0,
      "byteLength": 150608,
      "byteOffset": 544712,
      "byteStride": 16,
      "name": "floatBufferViews",
      "target": 34962
    },
    {
      "buffer": 0,
      "byteLength": 7168,
      "byteOffset": 695320,
      "name": "floatBufferViews"
    }
  ],
  "buffers": [
    {
      "byteLength": 702488,
      "uri": "scene.bin"
    }
  ],
  "images": [
    {
      "uri": "textures/Jasmine_Hair_DIF.002_baseColor.jpeg"
    },
    {
      "uri": "textures/Material.016_baseColor.jpeg"
    },
    {
      "uri": "textures/Material.010_baseColor.png"
    }
  ],
  "materials": [
    {
      "doubleSided": true,
      "name": "Jasmine_Hair_DIF.002",
      "pbrMetallicRoughness": {
        "baseColorTexture": {
          "index": 0
        },
        "metallicFactor": 0.0,
        "roughnessFactor": 0.8211145618000169
      }
    },
    {
      "doubleSided": true,
      "name": "Material.016",
      "pbrMetallicRoughness": {
        "baseColorTexture": {
          "index": 1
        },
        "metallicFactor": 0.0,
        "roughnessFactor": 0.8211145618000169
      }
    },
    {
      "doubleSided": true,
      "name": "Material.010",
      "pbrMetallicRoughness": {
        "baseColorTexture": {
          "index": 2
        },
        "metallicFactor": 0.0,
        "roughnessFactor": 0.8211145618000169
      }
    }
  ],
  "meshes": [
    {
      "name": "Jasmine_Jasmine_Hair_DIF.002_0",
      "primitives": [
        {
          "attributes": {
            "JOINTS_0": 13,
            "NORMAL": 1,
            "POSITION": 0,
            "TEXCOORD_0": 2,
            "WEIGHTS_0": 14
          },
          "indices": 3,
          "material": 0,
          "mode": 4
        }
      ]
    },
    {
      "name": "Jasmine.001_Material.016_0",
      "primitives": [
        {
          "attributes": {
            "JOINTS_0": 15,
            "NORMAL": 5,
            "POSITION": 4,
            "TEXCOORD_0": 6,
            "WEIGHTS_0": 16
          },
          "indices": 7,
          "material": 1,
          "mode": 4
        }
      ]
    },
    {
      "name": "Jasmine.002_Material.010_0",
      "primitives": [
        {
          "attributes": {
            "JOINTS_0": 17,
            "NORMAL": 9,
            "POSITION": 8,
            "TEXCOORD_0": 10,
            "WEIGHTS_0": 18
          },
          "indices": 11,
          "material": 2,
          "mode": 4
        }
      ]
    }
  ],
  "nodes": [
    {
      "children": [
        1
      ],
      "matrix": [
        1.0,
        0.0,
        0.0,
        0.0,
        0.0,
        2.220446049250313e-16,
        -1.0,
        0.0,
        0.0,
        1.0,
        2.220446049250313e-16,
        0.0,
        0.0,
        0.0,
        0.0,
        1.0
      ],
      "name": "Sketchfab_model"
    },
    {
      "children": [
        2
      ],
      "matrix": [
        0.009999999776482582,
        0.0,
        0.0,
        0.0,
        0.0,
        0.0,
        0.009999999776482582,
        0.0,
        0.0,
        -0.009999999776482582,
        0.0,
        0.0,
        0.0,
        0.0,
        0.0,
        1.0
      ],
      "name": "a85b25fd4ea146fc9ac8737be06b22ad.fbx"
    },
    {
      "children": [
        3
      ],
      "name": "RootNode"
    },
    {
      "children": [
        4
      ],
      "matrix": [
        100.0,
        2.2204497550194583e-14,
        2.22045028441505e-14,
        0.0,
        -2.2204495873801154e-14,
        99.99999999999972,
        -7.5497901264043296e-06,
        0.0,
        -2.2204504520543395e-14,
        7.5497901264043296e-06,
        99.99999999999972,
        0.0,
        0.0,
        0.0,
        0.0,
        1.0
      ],
      "name": "Princess3_06_rig (1)"
    },
    {
      "children": [
        5,
        118,
        120,
        122,
        117,
        119,
        121
      ],
      "name": "Object_4"
    },
    {
      "children": [
        6
      ],
      "name": "_rootJoint"
    },
    {
      "children": [
        7,
        108,
        111,
        114
      ],
      "name": "TSMGWorldJoint_01",
      "rotation": [
        0.0,
        0.0,
        1.1782789500025917e-32,
        1.0
      ]
    },
    {
      "children": [
        8,
        12,
        16
      ],
      "name": "spine1_loResSpine1_02",
      "rotation": [
        0.09027700871229172,
        -0.09027700871229172,
        0.701320230960846,
        0.701320230960846
      ],
      "translation": [
        -6.592159706997336e-07,
        7.540555000305176,
        -0.4872032105922699
      ]
    },
    {
      "children": [
        9
      ],
      "name": "leftLeg1_LoResUpperLeg_03",
      "rotation": [
        0.136326864361763,
        1.2019652828598737e-08,
        0.990664005279541,
        4.082922444581527e-08
      ],
      "translation": [
        -0.035807907581329346,
        -0.6523975729942322,
        -0.013278543949127197
      ]
    },
    {
      "children": [
        10
      ],
      "name": "leftLeg1_LoResLowerLeg_04",
      "rotation": [
        -2.113618968735409e-08,
        0.04974118247628212,
        6.782759243151304e-08,
        0.9987621307373047
      ],
      "scale": [
        1.0000001192092896,
        1.0,
        1.0000001192092896
      ],
      "translation": [
        3.441561222076416,
        1.830124318757953e-07,
        1.274733385514537e-08
      ]
    },
    {
      "children": [
        11
      ],
      "name": "leftLeg1_LoResFoot_05",
      "rotation": [
        2.4753847551654915e-15,
        -0.4476528763771057,
        -7.148738905051193e-16,
        0.8942074179649353
      ],
      "translation": [
        3.465639352798462,
        -5.084611984784715e-07,
        7.11845729028937e-08
      ]
    },
    {
      "name": "leftLeg1_LoResToe_06",
      "rotation": [
        -5.534555214126158e-08,
        -0.3544157147407532,
        -2.492247475061049e-08,
        0.9350879788398743
      ],
      "scale": [
        0.9999999403953552,
        1.0,
        0.9999999403953552
      ],
      "translation": [
        0.694368302822113,
        2.0078691420621908e-07,
        8.348155944304381e-08
      ]
    },
    {
      "children": [
        13
      ],
      "name": "rightLeg1_LoResUpperLeg_07",
      "rotation": [
        0.136326864361763,
        1.2019652828598737e-08,
        0.990664005279541,
        4.082922444581527e-08
      ],
      "translation": [
        -0.035807907581329346,
        0.6523975729942322,
        -0.013278543949127197
      ]
    },
    {
      "children": [
        14
      ],
      "name": "rightLeg1_LoResLowerLeg_08",
      "rotation": [
        -2.113618791099725e-08,
        0.04974118247628212,
        6.782758532608568e-08,
        0.9987621307373047
      ],
      "scale": [
        1.0000001192092896,
        1.0,
        1.0000001192092896
      ],
      "translation": [
        3.441561222076416,
        -2.93824712116475e-07,
        6.175852007572757e-08
      ]
    },
    {
      "children": [
        15
      ],
      "name": "rightLeg1_LoResFoot_09",
      "rotation": [
        -8.535805119365761e-17,
        -0.4476528763771057,
        -2.1659615019511275e-15,
        0.8942074179649353
      ],
      "translation": [
        3.4656386375427246,
        2.0679459566963487e-07,
        1.8222394260192232e-08
      ]
    },
    {
      "name": "rightLeg1_LoResToe_010",
      "rotation": [
        -5.534555214126158e-08,
        -0.3544157147407532,
        -2.492247475061049e-08,
        0.9350879788398743
      ],
      "scale": [
        0.9999999403953552,
        1.0,
        0.9999999403953552
      ],
      "translation": [
        0.6943684220314026,
        -9.723628124902461e-08,
        -1.579873298851453e-07
      ]
    },
    {
      "children": [
        17
      ],
      "name": "spine1_loResSpine2_00",
      "rotation": [
        -9.103454846250476e-25,
        0.1092199757695198,
        -1.5733719050696306e-27,
        0.9940177202224731
      ],
      "translation": [
        1.3916445970535278,
        1.1920928955078125e-07,
        -6.705522537231445e-07
      ]
    },
    {
      "children": [
        18,
        57,
        83
      ],
      "name": "spine1_loResSpine3_011",
      "rotation": [
        2.5493770715827825e-25,
        1.4901161193847656e-08,
        3.656885421870499e-24,
        1.0
      ],
      "translation": [
        1.036303162574768,
        2.3841863594498136e-07,
        1.7881393432617188e-07
      ]
    },
    {
      "children": [
        19
      ],
      "name": "head1_neck_012",
      "rotation": [
        1.8521541934167695e-25,
        -0.06488742679357529,
        5.2476971957433075e-24,
        0.9978926181793213
      ],
      "translation": [
        1.114031434059143,
        1.0587911840678754e-22,
        -0.3536951243877411
      ]
    },
    {
      "children": [
        20,
        21,
        25,
        26,
        27,
        29,
        30,
        31,
        32,
        33,
        35,
        36,
        37,
        38,
        39,
        41,
        42,
        43,
        44,
        45,
        47,
        48,
        53
      ],
      "name": "head1_head_013",
      "rotation": [
        6.787941013439186e-26,
        0.07178380340337753,
        3.567533908149283e-24,
        0.9974201917648315
      ],
      "scale": [
        1.0,
        0.9999999403953552,
        1.0
      ],
      "translation": [
        1.0086992979049683,
        2.3841846541472478e-07,
        1.4156103134155273e-06
      ]
    },
    {
      "name": "cnt_up_lip_014",
      "rotation": [
        -0.5058028697967529,
        -0.4941289722919464,
        -0.49413377046585083,
        0.5057982206344604
      ],
      "scale": [
        0.9999998807907104,
        0.9999997615814209,
        1.0
      ],
      "translation": [
        -0.20016425848007202,
        -4.416704177856445e-05,
        0.8362076282501221
      ]
    },
    {
      "children": [
        22,
        23,
        24
      ],
      "name": "jaw_015",
      "rotation": [
        0.31541907787323,
        0.6328591704368591,
        0.6328592300415039,
        -0.3154192566871643
      ],
      "scale": [
        1.0,
        0.9999998211860657,
        1.0
      ],
      "translation": [
        0.03804639354348183,
        -4.482269287109375e-05,
        -0.20892482995986938
      ]
    },
    {
      "name": "cnt_down_lip_016",
      "rotation": [
        -5.0860663236562687e-08,
        1.2908447644122134e-08,
        0.14920391142368317,
        0.9888065457344055
      ],
      "translation": [
        1.017160415649414,
        0.3177480101585388,
        3.8518274436682987e-07
      ]
    },
    {
      "name": "l_down_lip_017",
      "rotation": [
        0.04808893799781799,
        0.17917270958423615,
        0.13389357924461365,
        0.9734768271446228
      ],
      "scale": [
        1.0000001192092896,
        1.0,
        1.0000001192092896
      ],
      "translation": [
        0.9950950145721436,
        0.2957119345664978,
        -0.14156340062618256
      ]
    },
    {
      "name": "r_down_lip_018",
      "rotation": [
        0.048088956624269485,
        0.17917270958423615,
        0.13389357924461365,
        0.9734768271446228
      ],
      "scale": [
        1.0000001192092896,
        1.0,
        1.0000001192092896
      ],
      "translation": [
        0.9951099157333374,
        0.29569265246391296,
        0.141562819480896
      ]
    },
    {
      "name": "l_cheek_019",
      "rotation": [
        -0.11656024307012558,
        -0.22728608548641205,
        -0.6654390692710876,
        0.7013883590698242
      ],
      "scale": [
        1.0000001192092896,
        1.0,
        1.0000001192092896
      ],
      "translation": [
        0.038237329572439194,
        -0.5870705842971802,
        0.6269216537475586
      ]
    },
    {
      "name": "l_corner_lip_020",
      "rotation": [
        -0.31847289204597473,
        -0.303652822971344,
        -0.6313280463218689,
        0.6385881900787354
      ],
      "translation": [
        -0.22396788001060486,
        -0.2983393669128418,
        0.7403392195701599
      ]
    },
    {
      "children": [
        28
      ],
      "name": "l_downLid_driver_021",
      "rotation": [
        0.48370951414108276,
        -0.14799921214580536,
        0.859978973865509,
        -0.06750962883234024
      ],
      "scale": [
        1.0,
        0.9999999403953552,
        0.9999985694885254
      ],
      "translation": [
        0.4421704113483429,
        -0.32354605197906494,
        0.4547845125198364
      ]
    },
    {
      "name": "l_down_lid_022",
      "rotation": [
        3.119930624961853e-08,
        -1.0989606380462646e-07,
        6.775371730327606e-08,
        1.0
      ],
      "translation": [
        0.26827001571655273,
        -4.470348358154297e-08,
        9.98377799987793e-07
      ]
    },
    {
      "name": "l_eye_023",
      "rotation": [
        0.08870088309049606,
        0.011691444553434849,
        -0.0010290660429745913,
        0.9959891438484192
      ],
      "scale": [
        1.0,
        1.0,
        0.9999998807907104
      ],
      "translation": [
        0.4421679675579071,
        -0.338523268699646,
        0.46583932638168335
      ]
    },
    {
      "name": "l_in_eyebrow_024",
      "rotation": [
        0.11038897186517715,
        0.12665827572345734,
        -0.698436975479126,
        0.6956707239151001
      ],
      "scale": [
        0.9999999403953552,
        0.9999999403953552,
        1.0
      ],
      "translation": [
        0.7037495970726013,
        -0.20000053942203522,
        0.8249739408493042
      ]
    },
    {
      "name": "l_out_end_eyebrow_025",
      "rotation": [
        0.20710836350917816,
        0.22283001244068146,
        -0.6760963201522827,
        0.6710788607597351
      ],
      "scale": [
        1.0,
        0.9999999403953552,
        1.0
      ],
      "translation": [
        0.6537997126579285,
        -0.6969342231750488,
        0.48064127564430237
      ]
    },
    {
      "name": "l_out_eyebrow_026",
      "rotation": [
        0.20710836350917816,
        0.22283001244068146,
        -0.6760963201522827,
        0.6710788607597351
      ],
      "scale": [
        1.0,
        0.9999999403953552,
        1.0
      ],
      "translation": [
        0.7402259707450867,
        -0.45696166157722473,
        0.7275420427322388
      ]
    },
    {
      "children": [
        34
      ],
      "name": "l_topLid_driver_027",
      "rotation": [
        0.8465343117713928,
        -0.08520075678825378,
        0.5093168020248413,
        -0.12929387390613556
      ],
      "scale": [
        1.0000001192092896,
        1.000000238418579,
        1.0000027418136597
      ],
      "translation": [
        0.4421704113483429,
        -0.32354605197906494,
        0.4547845125198364
      ]
    },
    {
      "name": "l_top_lid_028",
      "rotation": [
        5.937180524995256e-09,
        -1.3131646880992776e-07,
        -2.3283062144940914e-09,
        1.0
      ],
      "scale": [
        1.0000001192092896,
        1.0000001192092896,
        1.0000001192092896
      ],
      "translation": [
        0.25206640362739563,
        -9.909272193908691e-07,
        -8.657574653625488e-06
      ]
    },
    {
      "name": "l_up_lip_029",
      "rotation": [
        -0.2780328392982483,
        -0.2627844214439392,
        -0.6501521468162537,
        0.6564634442329407
      ],
      "scale": [
        1.0,
        1.0,
        0.9999999403953552
      ],
      "translation": [
        -0.20139028131961823,
        -0.15105676651000977,
        0.802080512046814
      ]
    },
    {
      "name": "nose_030",
      "rotation": [
        -0.5058006644248962,
        -0.4941311180591583,
        -0.49413150548934937,
        0.5058005452156067
      ],
      "scale": [
        1.0,
        0.9999999403953552,
        1.0
      ],
      "translation": [
        0.022682378068566322,
        -1.3113021850585938e-06,
        0.9187524914741516
      ]
    },
    {
      "name": "r_cheek_031",
      "rotation": [
        -0.11656024307012558,
        -0.2272859811782837,
        -0.6654390692710876,
        0.7013883590698242
      ],
      "scale": [
        1.0000001192092896,
        0.9999999403953552,
        1.0000001192092896
      ],
      "translation": [
        0.03820204362273216,
        0.5870685577392578,
        0.6269224286079407
      ]
    },
    {
      "name": "r_corner_lip_032",
      "rotation": [
        -0.31847286224365234,
        -0.3036527633666992,
        -0.6313281059265137,
        0.6385881304740906
      ],
      "scale": [
        0.9999999403953552,
        0.9999999403953552,
        1.0
      ],
      "translation": [
        -0.22401747107505798,
        0.2983376383781433,
        0.7403404116630554
      ]
    },
    {
      "children": [
        40
      ],
      "name": "r_downLid_driver_033",
      "rotation": [
        0.4808971881866455,
        0.11712681502103806,
        0.8647744655609131,
        0.0847604051232338
      ],
      "scale": [
        0.9999998807907104,
        0.9999997615814209,
        0.9999973177909851
      ],
      "translation": [
        0.4421961307525635,
        0.32354575395584106,
        0.4547836184501648
      ]
    },
    {
      "name": "r_down_lid_034",
      "rotation": [
        -0.09508397430181503,
        -0.025627702474594116,
        0.257999986410141,
        0.9611131548881531
      ],
      "scale": [
        0.9999999403953552,
        0.9999999403953552,
        1.0
      ],
      "translation": [
        0.2683117985725403,
        2.637505531311035e-06,
        4.392117261886597e-06
      ]
    },
    {
      "name": "r_eye_035",
      "rotation": [
        -0.001028183614835143,
        0.9959983229637146,
        -0.08859862387180328,
        -0.011688207276165485
      ],
      "scale": [
        1.0000001192092896,
        1.0000001192092896,
        1.0
      ],
      "translation": [
        0.4422089457511902,
        0.3385229706764221,
        0.4658380150794983
      ]
    },
    {
      "name": "r_in_eyebrow_036",
      "rotation": [
        0.11038897186517715,
        0.12665827572345734,
        -0.698436975479126,
        0.6956707239151001
      ],
      "scale": [
        0.9999999403953552,
        0.9999999403953552,
        1.0
      ],
      "translation": [
        0.703709602355957,
        0.19999881088733673,
        0.8249785900115967
      ]
    },
    {
      "name": "r_out_end_eyebrow_037",
      "rotation": [
        0.2071083039045334,
        0.2228299379348755,
        -0.6760962605476379,
        0.6710788607597351
      ],
      "scale": [
        0.9999999403953552,
        0.9999998807907104,
        1.0
      ],
      "translation": [
        0.6537606120109558,
        0.696931004524231,
        0.48064184188842773
      ]
    },
    {
      "name": "r_out_eyebrow_038",
      "rotation": [
        0.20710834860801697,
        0.2228299379348755,
        -0.6760963201522827,
        0.6710788607597351
      ],
      "scale": [
        0.9999999403953552,
        0.9999998807907104,
        1.0
      ],
      "translation": [
        0.7402459383010864,
        0.4569576680660248,
        0.7275394797325134
      ]
    },
    {
      "children": [
        46
      ],
      "name": "r_topLid_driver_039",
      "rotation": [
        0.8460189700126648,
        0.08341909945011139,
        0.5097062587738037,
        0.1322607845067978
      ],
      "scale": [
        1.0,
        1.0,
        0.9999998807907104
      ],
      "translation": [
        0.4421961307525635,
        0.32354575395584106,
        0.4547836184501648
      ]
    },
    {
      "name": "r_top_lid_040",
      "rotation": [
        0.06621462106704712,
        0.018898317590355873,
        0.2753174602985382,
        0.9588841199874878
      ],
      "scale": [
        0.9999998807907104,
        1.0,
        1.0
      ],
      "translation": [
        0.2520468831062317,
        1.1203810572624207e-06,
        -4.969537258148193e-06
      ]
    },
    {
      "name": "r_up_lip_041",
      "rotation": [
        -0.27803274989128113,
        -0.2627843916416168,
        -0.6501520872116089,
        0.6564635634422302
      ],
      "scale": [
        1.0,
        0.9999999403953552,
        1.0
      ],
      "translation": [
        -0.20135024189949036,
        0.15105301141738892,
        0.8020789623260498
      ]
    },
    {
      "children": [
        49
      ],
      "name": "tail4_Joint1_042",
      "rotation": [
        -0.06592712551355362,
        -2.8817661590352373e-09,
        0.9978245496749878,
        -4.3616296352411155e-08
      ],
      "scale": [
        0.9999999403953552,
        1.0,
        0.9999999403953552
      ],
      "translation": [
        0.7847500443458557,
        -2.384185791015625e-07,
        -0.7690908908843994
      ]
    },
    {
      "children": [
        50
      ],
      "name": "tail4_Joint2_043",
      "rotation": [
        -2.0679515313825692e-24,
        7.450580596923828e-09,
        1.6026624368214911e-24,
        1.0
      ],
      "translation": [
        1.7556320428848267,
        5.960463340670685e-07,
        -8.344650268554688e-07
      ]
    },
    {
      "children": [
        51
      ],
      "name": "tail4_Joint3_044",
      "rotation": [
        -2.895132143935597e-24,
        -0.0,
        1.6543612251060553e-24,
        1.0
      ],
      "translation": [
        1.7554380893707275,
        1.1920928955078125e-07,
        0.0
      ]
    },
    {
      "children": [
        52
      ],
      "name": "tail4_Joint4_045",
      "rotation": [
        -1.4475660719677984e-24,
        -1.3877787807814457e-17,
        1.514774496737732e-23,
        1.0
      ],
      "translation": [
        1.7554932832717896,
        -1.1920931797249068e-07,
        1.1920928955078125e-07
      ]
    },
    {
      "name": "tail4_Joint5_046",
      "rotation": [
        -2.895132143935597e-24,
        -0.0,
        2.0938009255248513e-24,
        1.0
      ],
      "translation": [
        1.755189299583435,
        0.0,
        -1.1920928955078125e-07
      ]
    },
    {
      "children": [
        54
      ],
      "name": "tail5_Joint1_047",
      "rotation": [
        0.020176341757178307,
        -0.001532748923636973,
        0.9171323776245117,
        -0.3980688154697418
      ],
      "scale": [
        0.9999997019767761,
        0.9999999403953552,
        1.0000001192092896
      ],
      "translation": [
        1.200524091720581,
        0.02483999915421009,
        1.00406014919281
      ]
    },
    {
      "children": [
        55
      ],
      "name": "tail5_Joint2_048",
      "rotation": [
        3.403117432299041e-08,
        0.13338589668273926,
        -0.23465022444725037,
        0.9628850817680359
      ],
      "translation": [
        0.8202773928642273,
        1.2767268344759941e-06,
        -5.401670932769775e-07
      ]
    },
    {
      "children": [
        56
      ],
      "name": "tail5_Joint3_049",
      "rotation": [
        -0.000372779875760898,
        0.3338291347026825,
        -0.2561015486717224,
        0.9071769118309021
      ],
      "scale": [
        1.000000238418579,
        1.0,
        1.0
      ],
      "translation": [
        0.8036245107650757,
        -2.168118953704834e-06,
        2.734363079071045e-06
      ]
    },
    {
      "name": "tail5_Joint4_050",
      "rotation": [
        -0.0008219469455070794,
        6.519263351378868e-09,
        7.63685079618881e-08,
        0.9999997615814209
      ],
      "scale": [
        0.9999999403953552,
        0.9999998807907104,
        0.9999998807907104
      ],
      "translation": [
        0.8104932904243469,
        1.1418014764785767e-06,
        -1.0728836059570313e-06
      ]
    },
    {
      "children": [
        58
      ],
      "name": "leftArm1_LoResClavical_051",
      "rotation": [
        0.1788630336523056,
        0.2040257453918457,
        -0.6071486473083496,
        0.7468279600143433
      ],
      "scale": [
        1.0000001192092896,
        1.0000001192092896,
        1.0
      ],
      "translation": [
        0.5477576851844788,
        -0.23043906688690186,
        -0.11583654582500458
      ]
    },
    {
      "children": [
        59,
        60,
        61
      ],
      "name": "leftArm1_LoResUpperArm_052",
      "rotation": [
        0.07853782922029495,
        -0.19532477855682373,
        -0.5184264183044434,
        0.8288028240203857
      ],
      "scale": [
        0.9999999403953552,
        1.0,
        1.0
      ],
      "translation": [
        0.8155003786087036,
        7.484108209609985e-06,
        -3.8743019104003906e-07
      ]
    },
    {
      "name": "l_shawl_back_053",
      "rotation": [
        0.04390806332230568,
        -0.04394639655947685,
        0.4315313398838043,
        0.8999564051628113
      ],
      "scale": [
        0.9999998807907104,
        0.9999997615814209,
        0.9999999403953552
      ],
      "translation": [
        0.6063167452812195,
        -0.3833915591239929,
        -0.3392922282218933
      ]
    },
    {
      "name": "l_shawl_front_054",
      "rotation": [
        0.04390804469585419,
        -0.043946415185928345,
        0.4315313398838043,
        0.8999564051628113
      ],
      "scale": [
        0.9999998807907104,
        0.9999997615814209,
        0.9999999403953552
      ],
      "translation": [
        0.6663448810577393,
        -0.366377055644989,
        0.661733865737915
      ]
    },
    {
      "children": [
        62
      ],
      "name": "leftArm1_LoResLowerArm_055",
      "rotation": [
        2.7956982506793793e-08,
        -0.09768807142972946,
        -7.872405660691584e-08,
        0.9952170848846436
      ],
      "scale": [
        0.9999998211860657,
        0.9999998807907104,
        0.9999998807907104
      ],
      "translation": [
        2.336199998855591,
        -5.960464477539063e-08,
        -2.3096799850463867e-07
      ]
    },
    {
      "children": [
        63,
        64,
        68,
        72,
        76,
        80
      ],
      "name": "leftArm1_LoResHand_056",
      "rotation": [
        -1.3969840839678227e-09,
        1.6065314412117004e-08,
        3.497116551898216e-07,
        1.0
      ],
      "scale": [
        1.0,
        0.9999999403953552,
        1.0
      ],
      "translation": [
        1.916741132736206,
        5.327165126800537e-07,
        7.636845111846924e-07
      ]
    },
    {
      "name": "MagicLamp1_057",
      "rotation": [
        0.33370766043663025,
        -0.5304791927337646,
        0.2771032154560089,
        0.7283164262771606
      ],
      "scale": [
        1.0,
        0.9999998807907104,
        0.9999999403953552
      ],
      "translation": [
        0.6334254741668701,
        -0.5047925710678101,
        0.01421399600803852
      ]
    },
    {
      "children": [
        65
      ],
      "name": "leftFinger1_MetaCarpel_058",
      "rotation": [
        0.02882050909101963,
        0.19662748277187347,
        -0.06339801102876663,
        0.9780018925666809
      ],
      "scale": [
        1.0,
        0.9999999403953552,
        1.0
      ],
      "translation": [
        0.2787240445613861,
        0.02222270518541336,
        -0.08405429124832153
      ]
    },
    {
      "children": [
        66
      ],
      "name": "leftFinger1_Joint1_059",
      "rotation": [
        -9.313225746154785e-09,
        -6.146728992462158e-08,
        -3.327149897813797e-07,
        1.0
      ],
      "translation": [
        0.2547413408756256,
        -1.1175870895385742e-06,
        -1.1324882507324219e-06
      ]
    },
    {
      "children": [
        67
      ],
      "name": "leftFinger1_Joint2_060",
      "rotation": [
        2.169981740962612e-07,
        1.154840063577467e-07,
        -9.429642489067191e-08,
        1.0
      ],
      "scale": [
        0.9999999403953552,
        0.9999999403953552,
        1.0
      ],
      "translation": [
        0.22086483240127563,
        -1.341104507446289e-07,
        5.364418029785156e-07
      ]
    },
    {
      "name": "leftFinger1_Joint3_061",
      "rotation": [
        -2.1234153280147439e-07,
        -1.0803341865539551e-07,
        -5.797482671709986e-08,
        1.0
      ],
      "scale": [
        1.0,
        1.0000001192092896,
        1.0
      ],
      "translation": [
        0.14567169547080994,
        -2.1606683731079102e-07,
        -7.152557373046875e-07
      ]
    },
    {
      "children": [
        69
      ],
      "name": "leftFinger2_MetaCarpel_062",
      "rotation": [
        0.08618646115064621,
        0.0646374300122261,
        0.008478952571749687,
        0.9941439628601074
      ],
      "scale": [
        1.0,
        0.9999999403953552,
        1.0
      ],
      "translation": [
        0.3090868294239044,
        -0.030258938670158386,
        -0.04868565499782562
      ]
    },
    {
      "children": [
        70
      ],
      "name": "leftFinger2_Joint1_063",
      "rotation": [
        -1.714527186891246e-08,
        0.05233273282647133,
        -0.017673281952738762,
        0.9984734058380127
      ],
      "scale": [
        0.9999998807907104,
        1.0,
        0.9999998807907104
      ],
      "translation": [
        0.25859159231185913,
        -5.904585123062134e-07,
        -1.125037670135498e-06
      ]
    },
    {
      "children": [
        71
      ],
      "name": "leftFinger2_Joint2_064",
      "rotation": [
        5.027760430209582e-09,
        -0.020364878699183464,
        -0.11916273087263107,
        0.9926658868789673
      ],
      "scale": [
        0.9999998807907104,
        1.0,
        0.9999999403953552
      ],
      "translation": [
        0.2821406126022339,
        4.302710294723511e-07,
        -2.60770320892334e-07
      ]
    },
    {
      "name": "leftFinger2_Joint3_065",
      "rotation": [
        -1.4433254591494915e-08,
        -0.0031555104069411755,
        0.005424845963716507,
        0.9999803304672241
      ],
      "scale": [
        1.0000001192092896,
        1.0,
        1.0
      ],
      "translation": [
        0.1792442500591278,
        1.5124678611755371e-06,
        -3.390014171600342e-07
      ]
    },
    {
      "children": [
        73
      ],
      "name": "leftFinger3_MetaCarpel_066",
      "rotation": [
        0.1019551008939743,
        0.03172573447227478,
        -0.05532953888177872,
        0.9927423000335693
      ],
      "translation": [
        0.33028990030288696,
        0.014147978276014328,
        0.061186663806438446
      ]
    },
    {
      "children": [
        74
      ],
      "name": "leftFinger3_Joint1_067",
      "rotation": [
        2.235385920812405e-08,
        -1.8628217191007934e-08,
        -0.013767017982900143,
        0.9999052286148071
      ],
      "scale": [
        0.9999999403953552,
        1.0,
        1.0
      ],
      "translation": [
        0.2752162218093872,
        -2.045184373855591e-06,
        -7.152557373046875e-07
      ]
    },
    {
      "children": [
        75
      ],
      "name": "leftFinger3_Joint2_068",
      "rotation": [
        -1.7952501707441115e-07,
        -1.2014903916224284e-07,
        -0.011813165619969368,
        0.9999303221702576
      ],
      "scale": [
        0.9999998211860657,
        0.9999998807907104,
        0.9999999403953552
      ],
      "translation": [
        0.2837302088737488,
        1.8700957298278809e-06,
        -5.960464477539063e-07
      ]
    },
    {
      "name": "leftFinger3_Joint3_069",
      "rotation": [
        1.1503950503310989e-07,
        2.887631112002964e-08,
        -0.019180236384272575,
        0.9998160600662231
      ],
      "scale": [
        1.0,
        0.9999999403953552,
        1.0
      ],
      "translation": [
        0.17681556940078735,
        6.183981895446777e-07,
        1.9371509552001953e-07
      ]
    },
    {
      "children": [
        77
      ],
      "name": "leftFinger4_MetaCarpel_070",
      "rotation": [
        0.21804267168045044,
        -0.08885916322469711,
        -0.03524460271000862,
        0.9712462425231934
      ],
      "scale": [
        1.0000001192092896,
        0.9999999403953552,
        1.0
      ],
      "translation": [
        0.3298186659812927,
        -0.04350266605615616,
        0.1133449524641037
      ]
    },
    {
      "children": [
        78
      ],
      "name": "leftFinger4_Joint1_071",
      "rotation": [
        3.362993084010668e-07,
        1.714101500738252e-07,
        0.023353759199380875,
        0.9997273683547974
      ],
      "scale": [
        0.9999999403953552,
        1.0,
        1.0
      ],
      "translation": [
        0.2921065092086792,
        -1.7620623111724854e-06,
        1.1920928955078125e-06
      ]
    },
    {
      "children": [
        79
      ],
      "name": "leftFinger4_Joint2_072",
      "rotation": [
        -8.563371238778927e-07,
        -3.593349333641527e-07,
        -0.06566406041383743,
        0.9978418946266174
      ],
      "scale": [
        0.9999999403953552,
        0.9999999403953552,
        0.9999999403953552
      ],
      "translation": [
        0.24282069504261017,
        -1.2926757335662842e-06,
        -1.6391277313232422e-07
      ]
    },
    {
      "name": "leftFinger4_Joint3_073",
      "rotation": [
        -1.644768161668253e-07,
        -9.03923549344654e-08,
        -0.03458155319094658,
        0.999401867389679
      ],
      "translation": [
        0.14267286658287048,
        1.4891847968101501e-06,
        -1.0337680578231812e-06
      ]
    },
    {
      "children": [
        81
      ],
      "name": "leftThumb1_Joint1_074",
      "rotation": [
        0.44146159291267395,
        -0.35415053367614746,
        0.08520174026489258,
        0.8200181126594543
      ],
      "scale": [
        1.0,
        0.9999998807907104,
        0.9999998807907104
      ],
      "translation": [
        0.27935537695884705,
        -0.1327405571937561,
        0.2178025096654892
      ]
    },
    {
      "children": [
        82
      ],
      "name": "leftThumb1_Joint2_075",
      "rotation": [
        2.468004822731018e-08,
        -1.0803341865539551e-07,
        -3.4365803003311157e-07,
        1.0
      ],
      "scale": [
        1.0,
        0.9999999403953552,
        1.0
      ],
      "translation": [
        0.24166077375411987,
        9.145587682723999e-07,
        9.853392839431763e-07
      ]
    },
    {
      "name": "leftThumb1_Joint3_076",
      "rotation": [
        -7.916242772409987e-09,
        -2.0489096641540527e-08,
        1.0710210318620739e-07,
        1.0
      ],
      "scale": [
        1.0,
        0.9999999403953552,
        1.0
      ],
      "translation": [
        0.1461292803287506,
        6.183981895446777e-07,
        -1.4193356037139893e-06
      ]
    },
    {
      "children": [
        84
      ],
      "name": "rightArm1_LoResClavical_077",
      "rotation": [
        -0.6071486473083496,
        0.746828019618988,
        -0.17886289954185486,
        -0.20402564108371735
      ],
      "scale": [
        1.0,
        1.0000001192092896,
        1.0
      ],
      "translation": [
        0.547760546207428,
        0.23043954372406006,
        -0.1158374696969986
      ]
    },
    {
      "children": [
        85,
        86,
        87
      ],
      "name": "rightArm1_LoResUpperArm_078",
      "rotation": [
        0.07853756099939346,
        -0.1953248232603073,
        -0.5184264183044434,
        0.8288028240203857
      ],
      "scale": [
        0.9999999403953552,
        1.0,
        1.0
      ],
      "translation": [
        -0.8154972791671753,
        -2.5294721126556396e-06,
        4.172325134277344e-07
      ]
    },
    {
      "name": "r_shawr_back_079",
      "rotation": [
        0.043908391147851944,
        -0.04394635930657387,
        0.43153151869773865,
        0.8999564051628113
      ],
      "scale": [
        0.9999999403953552,
        1.0,
        1.0
      ],
      "translation": [
        -0.606315553188324,
        0.3833877444267273,
        0.3392924666404724
      ]
    },
    {
      "name": "r_shawr_front_080",
      "rotation": [
        0.04390839859843254,
        -0.04394634813070297,
        0.43153151869773865,
        0.8999564051628113
      ],
      "scale": [
        0.9999999403953552,
        1.0,
        1.0
      ],
      "translation": [
        -0.6663428544998169,
        0.36637672781944275,
        -0.6617342233657837
      ]
    },
    {
      "children": [
        88
      ],
      "name": "rightArm1_LoResLowerArm_081",
      "rotation": [
        -2.5851431217915888e-08,
        -0.09768791496753693,
        1.2294053419736883e-07,
        0.9952170848846436
      ],
      "scale": [
        0.9999998807907104,
        0.9999999403953552,
        0.9999999403953552
      ],
      "translation": [
        -2.3361964225769043,
        -1.6614794731140137e-06,
        1.9744038581848145e-06
      ]
    },
    {
      "children": [
        89,
        93,
        97,
        101,
        105
      ],
      "name": "rightArm1_LoResHand_082",
      "rotation": [
        -2.712477353838949e-08,
        -2.5262126612801694e-08,
        -1.9930305938942183e-07,
        1.0
      ],
      "scale": [
        0.9999998807907104,
        0.9999998211860657,
        1.0
      ],
      "translation": [
        -1.9167468547821045,
        -2.7008354663848877e-06,
        1.210719347000122e-06
      ]
    },
    {
      "children": [
        90
      ],
      "name": "rightFinger1_MetaCarpel_083",
      "rotation": [
        0.1966276615858078,
        -0.028820443898439407,
        0.9780019521713257,
        0.0633980855345726
      ],
      "scale": [
        0.9999992251396179,
        0.9999999403953552,
        0.9999999403953552
      ],
      "translation": [
        -0.2787249684333801,
        -0.022221308201551437,
        0.08405514061450958
      ]
    },
    {
      "children": [
        91
      ],
      "name": "rightFinger1_Joint1_084",
      "rotation": [
        1.3038516932795119e-08,
        1.30385160446167e-08,
        3.958120498026574e-09,
        1.0
      ],
      "scale": [
        1.0,
        0.9999999403953552,
        1.0
      ],
      "translation": [
        0.2547387182712555,
        -3.948807716369629e-07,
        2.980232238769531e-07
      ]
    },
    {
      "children": [
        92
      ],
      "name": "rightFinger1_Joint2_085",
      "rotation": [
        8.381903171539307e-09,
        5.587935447692871e-09,
        2.5727786123752594e-07,
        1.0
      ],
      "translation": [
        0.22086328268051147,
        7.562339305877686e-07,
        5.960464477539063e-08
      ]
    },
    {
      "name": "rightFinger1_Joint3_086",
      "rotation": [
        1.6763804566721774e-08,
        -1.6763806343078613e-08,
        4.889443516731262e-09,
        1.0
      ],
      "scale": [
        1.0,
        1.0,
        1.0000001192092896
      ],
      "translation": [
        0.1456725299358368,
        6.034970283508301e-07,
        3.5762786865234375e-07
      ]
    },
    {
      "children": [
        94
      ],
      "name": "rightFinger2_MetaCarpel_087",
      "rotation": [
        0.06463760882616043,
        -0.08618634194135666,
        0.9941439628601074,
        -0.008479109965264797
      ],
      "scale": [
        0.9999999403953552,
        1.0,
        0.9999985098838806
      ],
      "translation": [
        -0.3090847134590149,
        0.030259404331445694,
        0.048685863614082336
      ]
    },
    {
      "children": [
        95
      ],
      "name": "rightFinger2_Joint1_088",
      "rotation": [
        -9.963291525139084e-09,
        -0.052332803606987,
        -0.017673129215836525,
        0.9984734058380127
      ],
      "scale": [
        0.9999999403953552,
        1.0000001192092896,
        0.9999999403953552
      ],
      "translation": [
        0.25858986377716064,
        -1.3634562492370605e-06,
        8.717179298400879e-07
      ]
    },
    {
      "children": [
        96
      ],
      "name": "rightFinger2_Joint2_089",
      "rotation": [
        2.8040618715863275e-08,
        0.020364709198474884,
        -0.11916273832321167,
        0.9926658868789673
      ],
      "scale": [
        0.9999999403953552,
        1.0000001192092896,
        1.0000001192092896
      ],
      "translation": [
        0.2821394205093384,
        1.823529601097107e-06,
        -7.82310962677002e-08
      ]
    },
    {
      "name": "rightFinger2_Joint3_090",
      "rotation": [
        -9.453187033159338e-08,
        0.003155563725158572,
        0.00542431091889739,
        0.9999803304672241
      ],
      "scale": [
        1.0,
        0.9999999403953552,
        0.9999999403953552
      ],
      "translation": [
        0.17924624681472778,
        -3.986060619354248e-07,
        3.5762786865234375e-07
      ]
    },
    {
      "children": [
        98
      ],
      "name": "rightFinger3_MetaCarpel_091",
      "rotation": [
        0.03172597289085388,
        -0.1019551232457161,
        0.9927424192428589,
        0.05532914027571678
      ],
      "scale": [
        0.9999997019767761,
        0.9999998211860657,
        0.9999995231628418
      ],
      "translation": [
        -0.33028826117515564,
        -0.014148026704788208,
        -0.061186134815216064
      ]
    },
    {
      "children": [
        99
      ],
      "name": "rightFinger3_Joint1_092",
      "rotation": [
        2.14224478156666e-08,
        6.706157762437215e-08,
        -0.01376720517873764,
        0.9999052286148071
      ],
      "scale": [
        0.9999999403953552,
        1.0,
        1.0000001192092896
      ],
      "translation": [
        0.27521318197250366,
        -2.250075340270996e-06,
        2.8312206268310547e-07
      ]
    },
    {
      "children": [
        100
      ],
      "name": "rightFinger3_Joint2_093",
      "rotation": [
        6.054020218471123e-08,
        3.3343678751407424e-07,
        -0.011813756078481674,
        0.999930202960968
      ],
      "scale": [
        0.9999999403953552,
        0.9999999403953552,
        0.9999999403953552
      ],
      "translation": [
        0.28373080492019653,
        2.248212695121765e-06,
        -5.960464477539063e-08
      ]
    },
    {
      "name": "rightFinger3_Joint3_094",
      "rotation": [
        5.053354712458713e-08,
        1.4577879881016997e-07,
        -0.019179238006472588,
        0.9998160600662231
      ],
      "scale": [
        1.0,
        0.9999998807907104,
        1.0
      ],
      "translation": [
        0.17681750655174255,
        -1.0170042514801025e-06,
        -8.940696716308594e-08
      ]
    },
    {
      "children": [
        102
      ],
      "name": "rightFinger4_MetaCarpel_095",
      "rotation": [
        -0.08885875344276428,
        -0.2180425077676773,
        0.9712464213371277,
        0.035244617611169815
      ],
      "scale": [
        0.9999999403953552,
        0.999999463558197,
        0.9999982714653015
      ],
      "translation": [
        -0.32981353998184204,
        0.043505992740392685,
        -0.11334486305713654
      ]
    },
    {
      "children": [
        103
      ],
      "name": "rightFinger4_Joint1_096",
      "rotation": [
        1.872469965746859e-07,
        7.35945775431901e-08,
        0.023353425785899162,
        0.9997273683547974
      ],
      "scale": [
        1.0000001192092896,
        0.9999998807907104,
        1.0
      ],
      "translation": [
        0.2921086549758911,
        -5.960464477539063e-08,
        4.470348358154297e-08
      ]
    },
    {
      "children": [
        104
      ],
      "name": "rightFinger4_Joint2_097",
      "rotation": [
        1.3673384557932877e-07,
        2.669343359684717e-07,
        -0.0656624436378479,
        0.9978418946266174
      ],
      "scale": [
        1.0,
        1.0,
        1.0000001192092896
      ],
      "translation": [
        0.24281807243824005,
        1.6409903764724731e-06,
        1.1995434761047363e-06
      ]
    },
    {
      "name": "rightFinger4_Joint3_098",
      "rotation": [
        -1.0110899495430203e-07,
        -1.56555870489683e-07,
        -0.03458286076784134,
        0.9994019269943237
      ],
      "scale": [
        0.9999999403953552,
        1.0,
        1.0
      ],
      "translation": [
        0.14267416298389435,
        -1.7508864402770996e-06,
        -5.178153514862061e-07
      ]
    },
    {
      "children": [
        106
      ],
      "name": "rightThumb1_Joint1_099",
      "rotation": [
        -0.3541503846645355,
        -0.4414619505405426,
        0.8200179934501648,
        -0.08520182967185974
      ],
      "scale": [
        0.9999999403953552,
        1.0,
        0.9999998211860657
      ],
      "translation": [
        -0.27935177087783813,
        0.1327405869960785,
        -0.2178030014038086
      ]
    },
    {
      "children": [
        107
      ],
      "name": "rightThumb1_Joint2_0100",
      "rotation": [
        -1.5366822481155396e-07,
        8.381903171539307e-09,
        -5.736947059631348e-07,
        1.0
      ],
      "scale": [
        1.0,
        1.0,
        0.9999999403953552
      ],
      "translation": [
        0.24166099727153778,
        2.1606683731079102e-07,
        -7.115304470062256e-07
      ]
    },
    {
      "name": "rightThumb1_Joint3_0101",
      "rotation": [
        -3.725290298461914e-09,
        3.725290076417309e-09,
        4.377215745421381e-08,
        1.0
      ],
      "scale": [
        1.0,
        1.0000001192092896,
        1.0
      ],
      "translation": [
        0.14612990617752075,
        1.4156103134155273e-07,
        2.0489096641540527e-07
      ]
    },
    {
      "children": [
        109
      ],
      "name": "tail1_Joint1_0102",
      "rotation": [
        1.5662083185929987e-08,
        2.193546677631275e-08,
        -0.5810881853103638,
        0.8138406276702881
      ],
      "scale": [
        0.9999999403953552,
        0.9999998807907104,
        1.0
      ],
      "translation": [
        0.634739339351654,
        8.337681770324707,
        -0.0883321538567543
      ]
    },
    {
      "children": [
        110
      ],
      "name": "tail1_Joint2_0103",
      "rotation": [
        2.520823549900797e-09,
        2.6249962203905852e-09,
        -0.04458983987569809,
        0.9990053772926331
      ],
      "scale": [
        0.9999998807907104,
        0.9999999403953552,
        1.0
      ],
      "translation": [
        3.0060105323791504,
        -2.5033950805664063e-06,
        1.4292896821643808e-07
      ]
    },
    {
      "name": "tail1_Joint3_0104",
      "rotation": [
        2.6251770261732574e-15,
        -1.3877787807814457e-15,
        -2.792294982231473e-18,
        1.0
      ],
      "scale": [
        1.0,
        0.9999999403953552,
        1.0
      ],
      "translation": [
        3.005969285964966,
        -9.5367431640625e-07,
        6.380397366001489e-08
      ]
    },
    {
      "children": [
        112
      ],
      "name": "tail2_Joint1_0105",
      "rotation": [
        -4.981467682796392e-08,
        -3.557257244324319e-08,
        -0.8138056397438049,
        0.5811371207237244
      ],
      "translation": [
        -0.6347687244415283,
        8.337940216064453,
        -0.08833272010087967
      ]
    },
    {
      "children": [
        113
      ],
      "name": "tail2_Joint2_0106",
      "rotation": [
        5.806919944895128e-10,
        1.0927602289712013e-07,
        0.04453299939632416,
        0.9990079402923584
      ],
      "scale": [
        0.9999999403953552,
        1.0,
        1.0
      ],
      "translation": [
        3.005995512008667,
        3.5762786865234375e-07,
        1.8484732322576747e-07
      ]
    },
    {
      "name": "tail2_Joint3_0107",
      "rotation": [
        -4.806276700957714e-15,
        -2.5757174171303632e-14,
        -1.3648760521352612e-17,
        1.0
      ],
      "translation": [
        3.005951166152954,
        -2.7418136596679688e-06,
        1.9265863215878198e-07
      ]
    },
    {
      "children": [
        115
      ],
      "name": "tail3_Joint1_0108",
      "rotation": [
        0.034503091126680374,
        0.034503091126680374,
        -0.7062644958496094,
        0.7062644958496094
      ],
      "scale": [
        0.9999999403953552,
        1.0,
        0.9999999403953552
      ],
      "translation": [
        -6.704274824187451e-07,
        7.801285743713379,
        -1.525458574295044
      ]
    },
    {
      "children": [
        116
      ],
      "name": "tail3_Joint2_0109",
      "rotation": [
        4.919022966731745e-09,
        0.09745827317237854,
        4.816896326254039e-10,
        0.9952396154403687
      ],
      "translation": [
        3.014777660369873,
        2.3841860752327193e-07,
        1.1324882507324219e-06
      ]
    },
    {
      "name": "tail3_Joint3_0110",
      "rotation": [
        1.9770208581348925e-08,
        -3.688793081962261e-17,
        -7.90808343253957e-08,
        1.0
      ],
      "translation": [
        3.014871120452881,
        2.384185791015625e-07,
        -1.1920926823449918e-07
      ]
    },
    {
      "matrix": [
        100.30080080032347,
        1.753709817645682e-05,
        3.2682196268723465e-05,
        0.0,
        -1.7537100643893686e-05,
        100.30080080032462,
        7.572498217458348e-06,
        0.0,
        -3.268219494470903e-05,
        -7.572503931779045e-06,
        100.30080080032462,
        0.0,
        -7.590049938237685e-14,
        -4.921904307413863e-14,
        -6.519259798665189e-07,
        1.0
      ],
      "name": "Object_117"
    },
    {
      "mesh": 0,
      "name": "Object_118",
      "skin": 0
    },
    {
      "matrix": [
        100.30080080032347,
        1.753709817645682e-05,
        3.2682196268723465e-05,
        0.0,
        -1.7537100643893686e-05,
        100.30080080032462,
        7.572498217458348e-06,
        0.0,
        -3.268219494470903e-05,
        -7.572503931779045e-06,
        100.30080080032462,
        0.0,
        -7.590049938237685e-14,
        -4.921904307413863e-14,
        -6.519259798665189e-07,
        1.0
      ],
      "name": "Object_119"
    },
    {
      "mesh": 1,
      "name": "Object_120",
      "skin": 0
    },
    {
      "matrix": [
        100.30080080032347,
        1.753709817645682e-05,
        3.2682196268723465e-05,
        0.0,
        -1.7537100643893686e-05,
        100.30080080032462,
        7.572498217458348e-06,
        0.0,
        -3.268219494470903e-05,
        -7.572503931779045e-06,
        100.30080080032462,
        0.0,
        -7.590049938237685e-14,
        -4.921904307413863e-14,
        -6.519259798665189e-07,
        1.0
      ],
      "name": "Object_121"
    },
    {
      "mesh": 2,
      "name": "Object_122",
      "skin": 0
    }
  ],
  "samplers": [
    {
      "magFilter": 9729,
      "minFilter": 9987,
      "wrapS": 10497,
      "wrapT": 10497
    }
  ],
  "scene": 0,
  "scenes": [
    {
      "name": "Sketchfab_Scene",
      "nodes": [
        0
      ]
    }
  ],
  "skins": [
    {
      "inverseBindMatrices": 12,
      "joints": [
        5,
        6,
        7,
        8,
        9,
        10,
        11,
        12,
        13,
        14,
        15,
        16,
        17,
        18,
        19,
        20,
        21,
        22,
        23,
        24,
        25,
        26,
        27,
        28,
        29,
        30,
        31,
        32,
        33,
        34,
        35,
        36,
        37,
        38,
        39,
        40,
        41,
        42,
        43,
        44,
        45,
        46,
        47,
        48,
        49,
        50,
        51,
        52,
        53,
        54,
        55,
        56,
        57,
        58,
        59,
        60,
        61,
        62,
        63,
        64,
        65,
        66,
        67,
        68,
        69,
        70,
        71,
        72,
        73,
        74,
        75,
        76,
        77,
        78,
        79,
        80,
        81,
        82,
        83,
        84,
        85,
        86,
        87,
        88,
        89,
        90,
        91,
        92,
        93,
        94,
        95,
        96,
        97,
        98,
        99,
        100,
        101,
        102,
        103,
        104,
        105,
        106,
        107,
        108,
        109,
        110,
        111,
        112,
        113,
        114,
        115,
        116
      ],
      "skeleton": 5
    }
  ],
  "textures": [
    {
      "sampler": 0,
      "source": 0
    },
    {
      "sampler": 0,
      "source": 1
    },
    {
      "sampler": 0,
      "source": 2
    }
  ]
}
