{
  "accessors": [
    {
      "bufferView": 2,
      "componentType": 5126,
      "count": 65532,
      "max": [
        1.7070626020431519,
        4.580650329589844,
        0.7837324142456055
      ],
      "min": [
        -1.7070626020431519,
        -0.008262859657406807,
        -0.8667415976524353
      ],
      "type": "VEC3"
    },
    {
      "bufferView": 2,
      "byteOffset": 786384,
      "componentType": 5126,
      "count": 65532,
      "max": [
        0.9999991655349731,
        0.9999758005142212,
        1.0
      ],
      "min": [
        -0.9999991655349731,
        -0.9999719262123108,
        -0.9999966621398926
      ],
      "type": "VEC3"
    },
    {
      "bufferView": 3,
      "componentType": 5126,
      "count": 65532,
      "max": [
        0.9999969601631165,
        0.9999995231628418,
        1.0,
        1.0
      ],
      "min": [
        -0.9999924898147583,
        -0.9999958872795105,
        -1.0,
        -1.0
      ],
      "type": "VEC4"
    },
    {
      "bufferView": 1,
      "componentType": 5126,
      "count": 65532,
      "max": [
        0.9925000071525574,
        0.9965500235557556
      ],
      "min": [
        0.005733999889343977,
        0.005949974060058594
      ],
      "type": "VEC2"
    },
    {
      "bufferView": 1,
      "byteOffset": 524256,
      "componentType": 5126,
      "count": 65532,
      "max": [
        0.9925000071525574,
        0.9965500235557556
      ],
      "min": [
        0.005733999889343977,
        0.005949974060058594
      ],
      "type": "VEC2"
    },
    {
      "bufferView": 1,
      "byteOffset": 1048512,
      "componentType": 5126,
      "count": 65532,
      "max": [
        0.9925000071525574,
        0.9965500235557556
      ],
      "min": [
        0.005733999889343977,
        0.005949974060058594
      ],
      "type": "VEC2"
    },
    {
      "bufferView": 1,
      "byteOffset": 1572768,
      "componentType": 5126,
      "count": 65532,
      "max": [
        0.9925000071525574,
        0.9965500235557556
      ],
      "min": [
        0.005733999889343977,
        0.005949974060058594
      ],
      "type": "VEC2"
    },
    {
      "bufferView": 1,
      "byteOffset": 2097024,
      "componentType": 5126,
      "count": 65532,
      "max": [
        0.9925000071525574,
        0.9965500235557556
      ],
      "min": [
        0.005733999889343977,
        0.005949974060058594
      ],
      "type": "VEC2"
    },
    {
      "bufferView": 0,
      "componentType": 5125,
      "count": 209271,
      "type": "SCALAR"
    },
    {
      "bufferView": 2,
      "byteOffset": 1572768,
      "componentType": 5126,
      "count": 7762,
      "max": [
        1.5886762142181396,
        4.039361476898193,
        0.8472252488136292
      ],
      "min": [
        -1.5887140035629272,
        -0.008262859657406807,
        -0.8695316314697266
      ],
      "type": "VEC3"
    },
    {
      "bufferView": 2,
      "byteOffset": 1665912,
      "componentType": 5126,
      "count": 7762,
      "max": [
        0.9998460412025452,
        0.9999853372573853,
        0.9999865293502808
      ],
      "min": [
        -0.9997680187225342,
        -0.9998205900192261,
        -0.999673068523407
      ],
      "type": "VEC3"
    },
    {
      "bufferView": 3,
      "byteOffset": 1048512,
      "componentType": 5126,
      "count": 7762,
      "max": [
        0.9999990463256836,
        0.9999979138374329,
        0.9999526739120483,
        1.0
      ],
      "min": [
        -1.0,
        -0.9996780753135681,
        -0.9998982548713684,
        -1.0
      ],
      "type": "VEC4"
    },
    {
      "bufferView": 1,
      "byteOffset": 2621280,
      "componentType": 5126,
      "count": 7762,
      "max": [
        0.8763099908828735,
        0.9054889678955078
      ],
      "min": [
        0.006750000175088644,
        0.047569990158081055
      ],
      "type": "VEC2"
    },
    {
      "bufferView": 1,
      "byteOffset": 2683376,
      "componentType": 5126,
      "count": 7762,
      "max": [
        0.8763099908828735,
        0.9054889678955078
      ],
      "min": [
        0.006750000175088644,
        0.047569990158081055
      ],
      "type": "VEC2"
    },
    {
      "bufferView": 1,
      "byteOffset": 2745472,
      "componentType": 5126,
      "count": 7762,
      "max": [
        0.8763099908828735,
        0.9054889678955078
      ],
      "min": [
        0.006750000175088644,
        0.047569990158081055
      ],
      "type": "VEC2"
    },
    {
      "bufferView": 1,
      "byteOffset": 2807568,
      "componentType": 5126,
      "count": 7762,
      "max": [
        0.8763099908828735,
        0.9054889678955078
      ],
      "min": [
        0.006750000175088644,
        0.047569990158081055
      ],
      "type": "VEC2"
    },
    {
      "bufferView": 1,
      "byteOffset": 2869664,
      "componentType": 5126,
      "count": 7762,
      "max": [
        0.8763099908828735,
        0.9054889678955078
      ],
      "min": [
        0.006750000175088644,
        0.047569990158081055
      ],
      "type": "VEC2"
    },
    {
      "bufferView": 0,
      "byteOffset": 837084,
      "componentType": 5125,
      "count": 36222,
      "type": "SCALAR"
    }
  ],
  "asset": {
    "extras": {
      "author": "reclafjulian-the-3D (https://sketchfab.com/reclafjulian-the-3D)",
      "license": "CC-BY-4.0 (http://creativecommons.org/licenses/by/4.0/)",
      "source": "https://sketchfab.com/3d-models/large-troll-request-for-flilip-11bb5aa088754a2e8456801c4d4e1083",
      "title": "Large Troll (request for flilip)"
    },
    "generator": "Sketchfab-16.53.0",
    "version": "2.0"
  },
  "bufferViews": [
    {
      "buffer": 0,
      "byteLength": 981972,
      "name": "floatBufferViews",
      "target": 34963
    },
    {
      "buffer": 0,
      "byteLength": 2931760,
      "byteOffset": 981972,
      "byteStride": 8,
      "name": "floatBufferViews",
      "target": 34962
    },
    {
      "buffer": 0,
      "byteLength": 1759056,
      "byteOffset": 3913732,
      "byteStride": 12,
      "name": "floatBufferViews",
      "target": 34962
    },
    {
      "buffer": 0,
      "byteLength": 1172704,
      "byteOffset": 5672788,
      "byteStride": 16,
      "name": "floatBufferViews",
      "target": 34962
    }
  ],
  "buffers": [
    {
      "byteLength": 6845492,
      "uri": "scene.bin"
    }
  ],
  "extensionsRequired": [
    "KHR_materials_pbrSpecularGlossiness"
  ],
  "extensionsUsed": [
    "KHR_materials_pbrSpecularGlossiness"
  ],
  "images": [
    {
      "uri": "textures/material_0_diffuse.png"
    },
    {
      "uri": "textures/material_0_specularGlossiness.png"
    },
    {
      "uri": "textures/material_0_normal.png"
    },
    {
      "uri": "textures/material_0_occlusion.png"
    }
  ],
  "materials": [
    {
      "doubleSided": true,
      "extensions": {
        "KHR_materials_pbrSpecularGlossiness": {
          "diffuseFactor": [
            1.0,
            1.0,
            1.0,
            1.0
          ],
          "diffuseTexture": {
            "index": 0
          },
          "glossinessFactor": 1.0,
          "specularFactor": [
            1.0,
            1.0,
            1.0
          ],
          "specularGlossinessTexture": {
            "index": 1,
            "texCoord": 1
          }
        }
      },
      "name": "material_0",
      "normalTexture": {
        "index": 2,
        "texCoord": 2
      },
      "occlusionTexture": {
        "index": 3,
        "texCoord": 3
      }
    }
  ],
  "meshes": [
    {
      "name": "Object_0",
      "primitives": [
        {
          "attributes": {
            "NORMAL": 1,
            "POSITION": 0,
            "TANGENT": 2,
            "TEXCOORD_0": 3,
            "TEXCOORD_1": 4,
            "TEXCOORD_2": 5,
            "TEXCOORD_3": 6,
            "TEXCOORD_4": 7
          },
          "indices": 8,
          "material": 0,
          "mode": 4
        }
      ]
    },
    {
      "name": "Object_1",
      "primitives": [
        {
          "attributes": {
            "NORMAL": 10,
            "POSITION": 9,
            "TANGENT": 11,
            "TEXCOORD_0": 12,
            "TEXCOORD_1": 13,
            "TEXCOORD_2": 14,
            "TEXCOORD_3": 15,
            "TEXCOORD_4": 16
          },
          "indices": 17,
          "material": 0,
          "mode": 4
        }
      ]
    }
  ],
  "nodes": [
    {
      "children": [
        1
      ],
      "matrix": [
        1.0,
        0.0,
        0.0,
        0.0,
        0.0,
        2.220446049250313e-16,
        -1.0,
        0.0,
        0.0,
        1.0,
        2.220446049250313e-16,
        0.0,
        0.0,
        0.0,
        0.0,
        1.0
      ],
      "name": "Sketchfab_model"
    },
    {
      "children": [
        2
      ],
      "name": "root"
    },
    {
      "children": [
        3
      ],
      "matrix": [
        1.0,
        0.0,
        0.0,
        0.0,
        0.0,
        2.220446049250313e-16,
        1.0,
        0.0,
        0.0,
        -1.0,
        2.220446049250313e-16,
        0.0,
        0.0,
        0.0,
        0.0,
        1.0
      ],
      "name": "GLTF_SceneRootNode"
    },
    {
      "children": [
        4
      ],
      "matrix": [
        0.009999999776482582,
        0.0,
        0.0,
        0.0,
        0.0,
        0.009999999776482582,
        0.0,
        0.0,
        0.0,
        0.0,
        0.009999999776482582,
        0.0,
        0.0,
        0.0,
        0.0,
        1.0
      ],
      "name": "RootNode.0_0"
    },
    {
      "children": [
        5,
        6
      ],
      "name": "troll_2.1_1"
    },
    {
      "mesh": 0,
      "name": "Object_5"
    },
    {
      "mesh": 1,
      "name": "Object_6"
    }
  ],
  "samplers": [
    {
      "magFilter": 9729,
      "minFilter": 9987,
      "wrapS": 10497,
      "wrapT": 10497
    }
  ],
  "scene": 0,
  "scenes": [
    {
      "name": "Sketchfab_Scene",
      "nodes": [
        0
      ]
    }
  ],
  "textures": [
    {
      "sampler": 0,
      "source": 0
    },
    {
      "sampler": 0,
      "source": 1
    },
    {
      "sampler": 0,
      "source": 2
    },
    {
      "sampler": 0,
      "source": 3
    }
  ]
}
