{
  "accessors": [
    {
      "bufferView": 2,
      "componentType": 5126,
      "count": 369,
      "max": [
        3.96372652053833,
        3.3289425373077393,
        0.28167062997817993
      ],
      "min": [
        -3.1273744106292725,
        -3.677901268005371,
        -0.04475589096546173
      ],
      "type": "VEC3"
    },
    {
      "bufferView": 2,
      "byteOffset": 4428,
      "componentType": 5126,
      "count": 369,
      "max": [
        0.7710394859313965,
        0.8188195824623108,
        0.9999998807907104
      ],
      "min": [
        -0.805372416973114,
        -0.7897148132324219,
        -0.9999986886978149
      ],
      "type": "VEC3"
    },
    {
      "bufferView": 1,
      "componentType": 5126,
      "count": 369,
      "max": [
        0.9391686320304871,
        0.9733492136001587
      ],
      "min": [
        0.0682971179485321,
        0.009557396173477173
      ],
      "type": "VEC2"
    },
    {
      "bufferView": 0,
      "componentType": 5125,
      "count": 1296,
      "type": "SCALAR"
    },
    {
      "bufferView": 2,
      "byteOffset": 8856,
      "componentType": 5126,
      "count": 349,
      "max": [
        3.3087217807769775,
        1.745739459991455,
        21.925479888916016
      ],
      "min": [
        -1.528377652168274,
        -3.9172942638397217,
        18.040666580200195
      ],
      "type": "VEC3"
    },
    {
      "bufferView": 2,
      "byteOffset": 13044,
      "componentType": 5126,
      "count": 349,
      "max": [
        0.9839392900466919,
        0.959709882736206,
        0.9997658729553223
      ],
      "min": [
        -0.9996542930603027,
        -0.9834367036819458,
        -0.9546219706535339
      ],
      "type": "VEC3"
    },
    {
      "bufferView": 1,
      "byteOffset": 2952,
      "componentType": 5126,
      "count": 349,
      "max": [
        0.9837175607681274,
        0.9815548062324524
      ],
      "min": [
        0.015400370582938194,
        0.0038419412449002266
      ],
      "type": "VEC2"
    },
    {
      "bufferView": 0,
      "byteOffset": 5184,
      "componentType": 5125,
      "count": 1170,
      "type": "SCALAR"
    },
    {
      "bufferView": 2,
      "byteOffset": 17232,
      "componentType": 5126,
      "count": 1764,
      "max": [
        2.2431159019470215,
        2.8036441802978516,
        22.74261474609375
      ],
      "min": [
        -1.5991636514663696,
        -2.334456205368042,
        15.45274829864502
      ],
      "type": "VEC3"
    },
    {
      "bufferView": 2,
      "byteOffset": 38400,
      "componentType": 5126,
      "count": 1764,
      "max": [
        0.9999209642410278,
        0.9998596906661987,
        1.0
      ],
      "min": [
        -0.9999209642410278,
        -0.9998596906661987,
        -1.0
      ],
      "type": "VEC3"
    },
    {
      "bufferView": 1,
      "byteOffset": 5744,
      "componentType": 5126,
      "count": 1764,
      "max": [
        0.9932596683502197,
        0.9937968254089355
      ],
      "min": [
        0.004441305994987488,
        0.005508404690772295
      ],
      "type": "VEC2"
    },
    {
      "bufferView": 0,
      "byteOffset": 9864,
      "componentType": 5125,
      "count": 6246,
      "type": "SCALAR"
    }
  ],
  "asset": {
    "extras": {
      "author": "MarcRojas (https://sketchfab.com/MarcRojas)",
      "license": "CC-BY-4.0 (http://creativecommons.org/licenses/by/4.0/)",
      "source": "https://sketchfab.com/3d-models/animal-crossing-x-dead-cells-villager-d470c8d7ccd34973bffb97265a384b4b",
      "title": "Animal Crossing x Dead Cells (villager)"
    },
    "generator": "Sketchfab-13.32.0",
    "version": "2.0"
  },
  "bufferViews": [
    {
      "buffer": 0,
      "byteLength": 34848,
      "name": "floatBufferViews",
      "target": 34963
    },
    {
      "buffer": 0,
      "byteLength": 19856,
      "byteOffset": 34848,
      "byteStride": 8,
      "name": "floatBufferViews",
      "target": 34962
    },
    {
      "buffer": 0,
      "byteLength": 59568,
      "byteOffset": 54704,
      "byteStride": 12,
      "name": "floatBufferViews",
      "target": 34962
    }
  ],
  "buffers": [
    {
      "byteLength": 114272,
      "uri": "scene.bin"
    }
  ],
  "extensionsUsed": [
    "KHR_materials_unlit"
  ],
  "images": [
    {
      "uri": "textures/Material.002_baseColor.png"
    },
    {
      "uri": "textures/Material.001_baseColor.png"
    },
    {
      "uri": "textures/Material.003_baseColor.png"
    }
  ],
  "materials": [
    {
      "doubleSided": true,
      "extensions": {
        "KHR_materials_unlit": {}
      },
      "name": "Material.002",
      "pbrMetallicRoughness": {
        "baseColorTexture": {
          "index": 0
        },
        "metallicFactor": 0.0
      }
    },
    {
      "alphaMode": "BLEND",
      "doubleSided": true,
      "extensions": {
        "KHR_materials_unlit": {}
      },
      "name": "Material.001",
      "pbrMetallicRoughness": {
        "baseColorTexture": {
          "index": 1
        },
        "metallicFactor": 0.0
      }
    },
    {
      "doubleSided": true,
      "extensions": {
        "KHR_materials_unlit": {}
      },
      "name": "Material.003",
      "pbrMetallicRoughness": {
        "baseColorTexture": {
          "index": 2
        },
        "metallicFactor": 0.0
      }
    }
  ],
  "meshes": [
    {
      "name": "terra_Material.002_0",
      "primitives": [
        {
          "attributes": {
            "NORMAL": 1,
            "POSITION": 0,
            "TEXCOORD_0": 2
          },
          "indices": 3,
          "material": 0,
          "mode": 4
        }
      ]
    },
    {
      "name": "espasabufanda_Material.001_0",
      "primitives": [
        {
          "attributes": {
            "NORMAL": 5,
            "POSITION": 4,
            "TEXCOORD_0": 6
          },
          "indices": 7,
          "material": 1,
          "mode": 4
        }
      ]
    },
    {
      "name": "cos_Material.003_0",
      "primitives": [
        {
          "attributes": {
            "NORMAL": 9,
            "POSITION": 8,
            "TEXCOORD_0": 10
          },
          "indices": 11,
          "material": 2,
          "mode": 4
        }
      ]
    }
  ],
  "nodes": [
    {
      "children": [
        1
      ],
      "matrix": [
        0.0034413354005664587,
        0.0,
        0.0,
        0.0,
        0.0,
        7.641299594333037e-19,
        -0.0034413354005664587,
        0.0,
        0.0,
        0.0034413354005664587,
        7.641299594333037e-19,
        0.0,
        0.0,
        0.0,
        0.0,
        1.0
      ],
      "name": "Sketchfab_model"
    },
    {
      "children": [
        2
      ],
      "matrix": [
        1.0,
        0.0,
        0.0,
        0.0,
        0.0,
        0.0,
        1.0,
        0.0,
        0.0,
        -1.0,
        0.0,
        0.0,
        0.0,
        0.0,
        0.0,
        1.0
      ],
      "name": "01f201735d65456aba35c3ceeee858b3.fbx"
    },
    {
      "children": [
        3,
        5,
        7
      ],
      "name": "RootNode"
    },
    {
      "children": [
        4
      ],
      "matrix": [
        100.0,
        0.0,
        0.0,
        0.0,
        -0.0,
        -1.629206793918314e-05,
        -99.99999999999868,
        0.0,
        0.0,
        99.99999999999868,
        -1.629206793918314e-05,
        0.0,
        -15.868345260620117,
        -26.789140701293945,
        0.375385582447052,
        1.0
      ],
      "name": "terra"
    },
    {
      "mesh": 0,
      "name": "terra_Material.002_0"
    },
    {
      "children": [
        6
      ],
      "matrix": [
        100.0,
        0.0,
        0.0,
        0.0,
        0.0,
        -1.629206793918314e-05,
        -99.99999999999868,
        0.0,
        0.0,
        99.99999999999868,
        -1.629206793918314e-05,
        0.0,
        0.0,
        -1568.4332275390625,
        0.0,
        1.0
      ],
      "name": "espasabufanda"
    },
    {
      "mesh": 1,
      "name": "espasabufanda_Material.001_0"
    },
    {
      "children": [
        8
      ],
      "matrix": [
        100.0,
        0.0,
        0.0,
        0.0,
        0.0,
        -1.629206793918314e-05,
        -99.99999999999868,
        0.0,
        0.0,
        99.99999999999868,
        -1.629206793918314e-05,
        0.0,
        0.0,
        -1568.4332275390625,
        0.0,
        1.0
      ],
      "name": "cos"
    },
    {
      "mesh": 2,
      "name": "cos_Material.003_0"
    }
  ],
  "samplers": [
    {
      "magFilter": 9729,
      "minFilter": 9987,
      "wrapS": 10497,
      "wrapT": 10497
    }
  ],
  "scene": 0,
  "scenes": [
    {
      "name": "Sketchfab_Scene",
      "nodes": [
        0
      ]
    }
  ],
  "textures": [
    {
      "sampler": 0,
      "source": 0
    },
    {
      "sampler": 0,
      "source": 1
    },
    {
      "sampler": 0,
      "source": 2
    }
  ]
}
