{
  "accessors": [
    {
      "bufferView": 3,
      "componentType": 5126,
      "count": 1683,
      "max": [
        0.23601499199867249,
        0.9857906103134155,
        0.19547559320926666
      ],
      "min": [
        -0.2554953992366791,
        0.2325810343027115,
        -0.3818695843219757
      ],
      "type": "VEC3"
    },
    {
      "bufferView": 3,
      "byteOffset": 20196,
      "componentType": 5126,
      "count": 1683,
      "max": [
        0.9999904632568359,
        0.9999545216560364,
        0.9999228119850159
      ],
      "min": [
        -0.9999310374259949,
        -0.9999904036521912,
        -0.9984433054924011
      ],
      "type": "VEC3"
    },
    {
      "bufferView": 2,
      "componentType": 5126,
      "count": 1683,
      "max": [
        0.9886736273765564,
        0.9915882349014282
      ],
      "min": [
        0.007415891159325838,
        0.0035297218710184097
      ],
      "type": "VEC2"
    },
    {
      "bufferView": 1,
      "componentType": 5125,
      "count": 5997,
      "type": "SCALAR"
    },
    {
      "bufferView": 3,
      "byteOffset": 40392,
      "componentType": 5126,
      "count": 2415,
      "max": [
        0.3461624085903168,
        0.717809796333313,
        0.1963103711605072
      ],
      "min": [
        -0.34617188572883606,
        -0.0010908977128565311,
        -0.1915428787469864
      ],
      "type": "VEC3"
    },
    {
      "bufferView": 3,
      "byteOffset": 69372,
      "componentType": 5126,
      "count": 2415,
      "max": [
        0.9999905824661255,
        0.9999545216560364,
        0.9997996687889099
      ],
      "min": [
        -0.9999548196792603,
        -0.9999906420707703,
        -0.9977666735649109
      ],
      "type": "VEC3"
    },
    {
      "bufferView": 2,
      "byteOffset": 13464,
      "componentType": 5126,
      "count": 2415,
      "max": [
        0.9945029020309448,
        0.9974175095558167
      ],
      "min": [
        0.006444348953664303,
        0.0035297218710184097
      ],
      "type": "VEC2"
    },
    {
      "bufferView": 1,
      "byteOffset": 23988,
      "componentType": 5125,
      "count": 10848,
      "type": "SCALAR"
    },
    {
      "bufferView": 5,
      "componentType": 5126,
      "count": 84,
      "max": [
        232.99163818359375,
        0.8451321721076965,
        1.0000001192092896,
        0.0,
        1.0000001192092896,
        232.99163818359375,
        0.9997764825820923,
        0.0,
        0.9970635175704956,
        1.000000238418579,
        232.99163818359375,
        0.0,
        0.5770353674888611,
        0.541042685508728,
        0.44087260961532593,
        1.0
      ],
      "min": [
        -0.9995144605636597,
        -0.21918229758739471,
        -0.998471736907959,
        0.0,
        -1.000000238418579,
        -0.9982964396476746,
        -0.9997766017913818,
        0.0,
        -0.9444717168807983,
        -1.0000001192092896,
        -0.872394859790802,
        0.0,
        -0.7707904577255249,
        -0.5233718156814575,
        -0.4408726990222931,
        1.0
      ],
      "type": "MAT4"
    },
    {
      "bufferView": 0,
      "componentType": 5123,
      "count": 1683,
      "type": "VEC4"
    },
    {
      "bufferView": 4,
      "componentType": 5126,
      "count": 1683,
      "max": [
        1.0,
        0.4838709533214569,
        0.3225806653499603,
        0.16129033267498016
      ],
      "min": [
        0.35483869910240173,
        0.0,
        0.0,
        0.0
      ],
      "type": "VEC4"
    },
    {
      "bufferView": 0,
      "byteOffset": 13464,
      "componentType": 5123,
      "count": 2415,
      "type": "VEC4"
    },
    {
      "bufferView": 4,
      "byteOffset": 26928,
      "componentType": 5126,
      "count": 2415,
      "max": [
        1.0,
        0.4838709533214569,
        0.3225806653499603,
        0.22580644488334656
      ],
      "min": [
        0.25806450843811035,
        0.0,
        0.0,
        0.0
      ],
      "type": "VEC4"
    }
  ],
  "asset": {
    "extras": {
      "author": "Samgy (https://sketchfab.com/samgy)",
      "license": "CC-BY-4.0 (http://creativecommons.org/licenses/by/4.0/)",
      "source": "https://sketchfab.com/3d-models/barb-trolls-pop-8fce2bd1118545919a42455fbd1e4871",
      "title": "Barb (Trolls Pop)"
    },
    "generator": "Sketchfab-16.62.0",
    "version": "2.0"
  },
  "bufferViews": [
    {
      "buffer": 0,
      "byteLength": 32784,
      "byteStride": 8,
      "name": "shortBufferViews",
      "target": 34962
    },
    {
      "buffer": 0,
      "byteLength": 67380,
      "byteOffset": 32784,
      "name": "floatBufferViews",
      "target": 34963
    },
    {
      "buffer": 0,
      "byteLength": 32784,
      "byteOffset": 100164,
      "byteStride": 8,
      "name": "floatBufferViews",
      "target": 34962
    },
    {
      "buffer": 0,
      "byteLength": 98352,
      "byteOffset": 132948,
      "byteStride": 12,
      "name": "floatBufferViews",
      "target": 34962
    },
    {
      "buffer": 0,
      "byteLength": 65568,
      "byteOffset": 231300,
      "byteStride": 16,
      "name": "floatBufferViews",
      "target": 34962
    },
    {
      "buffer": 0,
      "byteLength": 5376,
      "byteOffset": 296868,
      "name": "floatBufferViews"
    }
  ],
  "buffers": [
    {
      "byteLength": 302244,
      "uri": "scene.bin"
    }
  ],
  "extensionsUsed": [
    "KHR_materials_specular"
  ],
  "images": [
    {
      "uri": "textures/troll_mat_rocker_barb_costume_hair_baseColor.png"
    },
    {
      "uri": "textures/troll_mat_rocker_barb_body_baseColor.png"
    }
  ],
  "materials": [
    {
      "doubleSided": true,
      "extensions": {
        "KHR_materials_specular": {
          "specularColorFactor": [
            1.0,
            1.0,
            1.0
          ],
          "specularFactor": 1.0
        }
      },
      "name": "troll_mat_rocker_barb_costume_hair",
      "pbrMetallicRoughness": {
        "baseColorTexture": {
          "index": 0
        },
        "metallicFactor": 0.0
      }
    },
    {
      "doubleSided": true,
      "extensions": {
        "KHR_materials_specular": {
          "specularColorFactor": [
            1.0,
            1.0,
            1.0
          ],
          "specularFactor": 1.0
        }
      },
      "name": "troll_mat_rocker_barb_body",
      "pbrMetallicRoughness": {
        "baseColorTexture": {
          "index": 1
        },
        "metallicFactor": 0.0
      }
    }
  ],
  "meshes": [
    {
      "name": "troll_barb_geo_troll_mat_rocker_barb_costume_hair_0",
      "primitives": [
        {
          "attributes": {
            "JOINTS_0": 9,
            "NORMAL": 1,
            "POSITION": 0,
            "TEXCOORD_0": 2,
            "WEIGHTS_0": 10
          },
          "indices": 3,
          "material": 0,
          "mode": 4
        }
      ]
    },
    {
      "name": "troll_barb_geo_troll_mat_rocker_barb_body_0",
      "primitives": [
        {
          "attributes": {
            "JOINTS_0": 11,
            "NORMAL": 5,
            "POSITION": 4,
            "TEXCOORD_0": 6,
            "WEIGHTS_0": 12
          },
          "indices": 7,
          "material": 1,
          "mode": 4
        }
      ]
    }
  ],
  "nodes": [
    {
      "children": [
        1
      ],
      "matrix": [
        1.0,
        0.0,
        0.0,
        0.0,
        0.0,
        2.220446049250313e-16,
        -1.0,
        0.0,
        0.0,
        1.0,
        2.220446049250313e-16,
        0.0,
        0.0,
        0.0,
        0.0,
        1.0
      ],
      "name": "Sketchfab_model"
    },
    {
      "children": [
        2
      ],
      "matrix": [
        0.009999999776482582,
        0.0,
        0.0,
        0.0,
        0.0,
        0.0,
        0.009999999776482582,
        0.0,
        0.0,
        -0.009999999776482582,
        0.0,
        0.0,
        0.0,
        0.0,
        0.0,
        1.0
      ],
      "name": "4e8a0d2194b74cf99362247b5e334a21.fbx"
    },
    {
      "children": [
        3
      ],
      "name": "RootNode"
    },
    {
      "children": [
        4
      ],
      "matrix": [
        232.99160766601563,
        0.0,
        0.0,
        0.0,
        0.0,
        232.99160766601494,
        -1.759037739091956e-05,
        0.0,
        0.0,
        1.759037739091956e-05,
        232.99160766601494,
        0.0,
        0.0,
        0.0,
        0.0,
        1.0
      ],
      "name": "Armature.001"
    },
    {
      "children": [
        5,
        90,
        91,
        89
      ],
      "name": "Object_4"
    },
    {
      "children": [
        6
      ],
      "name": "_rootJoint"
    },
    {
      "children": [
        7
      ],
      "name": "Barb_Prefab_01",
      "rotation": [
        6.617444900424222e-24,
        0.0,
        0.0,
        1.0
      ]
    },
    {
      "children": [
        8,
        13,
        18
      ],
      "name": "Root_M_02",
      "rotation": [
        0.4999999701976776,
        0.5000000596046448,
        0.5000000596046448,
        0.4999999403953552
      ],
      "scale": [
        1.0,
        0.9999999403953552,
        1.0
      ],
      "translation": [
        7.965148765760943e-18,
        0.2873747944831848,
        -4.44088455461344e-18
      ]
    },
    {
      "children": [
        9
      ],
      "name": "Hip_L_03",
      "rotation": [
        0.9990296363830566,
        -0.02212679013609886,
        -0.030617425218224525,
        -0.022644586861133575
      ],
      "scale": [
        1.0000020265579224,
        1.0,
        1.0000017881393433
      ],
      "translation": [
        -0.005569580011069775,
        0.0027850375045090914,
        0.03390507027506828
      ]
    },
    {
      "children": [
        10
      ],
      "name": "Knee_L_04",
      "rotation": [
        -1.801565190362453e-07,
        7.308842242537139e-08,
        -0.05123913288116455,
        0.9986864328384399
      ],
      "scale": [
        0.9999999403953552,
        1.0000001192092896,
        0.9999999403953552
      ],
      "translation": [
        -0.12790966033935547,
        7.59027898311615e-08,
        5.061738193035126e-07
      ]
    },
    {
      "children": [
        11
      ],
      "name": "Ankle_L_05",
      "rotation": [
        0.022349853068590164,
        0.03073851205408573,
        0.02769048698246479,
        0.9988937973976135
      ],
      "scale": [
        1.0000001192092896,
        0.9999999403953552,
        1.0
      ],
      "translation": [
        -0.09500535577535629,
        3.585591912269592e-08,
        3.533568815328181e-07
      ]
    },
    {
      "children": [
        12
      ],
      "name": "Toes_L_06",
      "rotation": [
        -0.02182305045425892,
        0.0045799026265740395,
        0.5813985466957092,
        0.8133133053779602
      ],
      "scale": [
        1.0,
        1.0,
        1.0000001192092896
      ],
      "translation": [
        -0.03546120226383209,
        -0.029161470010876656,
        1.4014472071721684e-07
      ]
    },
    {
      "name": "Toes_L_end_055",
      "rotation": [
        -1.734723475976807e-18,
        4.81482486096809e-35,
        -2.7755575615628914e-17,
        1.0
      ],
      "translation": [
        0.0,
        0.04591182619333267,
        0.0
      ]
    },
    {
      "children": [
        14
      ],
      "name": "Hip_R_07",
      "rotation": [
        0.02212672121822834,
        0.9990296363830566,
        -0.02264467440545559,
        0.03061656840145588
      ],
      "scale": [
        0.9999999403953552,
        1.0000001192092896,
        0.9999998211860657
      ],
      "translation": [
        -0.005569574423134327,
        0.002785037737339735,
        -0.03390507027506828
      ]
    },
    {
      "children": [
        15
      ],
      "name": "Knee_R_08",
      "rotation": [
        1.3988220581850896e-09,
        1.199489503278528e-07,
        -0.051239244639873505,
        0.9986864328384399
      ],
      "scale": [
        0.9999997615814209,
        1.0,
        0.9999998807907104
      ],
      "translation": [
        0.12790995836257935,
        3.8533471524715424e-08,
        -4.298635758459568e-08
      ]
    },
    {
      "children": [
        16
      ],
      "name": "Ankle_R_09",
      "rotation": [
        0.022349774837493896,
        0.03073860891163349,
        0.027690574526786804,
        0.9988937973976135
      ],
      "scale": [
        0.9999999403953552,
        0.9999998211860657,
        0.9999998807907104
      ],
      "translation": [
        0.09500554949045181,
        1.1525116860866547e-08,
        3.1650415621697903e-09
      ]
    },
    {
      "children": [
        17
      ],
      "name": "Toes_R_010",
      "rotation": [
        -0.02182466723024845,
        0.004578901454806328,
        0.5813987851142883,
        0.8133130669593811
      ],
      "scale": [
        1.000000238418579,
        1.0000001192092896,
        1.0
      ],
      "translation": [
        0.03546128049492836,
        0.029161486774683,
        4.564777000837239e-09
      ]
    },
    {
      "name": "Toes_R_end_056",
      "rotation": [
        -1.925929944387236e-34,
        -3.469446951953614e-18,
        -5.551115123125783e-17,
        1.0
      ],
      "translation": [
        0.0,
        0.04591180756688118,
        0.0
      ]
    },
    {
      "children": [
        19
      ],
      "name": "Spine1_M_011",
      "rotation": [
        0.0,
        2.48938011738554e-23,
        -2.812414082680294e-23,
        1.0
      ],
      "translation": [
        0.02578836679458618,
        -3.725290298461914e-09,
        1.1272464073286415e-09
      ]
    },
    {
      "children": [
        20,
        32,
        44
      ],
      "name": "Chest_M_012",
      "rotation": [
        9.926167350636332e-24,
        1.1658910584146052e-23,
        -2.812414082680294e-23,
        1.0
      ],
      "translation": [
        0.049079179763793945,
        1.1088250232154929e-16,
        2.145322142155237e-09
      ]
    },
    {
      "children": [
        21
      ],
      "name": "Clavicle_L_013",
      "rotation": [
        0.7197151184082031,
        0.006799186114221811,
        -0.6942004561424255,
        0.007049089763313532
      ],
      "scale": [
        1.000000238418579,
        1.0000001192092896,
        0.9999999403953552
      ],
      "translation": [
        0.03353184461593628,
        -0.0061576697044074535,
        0.013009736314415932
      ]
    },
    {
      "children": [
        22
      ],
      "name": "Shoulder_L_014",
      "rotation": [
        0.0881042554974556,
        -0.01626777835190296,
        -0.04291728511452675,
        0.9950532913208008
      ],
      "scale": [
        0.9999999403953552,
        0.9999998211860657,
        1.0000001192092896
      ],
      "translation": [
        -0.05845404788851738,
        9.85528458841145e-09,
        3.14321368932724e-09
      ]
    },
    {
      "children": [
        23
      ],
      "name": "Elbow_L_015",
      "rotation": [
        1.6008496572794684e-07,
        -6.565191057461561e-08,
        0.0829913541674614,
        0.9965502619743347
      ],
      "scale": [
        0.9999998211860657,
        0.9999995827674866,
        0.9999998211860657
      ],
      "translation": [
        -0.07557297497987747,
        1.30385160446167e-08,
        -2.6193447411060333e-09
      ]
    },
    {
      "children": [
        24,
        26,
        28,
        30
      ],
      "name": "Wrist_L_016",
      "rotation": [
        -0.07822426408529282,
        -0.004459693096578121,
        -0.026414694264531136,
        0.9965758323669434
      ],
      "scale": [
        1.000000238418579,
        1.0000001192092896,
        0.9999998211860657
      ],
      "translation": [
        -0.07025068253278732,
        -2.7008354663848877e-08,
        -3.003515303134918e-08
      ]
    },
    {
      "children": [
        25
      ],
      "name": "IndexFinger1_L_017",
      "rotation": [
        0.0015961792087182403,
        0.09597738832235336,
        0.012021793983876705,
        0.9953096508979797
      ],
      "scale": [
        0.9999999403953552,
        0.9999998807907104,
        0.9999999403953552
      ],
      "translation": [
        -0.06482956558465958,
        -0.035919394344091415,
        -0.0033651094418019056
      ]
    },
    {
      "name": "IndexFinger1_L_end_057",
      "rotation": [
        2.134697741093274e-35,
        -3.076423664427619e-18,
        6.938893903907228e-18,
        1.0
      ],
      "translation": [
        0.0,
        0.06677336990833282,
        0.0
      ]
    },
    {
      "children": [
        27
      ],
      "name": "MiddleFinger1_L_018",
      "rotation": [
        -0.00013493884762283415,
        0.039256829768419266,
        -0.010819182731211185,
        0.9991705417633057
      ],
      "scale": [
        0.9999998211860657,
        0.9999998807907104,
        0.9999998807907104
      ],
      "translation": [
        -0.06403723359107971,
        -0.0013495582388713956,
        -0.003340507159009576
      ]
    },
    {
      "name": "MiddleFinger1_L_end_058",
      "rotation": [
        -1.0842021724855044e-19,
        -9.211483301390516e-19,
        1.0842021724855044e-19,
        1.0
      ],
      "translation": [
        0.0,
        0.06677336990833282,
        0.0
      ]
    },
    {
      "children": [
        29
      ],
      "name": "PinkyFinger1_L_019",
      "rotation": [
        -0.0017543785506859422,
        0.06125274673104286,
        -0.07361114025115967,
        0.9954026341438293
      ],
      "scale": [
        0.9999997019767761,
        1.0000001192092896,
        0.9999998211860657
      ],
      "translation": [
        -0.05800241231918335,
        0.029030222445726395,
        -0.0002698485041037202
      ]
    },
    {
      "name": "PinkyFinger1_L_end_059",
      "rotation": [
        1.5178830414797062e-18,
        -5.502326025363935e-18,
        -1.3877787807814457e-17,
        1.0
      ],
      "translation": [
        5.551115123125783e-17,
        0.06677337735891342,
        0.0
      ]
    },
    {
      "children": [
        31
      ],
      "name": "ThumbFinger1_L_020",
      "rotation": [
        -0.4037160277366638,
        0.15263265371322632,
        0.4735877215862274,
        0.7677443027496338
      ],
      "scale": [
        1.0000001192092896,
        0.9999997615814209,
        1.000000238418579
      ],
      "translation": [
        -0.040692731738090515,
        -0.042654991149902344,
        0.024657582864165306
      ]
    },
    {
      "name": "ThumbFinger1_L_end_060",
      "rotation": [
        -1.3877787807814457e-17,
        -5.551115123125783e-17,
        1.3877787807814457e-17,
        1.0
      ],
      "translation": [
        0.0,
        0.06677335500717163,
        0.0
      ]
    },
    {
      "children": [
        33
      ],
      "name": "Clavicle_R_021",
      "rotation": [
        -0.006799221970140934,
        0.7197151184082031,
        0.007049123290926218,
        0.6942003965377808
      ],
      "scale": [
        1.0,
        0.9999999403953552,
        0.9999999403953552
      ],
      "translation": [
        0.03353184461593628,
        -0.006157670635730028,
        -0.013009732589125633
      ]
    },
    {
      "children": [
        34
      ],
      "name": "Shoulder_R_022",
      "rotation": [
        0.0881042554974556,
        -0.016267908737063408,
        -0.042917266488075256,
        0.9950532913208008
      ],
      "scale": [
        0.9999999403953552,
        0.9999998807907104,
        1.000000238418579
      ],
      "translation": [
        0.058454059064388275,
        3.9071892388165e-09,
        1.6167177818715572e-08
      ]
    },
    {
      "children": [
        35
      ],
      "name": "Elbow_R_023",
      "rotation": [
        1.3548735466883954e-07,
        -2.9087763309121328e-08,
        0.0829913467168808,
        0.9965502619743347
      ],
      "scale": [
        0.9999999403953552,
        0.9999997615814209,
        0.9999998807907104
      ],
      "translation": [
        0.07557294517755508,
        -9.313225746154785e-09,
        2.7241185307502747e-08
      ]
    },
    {
      "children": [
        36,
        38,
        40,
        42
      ],
      "name": "Wrist_R_024",
      "rotation": [
        -0.07822422683238983,
        -0.0044596330262720585,
        -0.026414625346660614,
        0.9965758323669434
      ],
      "scale": [
        1.000000238418579,
        1.0000003576278687,
        0.9999998807907104
      ],
      "translation": [
        0.07025071233510971,
        -4.190951585769653e-09,
        -1.7113052308559418e-08
      ]
    },
    {
      "children": [
        37
      ],
      "name": "IndexFinger1_R_025",
      "rotation": [
        0.0015961710596457124,
        0.09597742557525635,
        0.012021730653941631,
        0.9953096508979797
      ],
      "scale": [
        0.9999999403953552,
        0.9999997615814209,
        0.9999998807907104
      ],
      "translation": [
        0.06482961773872375,
        0.03591938316822052,
        0.003365102456882596
      ]
    },
    {
      "name": "IndexFinger1_R_end_061",
      "rotation": [
        2.637809323245213e-35,
        -7.6029677345546e-18,
        3.469446951953614e-18,
        1.0
      ],
      "translation": [
        2.7755575615628914e-17,
        0.06677339226007462,
        0.0
      ]
    },
    {
      "children": [
        39
      ],
      "name": "MiddleFinger1_R_026",
      "rotation": [
        -0.00013494510494638234,
        0.0392569862306118,
        -0.01081923395395279,
        0.9991705417633057
      ],
      "scale": [
        0.9999998807907104,
        1.0000001192092896,
        0.9999999403953552
      ],
      "translation": [
        0.0640372484922409,
        0.001349546597339213,
        0.0033404985442757607
      ]
    },
    {
      "name": "MiddleFinger1_R_end_062",
      "rotation": [
        -3.2526065174565133e-19,
        1.5775988642611344e-18,
        -1.0842021724855044e-19,
        1.0
      ],
      "translation": [
        -5.551115123125783e-17,
        0.06677339971065521,
        5.551115123125783e-17
      ]
    },
    {
      "children": [
        41
      ],
      "name": "PinkyFinger1_R_027",
      "rotation": [
        -0.0017543974099680781,
        0.06125253811478615,
        -0.07361120730638504,
        0.9954026341438293
      ],
      "scale": [
        0.9999995827674866,
        1.0,
        0.9999998211860657
      ],
      "translation": [
        0.058002449572086334,
        -0.029030224308371544,
        0.0002698064490687102
      ]
    },
    {
      "name": "PinkyFinger1_R_end_063",
      "rotation": [
        1.0842021724855044e-18,
        -1.6127507315721878e-17,
        6.938893903907228e-18,
        1.0
      ],
      "translation": [
        2.7755575615628914e-17,
        0.06677339971065521,
        0.0
      ]
    },
    {
      "children": [
        43
      ],
      "name": "ThumbFinger1_R_028",
      "rotation": [
        -0.4037160873413086,
        0.15263259410858154,
        0.47358763217926025,
        0.7677443623542786
      ],
      "scale": [
        0.9999999403953552,
        0.9999997019767761,
        1.0000001192092896
      ],
      "translation": [
        0.04069279134273529,
        0.04265497252345085,
        -0.0246575940400362
      ]
    },
    {
      "name": "ThumbFinger1_R_end_064",
      "rotation": [
        7.703719777548943e-34,
        2.7755575615628914e-17,
        -2.7755575615628914e-17,
        1.0
      ],
      "translation": [
        -2.7755575615628914e-17,
        0.06677339971065521,
        0.0
      ]
    },
    {
      "children": [
        45
      ],
      "name": "Neck_M_029",
      "rotation": [
        -4.440892098500626e-15,
        2.489380275157721e-23,
        7.77549775799846e-23,
        1.0
      ],
      "translation": [
        0.04296785593032837,
        3.725290298461914e-09,
        1.8781869393080797e-09
      ]
    },
    {
      "children": [
        46,
        51,
        56,
        58,
        60,
        62,
        64,
        67,
        80
      ],
      "name": "Head_M_030",
      "rotation": [
        9.367339792731855e-09,
        2.6163768929166054e-09,
        -0.2019570916891098,
        0.9793943762779236
      ],
      "scale": [
        0.9999998211860657,
        0.9999998807907104,
        1.0
      ],
      "translation": [
        0.02787041664123535,
        1.0800623728712822e-09,
        1.2182583830622207e-09
      ]
    },
    {
      "children": [
        47,
        49
      ],
      "name": "brow_both_L_031",
      "rotation": [
        -0.16891589760780334,
        -0.003668565070256591,
        -0.7278475761413574,
        0.6645990610122681
      ],
      "scale": [
        1.0000001192092896,
        1.0000001192092896,
        1.0
      ],
      "translation": [
        0.1402849555015564,
        0.0899428129196167,
        0.054336823523044586
      ]
    },
    {
      "children": [
        48
      ],
      "name": "brow_inner_L_032",
      "rotation": [
        0.9736217856407166,
        0.0350768081843853,
        -0.21504196524620056,
        -0.06773063540458679
      ],
      "scale": [
        0.9999990463256836,
        0.9999997615814209,
        0.9999890923500061
      ],
      "translation": [
        -0.10452771931886673,
        2.1886080503463745e-08,
        0.0
      ]
    },
    {
      "name": "brow_inner_L_end_065",
      "rotation": [
        6.938893903907228e-18,
        1.3877787807814457e-17,
        -5.551115123125783e-17,
        1.0
      ],
      "translation": [
        0.0,
        0.09836427122354507,
        0.0
      ]
    },
    {
      "children": [
        50
      ],
      "name": "brow_outer_L_033",
      "rotation": [
        0.8893911242485046,
        -0.10626043379306793,
        -0.44072484970092773,
        0.058768775314092636
      ],
      "scale": [
        1.0000004768371582,
        1.0000001192092896,
        1.0000009536743164
      ],
      "translation": [
        -0.02061307244002819,
        0.04858306795358658,
        0.07560291886329651
      ]
    },
    {
      "name": "brow_outer_L_end_066",
      "rotation": [
        2.7755575615628914e-17,
        -2.311115933264683e-33,
        -8.326672684688674e-17,
        1.0
      ],
      "translation": [
        1.1102230246251565e-16,
        0.09836427122354507,
        6.938893903907228e-18
      ]
    },
    {
      "children": [
        52,
        54
      ],
      "name": "brow_both_R_034",
      "rotation": [
        0.003668624209240079,
        -0.16891606152057648,
        0.6645991206169128,
        0.7278474569320679
      ],
      "scale": [
        1.0000003576278687,
        0.9999999403953552,
        1.0
      ],
      "translation": [
        0.14028491079807281,
        0.08994278311729431,
        -0.05433681234717369
      ]
    },
    {
      "children": [
        53
      ],
      "name": "brow_inner_R_035",
      "rotation": [
        0.9736217260360718,
        0.0350768081843853,
        -0.2150421142578125,
        -0.0677306205034256
      ],
      "scale": [
        0.9999988675117493,
        0.9999998807907104,
        0.9999893307685852
      ],
      "translation": [
        0.10452768951654434,
        1.3969838619232178e-09,
        6.51925802230835e-09
      ]
    },
    {
      "name": "brow_inner_R_end_067",
      "rotation": [
        -6.938893903907228e-18,
        2.7755575615628914e-17,
        -2.7755575615628914e-17,
        1.0
      ],
      "translation": [
        0.0,
        0.09836426377296448,
        0.0
      ]
    },
    {
      "children": [
        55
      ],
      "name": "brow_outer_R_036",
      "rotation": [
        0.8893906474113464,
        -0.1062602624297142,
        -0.4407258629798889,
        0.05876896530389786
      ],
      "scale": [
        0.9999992251396179,
        0.9999998807907104,
        0.9999982714653015
      ],
      "translation": [
        0.020613033324480057,
        -0.04858304187655449,
        -0.07560290396213531
      ]
    },
    {
      "name": "brow_outer_R_end_068",
      "rotation": [
        -2.7755575615628914e-17,
        -2.7755575615628914e-17,
        2.7755575615628914e-17,
        1.0
      ],
      "translation": [
        -1.1102230246251565e-16,
        0.09836424887180328,
        1.3877787807814457e-17
      ]
    },
    {
      "children": [
        57
      ],
      "name": "eye_L_037",
      "rotation": [
        1.354450857027345e-10,
        -6.568373622783952e-10,
        0.2019570767879486,
        0.9793943762779236
      ],
      "scale": [
        1.0000001192092896,
        1.000000238418579,
        1.0
      ],
      "translation": [
        0.10903075337409973,
        0.11076734960079193,
        0.05371258407831192
      ]
    },
    {
      "name": "eye_L_end_069",
      "rotation": [
        0.0,
        2.802751167680061e-23,
        0.0,
        1.0
      ],
      "translation": [
        0.0,
        0.16555804014205933,
        0.0
      ]
    },
    {
      "children": [
        59
      ],
      "name": "eye_lidTop_L_038",
      "rotation": [
        -4.5739660947674565e-08,
        2.0556150115425e-09,
        0.9793944358825684,
        -0.2019568234682083
      ],
      "scale": [
        1.000001311302185,
        1.000000238418579,
        1.0
      ],
      "translation": [
        0.1056043729186058,
        0.11872223019599915,
        0.05371258407831192
      ]
    },
    {
      "name": "eye_lidTop_L_end_070",
      "rotation": [
        -3.308722450212111e-24,
        9.909197374843218e-26,
        0.0,
        1.0
      ],
      "translation": [
        0.0,
        0.16555804014205933,
        0.0
      ]
    },
    {
      "children": [
        61
      ],
      "name": "eye_lidTop_R_039",
      "rotation": [
        1.354450857027345e-10,
        -6.568373622783952e-10,
        0.2019570767879486,
        0.9793943762779236
      ],
      "scale": [
        1.0000001192092896,
        1.000000238418579,
        1.0
      ],
      "translation": [
        0.10560432076454163,
        0.11872220784425735,
        -0.05371257662773132
      ]
    },
    {
      "name": "eye_lidTop_R_end_071",
      "rotation": [
        0.0,
        2.802751167680061e-23,
        0.0,
        1.0
      ],
      "translation": [
        0.0,
        0.16555804014205933,
        6.938893903907228e-18
      ]
    },
    {
      "children": [
        63
      ],
      "name": "eye_R_040",
      "rotation": [
        1.354450857027345e-10,
        -6.568373622783952e-10,
        0.2019570767879486,
        0.9793943762779236
      ],
      "scale": [
        1.0000001192092896,
        1.000000238418579,
        1.0
      ],
      "translation": [
        0.10903076827526093,
        0.11076734960079193,
        -0.05371257662773132
      ]
    },
    {
      "name": "eye_R_end_072",
      "rotation": [
        0.0,
        2.802751167680061e-23,
        0.0,
        1.0
      ],
      "translation": [
        0.0,
        0.16555804014205933,
        0.0
      ]
    },
    {
      "children": [
        65
      ],
      "name": "hair_M_00",
      "rotation": [
        1.0034759689858674e-09,
        2.06544759073779e-09,
        -0.01962979882955551,
        0.9998072981834412
      ],
      "scale": [
        1.0000001192092896,
        1.000000238418579,
        1.0
      ],
      "translation": [
        0.2822893261909485,
        5.21540641784668e-08,
        1.3847474278350091e-08
      ]
    },
    {
      "children": [
        66
      ],
      "name": "hair2_M_041",
      "rotation": [
        -1.6786431966675508e-10,
        7.719689332219559e-10,
        0.0031111163552850485,
        0.9999951720237732
      ],
      "scale": [
        1.0,
        1.0000001192092896,
        1.0
      ],
      "translation": [
        0.09678097069263458,
        -4.470348358154297e-08,
        5.147381187953215e-09
      ]
    },
    {
      "name": "hair2_M_end_073",
      "rotation": [
        -6.617444900424222e-24,
        1.9852334701272664e-23,
        2.7755575615628914e-17,
        1.0
      ],
      "translation": [
        -2.220446049250313e-16,
        0.09678079932928085,
        0.0
      ]
    },
    {
      "children": [
        68,
        70,
        72,
        74,
        77
      ],
      "name": "jaw_M_042",
      "rotation": [
        -4.1550414664470736e-08,
        -8.862970912737467e-10,
        0.8806077241897583,
        0.47384601831436157
      ],
      "scale": [
        1.0000001192092896,
        1.0000001192092896,
        1.0
      ],
      "translation": [
        0.04824080690741539,
        0.08348187804222107,
        2.366417062305004e-09
      ]
    },
    {
      "children": [
        69
      ],
      "name": "mouth_btm_M_043",
      "rotation": [
        3.8449125827622055e-11,
        5.407831404902197e-10,
        -0.0008384106331504881,
        0.9999996423721313
      ],
      "scale": [
        0.9999997019767761,
        0.9999997615814209,
        1.0
      ],
      "translation": [
        0.12294474244117737,
        -2.60770320892334e-08,
        5.571035632812027e-09
      ]
    },
    {
      "name": "mouth_btm_M_end_074",
      "rotation": [
        -7.367077330550403e-24,
        -2.274746684520826e-24,
        2.7755575615628914e-17,
        1.0
      ],
      "translation": [
        0.0,
        0.12261516600847244,
        -6.617444900424222e-24
      ]
    },
    {
      "children": [
        71
      ],
      "name": "mouth_btm_mid_L_044",
      "rotation": [
        0.0008184508769772947,
        0.9762894511222839,
        -0.0001815364375943318,
        0.21646761894226074
      ],
      "scale": [
        1.0000001192092896,
        0.9999999403953552,
        1.0000001192092896
      ],
      "translation": [
        0.11702849715948105,
        -0.001068307552486658,
        0.0409817136824131
      ]
    },
    {
      "name": "mouth_btm_mid_L_end_075",
      "rotation": [
        6.938893903907228e-18,
        0.0,
        0.0,
        1.0
      ],
      "translation": [
        1.3877787807814457e-17,
        0.12261519581079483,
        -1.3877787807814457e-17
      ]
    },
    {
      "children": [
        73
      ],
      "name": "mouth_btm_mid_R_045",
      "rotation": [
        0.9762892723083496,
        -0.0008185763726942241,
        -0.21646836400032043,
        -0.00018156945588998497
      ],
      "scale": [
        1.0000001192092896,
        0.9999995231628418,
        1.0
      ],
      "translation": [
        0.11702848225831985,
        -0.0010683066211640835,
        -0.040981702506542206
      ]
    },
    {
      "name": "mouth_btm_mid_R_end_076",
      "rotation": [
        0.0,
        -2.7755575615628914e-17,
        0.0,
        1.0
      ],
      "translation": [
        0.0,
        0.12261516600847244,
        1.3877787807814457e-17
      ]
    },
    {
      "children": [
        75
      ],
      "name": "mouth_outer_L_046",
      "rotation": [
        0.049275953322649,
        0.31018564105033875,
        -0.0005783934611827135,
        0.9493979215621948
      ],
      "scale": [
        1.0,
        1.000000238418579,
        1.0
      ],
      "translation": [
        0.0885336846113205,
        -0.009472926147282124,
        0.08202823996543884
      ]
    },
    {
      "children": [
        76
      ],
      "name": "cheek_L_047",
      "rotation": [
        -0.012118250131607056,
        0.6519627571105957,
        -0.02685311622917652,
        0.7576784491539001
      ],
      "scale": [
        0.9999998807907104,
        0.9999999403953552,
        0.9999999403953552
      ],
      "translation": [
        -0.07787400484085083,
        9.313224635931761e-10,
        -2.0023435354232788e-08
      ]
    },
    {
      "name": "cheek_L_end_077",
      "rotation": [
        0.0,
        -5.551115123125783e-17,
        0.0,
        1.0
      ],
      "translation": [
        2.7755575615628914e-17,
        0.07787401974201202,
        0.0
      ]
    },
    {
      "children": [
        78
      ],
      "name": "mouth_outer_R_048",
      "rotation": [
        -0.310188889503479,
        0.04927656054496765,
        0.9493968486785889,
        0.0005779133061878383
      ],
      "scale": [
        1.000002384185791,
        0.9999995827674866,
        1.0000207424163818
      ],
      "translation": [
        0.08853369951248169,
        -0.00947293546050787,
        -0.08202821761369705
      ]
    },
    {
      "children": [
        79
      ],
      "name": "cheek_R_049",
      "rotation": [
        -0.012117662467062473,
        0.6519613265991211,
        -0.02685258910059929,
        0.7576797008514404
      ],
      "scale": [
        1.0,
        1.0,
        1.0000001192092896
      ],
      "translation": [
        0.0778738483786583,
        -8.754432201385498e-08,
        1.1194497346878052e-06
      ]
    },
    {
      "name": "cheek_R_end_078",
      "rotation": [
        1.925929944387236e-34,
        2.7755575615628914e-17,
        -6.938893903907228e-18,
        1.0
      ],
      "translation": [
        0.0,
        0.0778740867972374,
        1.3877787807814457e-17
      ]
    },
    {
      "children": [
        81,
        83,
        85,
        87
      ],
      "name": "mouth_Upper_M_050",
      "rotation": [
        -3.7637303051951676e-08,
        -1.6263537183647259e-09,
        0.8136628866195679,
        0.581337034702301
      ],
      "scale": [
        1.000000238418579,
        1.000000238418579,
        1.0
      ],
      "translation": [
        0.04824050888419151,
        0.08348193019628525,
        2.3664001869150297e-09
      ]
    },
    {
      "children": [
        82
      ],
      "name": "mouth_top_M_051",
      "rotation": [
        -4.914495033148114e-09,
        -5.888886045468666e-10,
        0.11464729905128479,
        0.993406355381012
      ],
      "scale": [
        0.9999998211860657,
        0.9999998807907104,
        1.0
      ],
      "translation": [
        0.12213701009750366,
        1.30385160446167e-08,
        5.3079580730752696e-09
      ]
    },
    {
      "name": "mouth_top_M_end_079",
      "rotation": [
        -5.686866711302065e-25,
        1.4475660719677984e-24,
        0.0,
        1.0
      ],
      "translation": [
        -2.7755575615628914e-17,
        0.1186847910284996,
        0.0
      ]
    },
    {
      "children": [
        84
      ],
      "name": "mouth_top_mid_L_052",
      "rotation": [
        -0.03769932687282562,
        0.9807829856872559,
        0.03641176596283913,
        0.18793001770973206
      ],
      "scale": [
        0.9999997615814209,
        0.9999998807907104,
        0.9999998807907104
      ],
      "translation": [
        0.11140520125627518,
        0.005229692906141281,
        0.04263395443558693
      ]
    },
    {
      "name": "mouth_top_mid_L_end_080",
      "rotation": [
        -1.3010426069826053e-18,
        -2.7755575615628914e-17,
        1.734723475976807e-18,
        1.0
      ],
      "translation": [
        2.7755575615628914e-17,
        0.1186847910284996,
        0.0
      ]
    },
    {
      "children": [
        86
      ],
      "name": "mouth_top_mid_R_053",
      "rotation": [
        0.9807817339897156,
        0.03769942745566368,
        -0.1879364252090454,
        0.03641136735677719
      ],
      "scale": [
        1.0000206232070923,
        0.9999996423721313,
        1.0000088214874268
      ],
      "translation": [
        0.11140522360801697,
        0.005229690112173557,
        -0.04263395071029663
      ]
    },
    {
      "name": "mouth_top_mid_R_end_081",
      "rotation": [
        2.6020852139652106e-18,
        0.0,
        0.0,
        1.0
      ],
      "translation": [
        0.0,
        0.1186848133802414,
        0.0
      ]
    },
    {
      "children": [
        88
      ],
      "name": "nose_M_054",
      "rotation": [
        1.690133366594182e-08,
        -5.2244848447458025e-09,
        -0.44937455654144287,
        0.893343448638916
      ],
      "scale": [
        0.9999996423721313,
        0.9999997019767761,
        1.0
      ],
      "translation": [
        0.10588204860687256,
        -0.04171724617481232,
        4.601535152914948e-09
      ]
    },
    {
      "name": "nose_M_end_082",
      "rotation": [
        1.6543612251060553e-23,
        7.444625512977249e-24,
        -5.551115123125783e-17,
        1.0
      ],
      "translation": [
        0.0,
        0.118684783577919,
        0.0
      ]
    },
    {
      "matrix": [
        232.99163544077965,
        6.167237297358028e-21,
        7.709041892810867e-22,
        0.0,
        -6.1672372391563756e-21,
        232.99163544077962,
        -1.759038070836393e-05,
        0.0,
        -7.709046548945929e-22,
        1.7590380708363963e-05,
        232.99163544078004,
        0.0,
        9.250855491138578e-21,
        -3.471845764762037e-06,
        -3.4718450335898497e-06,
        1.0
      ],
      "name": "Object_89"
    },
    {
      "mesh": 0,
      "name": "Object_90",
      "skin": 0
    },
    {
      "mesh": 1,
      "name": "Object_91",
      "skin": 0
    }
  ],
  "samplers": [
    {
      "magFilter": 9729,
      "minFilter": 9987,
      "wrapS": 10497,
      "wrapT": 10497
    }
  ],
  "scene": 0,
  "scenes": [
    {
      "name": "Sketchfab_Scene",
      "nodes": [
        0
      ]
    }
  ],
  "skins": [
    {
      "inverseBindMatrices": 8,
      "joints": [
        5,
        6,
        7,
        8,
        9,
        10,
        11,
        12,
        13,
        14,
        15,
        16,
        17,
        18,
        19,
        20,
        21,
        22,
        23,
        24,
        25,
        26,
        27,
        28,
        29,
        30,
        31,
        32,
        33,
        34,
        35,
        36,
        37,
        38,
        39,
        40,
        41,
        42,
        43,
        44,
        45,
        46,
        47,
        48,
        49,
        50,
        51,
        52,
        53,
        54,
        55,
        56,
        57,
        58,
        59,
        60,
        61,
        62,
        63,
        64,
        65,
        66,
        67,
        68,
        69,
        70,
        71,
        72,
        73,
        74,
        75,
        76,
        77,
        78,
        79,
        80,
        81,
        82,
        83,
        84,
        85,
        86,
        87,
        88
      ],
      "skeleton": 5
    }
  ],
  "textures": [
    {
      "sampler": 0,
      "source": 0
    },
    {
      "sampler": 0,
      "source": 1
    }
  ]
}
